<?xml version="1.0" encoding="utf-8" standalone="no"?>
<!DOCTYPE svg PUBLIC "-//W3C//DTD SVG 1.1//EN"
  "http://www.w3.org/Graphics/SVG/1.1/DTD/svg11.dtd">
<svg xmlns:xlink="http://www.w3.org/1999/xlink" width="1287.077933pt" height="342.116271pt" viewBox="0 0 1287.077933 342.116271" xmlns="http://www.w3.org/2000/svg" version="1.1">
 <metadata>
  <rdf:RDF xmlns:dc="http://purl.org/dc/elements/1.1/" xmlns:cc="http://creativecommons.org/ns#" xmlns:rdf="http://www.w3.org/1999/02/22-rdf-syntax-ns#">
   <cc:Work>
    <dc:type rdf:resource="http://purl.org/dc/dcmitype/StillImage"/>
    <dc:date>2026-04-30T09:22:47.500761</dc:date>
    <dc:format>image/svg+xml</dc:format>
    <dc:creator>
     <cc:Agent>
      <dc:title>Matplotlib v3.10.8, https://matplotlib.org/</dc:title>
     </cc:Agent>
    </dc:creator>
   </cc:Work>
  </rdf:RDF>
 </metadata>
 <defs>
  <style type="text/css">*{stroke-linejoin: round; stroke-linecap: butt}</style>
 </defs>
 <g id="figure_1">
  <g id="patch_1">
   <path d="M 0 342.116271
L 1287.077933 342.116271
L 1287.077933 0
L 0 0
z
" style="fill: #ffffff"/>
  </g>
  <g id="axes_1">
   <g id="patch_2">
    <path d="M 37.881875 308.478313
L 416.160561 308.478313
L 416.160561 48.768
L 37.881875 48.768
z
" style="fill: #ffffff"/>
   </g>
   <g id="matplotlib.axis_1">
    <g id="xtick_1">
     <g id="line2d_1">
      <path d="M 91.275278 308.478313
L 91.275278 48.768
" clip-path="url(#p980b8ad304)" style="fill: none; stroke: #cccccc; stroke-width: 0.8; stroke-linecap: round"/>
     </g>
     <g id="line2d_2"/>
     <g id="text_1">
      <!-- SISFALL -->
      <g style="fill: #262626" transform="translate(75.381455 330.256361) rotate(-20) scale(0.09 -0.09)">
       <defs>
        <path id="LiberationSans-53" d="M 3975 1216
Q 3975 606 3498 271
Q 3022 -63 2156 -63
Q 547 -63 291 1056
L 869 1172
Q 969 775 1294 589
Q 1619 403 2178 403
Q 2756 403 3070 601
Q 3384 800 3384 1184
Q 3384 1400 3286 1534
Q 3188 1669 3009 1756
Q 2831 1844 2584 1903
Q 2338 1963 2038 2031
Q 1516 2147 1245 2262
Q 975 2378 819 2520
Q 663 2663 580 2853
Q 497 3044 497 3291
Q 497 3856 930 4162
Q 1363 4469 2169 4469
Q 2919 4469 3316 4239
Q 3713 4009 3872 3456
L 3284 3353
Q 3188 3703 2916 3861
Q 2644 4019 2163 4019
Q 1634 4019 1356 3844
Q 1078 3669 1078 3322
Q 1078 3119 1186 2986
Q 1294 2853 1497 2761
Q 1700 2669 2306 2534
Q 2509 2488 2711 2439
Q 2913 2391 3097 2323
Q 3281 2256 3442 2165
Q 3603 2075 3722 1944
Q 3841 1813 3908 1634
Q 3975 1456 3975 1216
z
" transform="scale(0.015625)"/>
        <path id="LiberationSans-49" d="M 591 0
L 591 4403
L 1188 4403
L 1188 0
L 591 0
z
" transform="scale(0.015625)"/>
        <path id="LiberationSans-46" d="M 1122 3916
L 1122 2278
L 3578 2278
L 3578 1784
L 1122 1784
L 1122 0
L 525 0
L 525 4403
L 3653 4403
L 3653 3916
L 1122 3916
z
" transform="scale(0.015625)"/>
        <path id="LiberationSans-41" d="M 3647 0
L 3144 1288
L 1138 1288
L 631 0
L 13 0
L 1809 4403
L 2488 4403
L 4256 0
L 3647 0
z
M 2141 3953
L 2113 3866
Q 2034 3606 1881 3200
L 1319 1753
L 2966 1753
L 2400 3206
Q 2313 3422 2225 3694
L 2141 3953
z
" transform="scale(0.015625)"/>
        <path id="LiberationSans-4c" d="M 525 0
L 525 4403
L 1122 4403
L 1122 488
L 3347 488
L 3347 0
L 525 0
z
" transform="scale(0.015625)"/>
       </defs>
       <use xlink:href="#LiberationSans-53"/>
       <use xlink:href="#LiberationSans-49" transform="translate(66.699219 0)"/>
       <use xlink:href="#LiberationSans-53" transform="translate(94.482422 0)"/>
       <use xlink:href="#LiberationSans-46" transform="translate(161.181641 0)"/>
       <use xlink:href="#LiberationSans-41" transform="translate(216.765625 0)"/>
       <use xlink:href="#LiberationSans-4c" transform="translate(283.464844 0)"/>
       <use xlink:href="#LiberationSans-4c" transform="translate(339.080078 0)"/>
      </g>
     </g>
    </g>
    <g id="xtick_2">
     <g id="line2d_3">
      <path d="M 181.772571 308.478313
L 181.772571 48.768
" clip-path="url(#p980b8ad304)" style="fill: none; stroke: #cccccc; stroke-width: 0.8; stroke-linecap: round"/>
     </g>
     <g id="line2d_4"/>
     <g id="text_2">
      <!-- PAMAP2 -->
      <g style="fill: #262626" transform="translate(165.724139 330.368907) rotate(-20) scale(0.09 -0.09)">
       <defs>
        <path id="LiberationSans-50" d="M 3931 3078
Q 3931 2453 3523 2084
Q 3116 1716 2416 1716
L 1122 1716
L 1122 0
L 525 0
L 525 4403
L 2378 4403
Q 3119 4403 3525 4056
Q 3931 3709 3931 3078
z
M 3331 3072
Q 3331 3925 2306 3925
L 1122 3925
L 1122 2188
L 2331 2188
Q 3331 2188 3331 3072
z
" transform="scale(0.015625)"/>
        <path id="LiberationSans-4d" d="M 4269 0
L 4269 2938
Q 4269 3425 4297 3875
Q 4144 3316 4022 3000
L 2884 0
L 2466 0
L 1313 3000
L 1138 3531
L 1034 3875
L 1044 3528
L 1056 2938
L 1056 0
L 525 0
L 525 4403
L 1309 4403
L 2481 1350
Q 2544 1166 2601 955
Q 2659 744 2678 650
Q 2703 775 2783 1029
Q 2863 1284 2891 1350
L 4041 4403
L 4806 4403
L 4806 0
L 4269 0
z
" transform="scale(0.015625)"/>
        <path id="LiberationSans-32" d="M 322 0
L 322 397
Q 481 763 711 1042
Q 941 1322 1194 1548
Q 1447 1775 1695 1969
Q 1944 2163 2144 2356
Q 2344 2550 2467 2762
Q 2591 2975 2591 3244
Q 2591 3606 2378 3806
Q 2166 4006 1788 4006
Q 1428 4006 1195 3811
Q 963 3616 922 3263
L 347 3316
Q 409 3844 795 4156
Q 1181 4469 1788 4469
Q 2453 4469 2811 4155
Q 3169 3841 3169 3263
Q 3169 3006 3051 2753
Q 2934 2500 2703 2247
Q 2472 1994 1819 1463
Q 1459 1169 1246 933
Q 1034 697 941 478
L 3238 478
L 3238 0
L 322 0
z
" transform="scale(0.015625)"/>
       </defs>
       <use xlink:href="#LiberationSans-50"/>
       <use xlink:href="#LiberationSans-41" transform="translate(59.324219 0)"/>
       <use xlink:href="#LiberationSans-4d" transform="translate(126.023438 0)"/>
       <use xlink:href="#LiberationSans-41" transform="translate(209.324219 0)"/>
       <use xlink:href="#LiberationSans-50" transform="translate(276.023438 0)"/>
       <use xlink:href="#LiberationSans-32" transform="translate(342.722656 0)"/>
      </g>
     </g>
    </g>
    <g id="xtick_3">
     <g id="line2d_5">
      <path d="M 272.269865 308.478313
L 272.269865 48.768
" clip-path="url(#p980b8ad304)" style="fill: none; stroke: #cccccc; stroke-width: 0.8; stroke-linecap: round"/>
     </g>
     <g id="line2d_6"/>
     <g id="text_3">
      <!-- UCI_HAR -->
      <g style="fill: #262626" transform="translate(254.503557 331.619418) rotate(-20) scale(0.09 -0.09)">
       <defs>
        <path id="LiberationSans-55" d="M 2284 -63
Q 1744 -63 1341 134
Q 938 331 716 706
Q 494 1081 494 1600
L 494 4403
L 1091 4403
L 1091 1650
Q 1091 1047 1397 734
Q 1703 422 2281 422
Q 2875 422 3204 745
Q 3534 1069 3534 1691
L 3534 4403
L 4128 4403
L 4128 1656
Q 4128 1122 3901 734
Q 3675 347 3261 142
Q 2847 -63 2284 -63
z
" transform="scale(0.015625)"/>
        <path id="LiberationSans-43" d="M 2475 3981
Q 1744 3981 1337 3511
Q 931 3041 931 2222
Q 931 1413 1354 920
Q 1778 428 2500 428
Q 3425 428 3891 1344
L 4378 1100
Q 4106 531 3614 234
Q 3122 -63 2472 -63
Q 1806 -63 1320 214
Q 834 491 579 1005
Q 325 1519 325 2222
Q 325 3275 894 3872
Q 1463 4469 2469 4469
Q 3172 4469 3644 4194
Q 4116 3919 4338 3378
L 3772 3191
Q 3619 3575 3280 3778
Q 2941 3981 2475 3981
z
" transform="scale(0.015625)"/>
        <path id="LiberationSans-5f" d="M -97 -1272
L -97 -866
L 3631 -866
L 3631 -1272
L -97 -1272
z
" transform="scale(0.015625)"/>
        <path id="LiberationSans-48" d="M 3503 0
L 3503 2041
L 1122 2041
L 1122 0
L 525 0
L 525 4403
L 1122 4403
L 1122 2541
L 3503 2541
L 3503 4403
L 4100 4403
L 4100 0
L 3503 0
z
" transform="scale(0.015625)"/>
        <path id="LiberationSans-52" d="M 3638 0
L 2494 1828
L 1122 1828
L 1122 0
L 525 0
L 525 4403
L 2597 4403
Q 3341 4403 3745 4070
Q 4150 3738 4150 3144
Q 4150 2653 3864 2318
Q 3578 1984 3075 1897
L 4325 0
L 3638 0
z
M 3550 3138
Q 3550 3522 3289 3723
Q 3028 3925 2538 3925
L 1122 3925
L 1122 2300
L 2563 2300
Q 3034 2300 3292 2520
Q 3550 2741 3550 3138
z
" transform="scale(0.015625)"/>
       </defs>
       <use xlink:href="#LiberationSans-55"/>
       <use xlink:href="#LiberationSans-43" transform="translate(72.216797 0)"/>
       <use xlink:href="#LiberationSans-49" transform="translate(144.433594 0)"/>
       <use xlink:href="#LiberationSans-5f" transform="translate(172.216797 0)"/>
       <use xlink:href="#LiberationSans-48" transform="translate(227.832031 0)"/>
       <use xlink:href="#LiberationSans-41" transform="translate(300.048828 0)"/>
       <use xlink:href="#LiberationSans-52" transform="translate(366.748047 0)"/>
      </g>
     </g>
    </g>
    <g id="xtick_4">
     <g id="line2d_7">
      <path d="M 362.767158 308.478313
L 362.767158 48.768
" clip-path="url(#p980b8ad304)" style="fill: none; stroke: #cccccc; stroke-width: 0.8; stroke-linecap: round"/>
     </g>
     <g id="line2d_8"/>
     <g id="text_4">
      <!-- MOBIFALL -->
      <g style="fill: #262626" transform="translate(342.882577 333.161395) rotate(-20) scale(0.09 -0.09)">
       <defs>
        <path id="LiberationSans-4f" d="M 4672 2222
Q 4672 1531 4408 1012
Q 4144 494 3650 215
Q 3156 -63 2484 -63
Q 1806 -63 1314 212
Q 822 488 562 1008
Q 303 1528 303 2222
Q 303 3278 881 3873
Q 1459 4469 2491 4469
Q 3163 4469 3656 4201
Q 4150 3934 4411 3425
Q 4672 2916 4672 2222
z
M 4063 2222
Q 4063 3044 3652 3512
Q 3241 3981 2491 3981
Q 1734 3981 1321 3518
Q 909 3056 909 2222
Q 909 1394 1326 908
Q 1744 422 2484 422
Q 3247 422 3655 892
Q 4063 1363 4063 2222
z
" transform="scale(0.015625)"/>
        <path id="LiberationSans-42" d="M 3931 1241
Q 3931 653 3503 326
Q 3075 0 2313 0
L 525 0
L 525 4403
L 2125 4403
Q 3675 4403 3675 3334
Q 3675 2944 3456 2678
Q 3238 2413 2838 2322
Q 3363 2259 3647 1970
Q 3931 1681 3931 1241
z
M 3075 3263
Q 3075 3619 2831 3772
Q 2588 3925 2125 3925
L 1122 3925
L 1122 2531
L 2125 2531
Q 2603 2531 2839 2711
Q 3075 2891 3075 3263
z
M 3328 1288
Q 3328 2066 2234 2066
L 1122 2066
L 1122 478
L 2281 478
Q 2828 478 3078 681
Q 3328 884 3328 1288
z
" transform="scale(0.015625)"/>
       </defs>
       <use xlink:href="#LiberationSans-4d"/>
       <use xlink:href="#LiberationSans-4f" transform="translate(83.300781 0)"/>
       <use xlink:href="#LiberationSans-42" transform="translate(161.083984 0)"/>
       <use xlink:href="#LiberationSans-49" transform="translate(227.783203 0)"/>
       <use xlink:href="#LiberationSans-46" transform="translate(255.566406 0)"/>
       <use xlink:href="#LiberationSans-41" transform="translate(311.150391 0)"/>
       <use xlink:href="#LiberationSans-4c" transform="translate(377.849609 0)"/>
       <use xlink:href="#LiberationSans-4c" transform="translate(433.464844 0)"/>
      </g>
     </g>
    </g>
   </g>
   <g id="matplotlib.axis_2">
    <g id="ytick_1">
     <g id="line2d_9">
      <path d="M 37.881875 300.474594
L 416.160561 300.474594
" clip-path="url(#p980b8ad304)" style="fill: none; stroke: #cccccc; stroke-width: 0.8; stroke-linecap: round"/>
     </g>
     <g id="line2d_10"/>
     <g id="text_5">
      <!-- $\mathdefault{10^{6}}$ -->
      <g style="fill: #262626" transform="translate(20.521875 303.735688) scale(0.09 -0.09)">
       <defs>
        <path id="LiberationSans-31" d="M 488 0
L 488 478
L 1609 478
L 1609 3866
L 616 3156
L 616 3688
L 1656 4403
L 2175 4403
L 2175 478
L 3247 478
L 3247 0
L 488 0
z
" transform="scale(0.015625)"/>
        <path id="LiberationSans-30" d="M 3309 2203
Q 3309 1100 2920 518
Q 2531 -63 1772 -63
Q 1013 -63 631 515
Q 250 1094 250 2203
Q 250 3338 620 3903
Q 991 4469 1791 4469
Q 2569 4469 2939 3897
Q 3309 3325 3309 2203
z
M 2738 2203
Q 2738 3156 2517 3584
Q 2297 4013 1791 4013
Q 1272 4013 1045 3591
Q 819 3169 819 2203
Q 819 1266 1048 831
Q 1278 397 1778 397
Q 2275 397 2506 840
Q 2738 1284 2738 2203
z
" transform="scale(0.015625)"/>
        <path id="LiberationSans-36" d="M 3278 1441
Q 3278 744 2900 340
Q 2522 -63 1856 -63
Q 1113 -63 719 490
Q 325 1044 325 2100
Q 325 3244 734 3856
Q 1144 4469 1900 4469
Q 2897 4469 3156 3572
L 2619 3475
Q 2453 4013 1894 4013
Q 1413 4013 1148 3564
Q 884 3116 884 2266
Q 1038 2550 1316 2698
Q 1594 2847 1953 2847
Q 2563 2847 2920 2465
Q 3278 2084 3278 1441
z
M 2706 1416
Q 2706 1894 2472 2153
Q 2238 2413 1819 2413
Q 1425 2413 1183 2183
Q 941 1953 941 1550
Q 941 1041 1192 716
Q 1444 391 1838 391
Q 2244 391 2475 664
Q 2706 938 2706 1416
z
" transform="scale(0.015625)"/>
       </defs>
       <use xlink:href="#LiberationSans-31" transform="translate(0 0.140625)"/>
       <use xlink:href="#LiberationSans-30" transform="translate(55.615234 0.140625)"/>
       <use xlink:href="#LiberationSans-36" transform="translate(112.154961 37.120312) scale(0.7)"/>
      </g>
     </g>
    </g>
    <g id="ytick_2">
     <g id="line2d_11">
      <path d="M 37.881875 100.602224
L 416.160561 100.602224
" clip-path="url(#p980b8ad304)" style="fill: none; stroke: #cccccc; stroke-width: 0.8; stroke-linecap: round"/>
     </g>
     <g id="line2d_12"/>
     <g id="text_6">
      <!-- $\mathdefault{10^{7}}$ -->
      <g style="fill: #262626" transform="translate(20.521875 103.863318) scale(0.09 -0.09)">
       <defs>
        <path id="LiberationSans-37" d="M 3238 3947
Q 2563 2916 2284 2331
Q 2006 1747 1867 1178
Q 1728 609 1728 0
L 1141 0
Q 1141 844 1498 1776
Q 1856 2709 2694 3925
L 328 3925
L 328 4403
L 3238 4403
L 3238 3947
z
" transform="scale(0.015625)"/>
       </defs>
       <use xlink:href="#LiberationSans-31" transform="translate(0 0.8625)"/>
       <use xlink:href="#LiberationSans-30" transform="translate(55.615234 0.8625)"/>
       <use xlink:href="#LiberationSans-37" transform="translate(112.154961 37.842188) scale(0.7)"/>
      </g>
     </g>
    </g>
    <g id="ytick_3">
     <g id="line2d_13"/>
    </g>
    <g id="ytick_4">
     <g id="line2d_14"/>
    </g>
    <g id="ytick_5">
     <g id="line2d_15"/>
    </g>
    <g id="ytick_6">
     <g id="line2d_16"/>
    </g>
    <g id="ytick_7">
     <g id="line2d_17"/>
    </g>
    <g id="ytick_8">
     <g id="line2d_18"/>
    </g>
    <g id="ytick_9">
     <g id="line2d_19"/>
    </g>
    <g id="ytick_10">
     <g id="line2d_20"/>
    </g>
    <g id="text_7">
     <!-- rows -->
     <g style="fill: #262626" transform="translate(14.446875 189.179406) rotate(-90) scale(0.1 -0.1)">
      <defs>
       <path id="LiberationSans-72" d="M 444 0
L 444 2594
Q 444 2950 425 3381
L 956 3381
Q 981 2806 981 2691
L 994 2691
Q 1128 3125 1303 3284
Q 1478 3444 1797 3444
Q 1909 3444 2025 3413
L 2025 2897
Q 1913 2928 1725 2928
Q 1375 2928 1190 2626
Q 1006 2325 1006 1763
L 1006 0
L 444 0
z
" transform="scale(0.015625)"/>
       <path id="LiberationSans-6f" d="M 3291 1694
Q 3291 806 2900 371
Q 2509 -63 1766 -63
Q 1025 -63 647 389
Q 269 841 269 1694
Q 269 3444 1784 3444
Q 2559 3444 2925 3017
Q 3291 2591 3291 1694
z
M 2700 1694
Q 2700 2394 2492 2711
Q 2284 3028 1794 3028
Q 1300 3028 1079 2704
Q 859 2381 859 1694
Q 859 1025 1076 689
Q 1294 353 1759 353
Q 2266 353 2483 678
Q 2700 1003 2700 1694
z
" transform="scale(0.015625)"/>
       <path id="LiberationSans-77" d="M 3669 0
L 3016 0
L 2425 2391
L 2313 2919
Q 2284 2778 2225 2514
Q 2166 2250 1588 0
L 938 0
L -9 3381
L 547 3381
L 1119 1084
Q 1141 1009 1253 466
L 1306 697
L 2013 3381
L 2616 3381
L 3206 1059
L 3350 466
L 3447 900
L 4088 3381
L 4638 3381
L 3669 0
z
" transform="scale(0.015625)"/>
       <path id="LiberationSans-73" d="M 2969 934
Q 2969 456 2608 196
Q 2247 -63 1597 -63
Q 966 -63 623 145
Q 281 353 178 794
L 675 891
Q 747 619 972 492
Q 1197 366 1597 366
Q 2025 366 2223 497
Q 2422 628 2422 891
Q 2422 1091 2284 1216
Q 2147 1341 1841 1422
L 1438 1528
Q 953 1653 748 1773
Q 544 1894 428 2066
Q 313 2238 313 2488
Q 313 2950 642 3192
Q 972 3434 1603 3434
Q 2163 3434 2492 3237
Q 2822 3041 2909 2606
L 2403 2544
Q 2356 2769 2151 2889
Q 1947 3009 1603 3009
Q 1222 3009 1040 2893
Q 859 2778 859 2544
Q 859 2400 934 2306
Q 1009 2213 1156 2147
Q 1303 2081 1775 1966
Q 2222 1853 2419 1758
Q 2616 1663 2730 1547
Q 2844 1431 2906 1279
Q 2969 1128 2969 934
z
" transform="scale(0.015625)"/>
      </defs>
      <use xlink:href="#LiberationSans-72"/>
      <use xlink:href="#LiberationSans-6f" transform="translate(33.300781 0)"/>
      <use xlink:href="#LiberationSans-77" transform="translate(88.916016 0)"/>
      <use xlink:href="#LiberationSans-73" transform="translate(161.132812 0)"/>
     </g>
    </g>
   </g>
   <g id="patch_3">
    <path d="M 55.076361 201372.078908
L 127.474195 201372.078908
L 127.474195 60.573014
L 55.076361 60.573014
z
" clip-path="url(#p980b8ad304)" style="fill: #355070; opacity: 0.9"/>
   </g>
   <g id="patch_4">
    <path d="M 145.573654 201372.078908
L 217.971489 201372.078908
L 217.971489 209.278089
L 145.573654 209.278089
z
" clip-path="url(#p980b8ad304)" style="fill: #355070; opacity: 0.9"/>
   </g>
   <g id="patch_5">
    <path d="M 236.070947 201372.078908
L 308.468782 201372.078908
L 308.468782 276.488905
L 236.070947 276.488905
z
" clip-path="url(#p980b8ad304)" style="fill: #355070; opacity: 0.9"/>
   </g>
   <g id="patch_6">
    <path d="M 326.568241 201372.078908
L 398.966075 201372.078908
L 398.966075 296.673299
L 326.568241 296.673299
z
" clip-path="url(#p980b8ad304)" style="fill: #355070; opacity: 0.9"/>
   </g>
   <g id="patch_7">
    <path d="M 37.881875 308.478313
L 37.881875 48.768
" style="fill: none; stroke: #cccccc; stroke-linejoin: miter; stroke-linecap: square"/>
   </g>
   <g id="patch_8">
    <path d="M 37.881875 308.478313
L 416.160561 308.478313
" style="fill: none; stroke: #cccccc; stroke-linejoin: miter; stroke-linecap: square"/>
   </g>
   <g id="text_8">
    <!-- Rows per dataset (log scale) -->
    <g style="fill: #262626" transform="translate(146.004343 42.768) scale(0.12 -0.12)">
     <defs>
      <path id="LiberationSans-Bold-52" d="M 3453 0
L 2431 1672
L 1350 1672
L 1350 0
L 428 0
L 428 4403
L 2628 4403
Q 3416 4403 3844 4064
Q 4272 3725 4272 3091
Q 4272 2628 4009 2292
Q 3747 1956 3300 1850
L 4491 0
L 3453 0
z
M 3344 3053
Q 3344 3688 2531 3688
L 1350 3688
L 1350 2388
L 2556 2388
Q 2944 2388 3144 2563
Q 3344 2738 3344 3053
z
" transform="scale(0.015625)"/>
      <path id="LiberationSans-Bold-6f" d="M 3659 1694
Q 3659 872 3203 404
Q 2747 -63 1941 -63
Q 1150 -63 700 406
Q 250 875 250 1694
Q 250 2509 700 2976
Q 1150 3444 1959 3444
Q 2788 3444 3223 2992
Q 3659 2541 3659 1694
z
M 2741 1694
Q 2741 2297 2544 2569
Q 2347 2841 1972 2841
Q 1172 2841 1172 1694
Q 1172 1128 1367 833
Q 1563 538 1931 538
Q 2741 538 2741 1694
z
" transform="scale(0.015625)"/>
      <path id="LiberationSans-Bold-77" d="M 4103 0
L 3175 0
L 2638 2063
Q 2600 2203 2491 2756
L 2328 2056
L 1784 0
L 856 0
L -19 3381
L 806 3381
L 1363 797
L 1406 1028
L 1484 1394
L 2016 3381
L 2956 3381
L 3475 1394
Q 3519 1231 3603 797
L 3691 1209
L 4178 3381
L 4991 3381
L 4103 0
z
" transform="scale(0.015625)"/>
      <path id="LiberationSans-Bold-73" d="M 3297 988
Q 3297 497 2895 217
Q 2494 -63 1784 -63
Q 1088 -63 717 157
Q 347 378 225 844
L 997 959
Q 1063 719 1223 619
Q 1384 519 1784 519
Q 2153 519 2322 612
Q 2491 706 2491 906
Q 2491 1069 2355 1164
Q 2219 1259 1894 1325
Q 1150 1472 890 1598
Q 631 1725 495 1926
Q 359 2128 359 2422
Q 359 2906 732 3176
Q 1106 3447 1791 3447
Q 2394 3447 2761 3212
Q 3128 2978 3219 2534
L 2441 2453
Q 2403 2659 2256 2761
Q 2109 2863 1791 2863
Q 1478 2863 1322 2783
Q 1166 2703 1166 2516
Q 1166 2369 1286 2283
Q 1406 2197 1691 2141
Q 2088 2059 2395 1973
Q 2703 1888 2889 1769
Q 3075 1650 3186 1464
Q 3297 1278 3297 988
z
" transform="scale(0.015625)"/>
      <path id="LiberationSans-Bold-20" transform="scale(0.015625)"/>
      <path id="LiberationSans-Bold-70" d="M 3647 1706
Q 3647 859 3308 398
Q 2969 -63 2350 -63
Q 1994 -63 1730 92
Q 1466 247 1325 538
L 1306 538
Q 1325 444 1325 -31
L 1325 -1328
L 447 -1328
L 447 2603
Q 447 3081 422 3381
L 1275 3381
Q 1291 3325 1302 3159
Q 1313 2994 1313 2831
L 1325 2831
Q 1622 3453 2406 3453
Q 2997 3453 3322 2998
Q 3647 2544 3647 1706
z
M 2731 1706
Q 2731 2844 2034 2844
Q 1684 2844 1498 2537
Q 1313 2231 1313 1681
Q 1313 1134 1498 836
Q 1684 538 2028 538
Q 2731 538 2731 1706
z
" transform="scale(0.015625)"/>
      <path id="LiberationSans-Bold-65" d="M 1831 -63
Q 1069 -63 659 389
Q 250 841 250 1706
Q 250 2544 665 2994
Q 1081 3444 1844 3444
Q 2572 3444 2956 2961
Q 3341 2478 3341 1547
L 3341 1522
L 1172 1522
Q 1172 1028 1355 776
Q 1538 525 1875 525
Q 2341 525 2463 928
L 3291 856
Q 2931 -63 1831 -63
z
M 1831 2891
Q 1522 2891 1355 2675
Q 1188 2459 1178 2072
L 2491 2072
Q 2466 2481 2294 2686
Q 2122 2891 1831 2891
z
" transform="scale(0.015625)"/>
      <path id="LiberationSans-Bold-72" d="M 447 0
L 447 2588
Q 447 2866 439 3052
Q 431 3238 422 3381
L 1259 3381
Q 1269 3325 1284 3039
Q 1300 2753 1300 2659
L 1313 2659
Q 1441 3016 1541 3161
Q 1641 3306 1778 3376
Q 1916 3447 2122 3447
Q 2291 3447 2394 3400
L 2394 2666
Q 2181 2713 2019 2713
Q 1691 2713 1508 2447
Q 1325 2181 1325 1659
L 1325 0
L 447 0
z
" transform="scale(0.015625)"/>
      <path id="LiberationSans-Bold-64" d="M 2638 0
Q 2625 47 2608 236
Q 2591 425 2591 550
L 2578 550
Q 2294 -63 1497 -63
Q 906 -63 584 398
Q 263 859 263 1688
Q 263 2528 602 2986
Q 941 3444 1563 3444
Q 1922 3444 2183 3294
Q 2444 3144 2584 2847
L 2591 2847
L 2584 3403
L 2584 4638
L 3463 4638
L 3463 738
Q 3463 425 3488 0
L 2638 0
z
M 2597 1709
Q 2597 2256 2414 2551
Q 2231 2847 1875 2847
Q 1522 2847 1350 2561
Q 1178 2275 1178 1688
Q 1178 538 1869 538
Q 2216 538 2406 842
Q 2597 1147 2597 1709
z
" transform="scale(0.015625)"/>
      <path id="LiberationSans-Bold-61" d="M 1228 -63
Q 738 -63 463 204
Q 188 472 188 956
Q 188 1481 530 1756
Q 872 2031 1522 2038
L 2250 2050
L 2250 2222
Q 2250 2553 2134 2714
Q 2019 2875 1756 2875
Q 1513 2875 1398 2764
Q 1284 2653 1256 2397
L 341 2441
Q 425 2934 792 3189
Q 1159 3444 1794 3444
Q 2434 3444 2781 3128
Q 3128 2813 3128 2231
L 3128 1000
Q 3128 716 3192 608
Q 3256 500 3406 500
Q 3506 500 3600 519
L 3600 44
Q 3522 25 3459 9
Q 3397 -6 3334 -15
Q 3272 -25 3201 -31
Q 3131 -38 3038 -38
Q 2706 -38 2548 125
Q 2391 288 2359 603
L 2341 603
Q 1972 -63 1228 -63
z
M 2250 1566
L 1800 1559
Q 1494 1547 1366 1492
Q 1238 1438 1170 1325
Q 1103 1213 1103 1025
Q 1103 784 1214 667
Q 1325 550 1509 550
Q 1716 550 1886 662
Q 2056 775 2153 973
Q 2250 1172 2250 1394
L 2250 1566
z
" transform="scale(0.015625)"/>
      <path id="LiberationSans-Bold-74" d="M 1313 -56
Q 925 -56 715 155
Q 506 366 506 794
L 506 2788
L 78 2788
L 78 3381
L 550 3381
L 825 4175
L 1375 4175
L 1375 3381
L 2016 3381
L 2016 2788
L 1375 2788
L 1375 1031
Q 1375 784 1469 667
Q 1563 550 1759 550
Q 1863 550 2053 594
L 2053 50
Q 1728 -56 1313 -56
z
" transform="scale(0.015625)"/>
      <path id="LiberationSans-Bold-28" d="M 1247 -1328
Q 756 -622 537 81
Q 319 784 319 1659
Q 319 2531 537 3232
Q 756 3934 1247 4638
L 2125 4638
Q 1631 3925 1407 3219
Q 1184 2513 1184 1656
Q 1184 803 1406 101
Q 1628 -600 2125 -1328
L 1247 -1328
z
" transform="scale(0.015625)"/>
      <path id="LiberationSans-Bold-6c" d="M 447 0
L 447 4638
L 1325 4638
L 1325 0
L 447 0
z
" transform="scale(0.015625)"/>
      <path id="LiberationSans-Bold-67" d="M 1863 -1356
Q 1244 -1356 867 -1120
Q 491 -884 403 -447
L 1281 -344
Q 1328 -547 1483 -662
Q 1638 -778 1888 -778
Q 2253 -778 2422 -553
Q 2591 -328 2591 116
L 2591 294
L 2597 628
L 2591 628
Q 2300 6 1503 6
Q 913 6 588 450
Q 263 894 263 1719
Q 263 2547 597 2997
Q 931 3447 1569 3447
Q 2306 3447 2591 2838
L 2606 2838
Q 2606 2947 2620 3134
Q 2634 3322 2650 3381
L 3481 3381
Q 3463 3044 3463 2600
L 3463 103
Q 3463 -619 3053 -987
Q 2644 -1356 1863 -1356
z
M 2597 1738
Q 2597 2259 2411 2551
Q 2225 2844 1881 2844
Q 1178 2844 1178 1719
Q 1178 616 1875 616
Q 2225 616 2411 908
Q 2597 1200 2597 1738
z
" transform="scale(0.015625)"/>
      <path id="LiberationSans-Bold-63" d="M 1856 -63
Q 1088 -63 669 395
Q 250 853 250 1672
Q 250 2509 672 2976
Q 1094 3444 1869 3444
Q 2466 3444 2856 3144
Q 3247 2844 3347 2316
L 2463 2272
Q 2425 2531 2275 2686
Q 2125 2841 1850 2841
Q 1172 2841 1172 1706
Q 1172 538 1863 538
Q 2113 538 2281 695
Q 2450 853 2491 1166
L 3372 1125
Q 3325 778 3123 506
Q 2922 234 2594 85
Q 2266 -63 1856 -63
z
" transform="scale(0.015625)"/>
      <path id="LiberationSans-Bold-29" d="M 6 -1328
Q 506 -597 726 101
Q 947 800 947 1656
Q 947 2516 722 3223
Q 497 3931 6 4638
L 884 4638
Q 1378 3928 1595 3225
Q 1813 2522 1813 1659
Q 1813 791 1595 87
Q 1378 -616 884 -1328
L 6 -1328
z
" transform="scale(0.015625)"/>
     </defs>
     <use xlink:href="#LiberationSans-Bold-52"/>
     <use xlink:href="#LiberationSans-Bold-6f" transform="translate(72.216797 0)"/>
     <use xlink:href="#LiberationSans-Bold-77" transform="translate(133.300781 0)"/>
     <use xlink:href="#LiberationSans-Bold-73" transform="translate(211.083984 0)"/>
     <use xlink:href="#LiberationSans-Bold-20" transform="translate(266.699219 0)"/>
     <use xlink:href="#LiberationSans-Bold-70" transform="translate(294.482422 0)"/>
     <use xlink:href="#LiberationSans-Bold-65" transform="translate(355.566406 0)"/>
     <use xlink:href="#LiberationSans-Bold-72" transform="translate(411.181641 0)"/>
     <use xlink:href="#LiberationSans-Bold-20" transform="translate(450.097656 0)"/>
     <use xlink:href="#LiberationSans-Bold-64" transform="translate(477.880859 0)"/>
     <use xlink:href="#LiberationSans-Bold-61" transform="translate(538.964844 0)"/>
     <use xlink:href="#LiberationSans-Bold-74" transform="translate(594.580078 0)"/>
     <use xlink:href="#LiberationSans-Bold-61" transform="translate(627.880859 0)"/>
     <use xlink:href="#LiberationSans-Bold-73" transform="translate(683.496094 0)"/>
     <use xlink:href="#LiberationSans-Bold-65" transform="translate(739.111328 0)"/>
     <use xlink:href="#LiberationSans-Bold-74" transform="translate(794.726562 0)"/>
     <use xlink:href="#LiberationSans-Bold-20" transform="translate(828.027344 0)"/>
     <use xlink:href="#LiberationSans-Bold-28" transform="translate(855.810547 0)"/>
     <use xlink:href="#LiberationSans-Bold-6c" transform="translate(889.111328 0)"/>
     <use xlink:href="#LiberationSans-Bold-6f" transform="translate(916.894531 0)"/>
     <use xlink:href="#LiberationSans-Bold-67" transform="translate(977.978516 0)"/>
     <use xlink:href="#LiberationSans-Bold-20" transform="translate(1039.0625 0)"/>
     <use xlink:href="#LiberationSans-Bold-73" transform="translate(1066.845703 0)"/>
     <use xlink:href="#LiberationSans-Bold-63" transform="translate(1122.460938 0)"/>
     <use xlink:href="#LiberationSans-Bold-61" transform="translate(1178.076172 0)"/>
     <use xlink:href="#LiberationSans-Bold-6c" transform="translate(1233.691406 0)"/>
     <use xlink:href="#LiberationSans-Bold-65" transform="translate(1261.474609 0)"/>
     <use xlink:href="#LiberationSans-Bold-29" transform="translate(1317.089844 0)"/>
    </g>
   </g>
  </g>
  <g id="axes_2">
   <g id="patch_9">
    <path d="M 469.740561 308.478313
L 848.019247 308.478313
L 848.019247 48.768
L 469.740561 48.768
z
" style="fill: #ffffff"/>
   </g>
   <g id="matplotlib.axis_3">
    <g id="xtick_5">
     <g id="line2d_21">
      <path d="M 523.133964 308.478313
L 523.133964 48.768
" clip-path="url(#p4d4d985f04)" style="fill: none; stroke: #cccccc; stroke-width: 0.8; stroke-linecap: round"/>
     </g>
     <g id="line2d_22"/>
     <g id="text_9">
      <!-- SISFALL -->
      <g style="fill: #262626" transform="translate(507.240141 330.256361) rotate(-20) scale(0.09 -0.09)">
       <use xlink:href="#LiberationSans-53"/>
       <use xlink:href="#LiberationSans-49" transform="translate(66.699219 0)"/>
       <use xlink:href="#LiberationSans-53" transform="translate(94.482422 0)"/>
       <use xlink:href="#LiberationSans-46" transform="translate(161.181641 0)"/>
       <use xlink:href="#LiberationSans-41" transform="translate(216.765625 0)"/>
       <use xlink:href="#LiberationSans-4c" transform="translate(283.464844 0)"/>
       <use xlink:href="#LiberationSans-4c" transform="translate(339.080078 0)"/>
      </g>
     </g>
    </g>
    <g id="xtick_6">
     <g id="line2d_23">
      <path d="M 613.631257 308.478313
L 613.631257 48.768
" clip-path="url(#p4d4d985f04)" style="fill: none; stroke: #cccccc; stroke-width: 0.8; stroke-linecap: round"/>
     </g>
     <g id="line2d_24"/>
     <g id="text_10">
      <!-- PAMAP2 -->
      <g style="fill: #262626" transform="translate(597.582825 330.368907) rotate(-20) scale(0.09 -0.09)">
       <use xlink:href="#LiberationSans-50"/>
       <use xlink:href="#LiberationSans-41" transform="translate(59.324219 0)"/>
       <use xlink:href="#LiberationSans-4d" transform="translate(126.023438 0)"/>
       <use xlink:href="#LiberationSans-41" transform="translate(209.324219 0)"/>
       <use xlink:href="#LiberationSans-50" transform="translate(276.023438 0)"/>
       <use xlink:href="#LiberationSans-32" transform="translate(342.722656 0)"/>
      </g>
     </g>
    </g>
    <g id="xtick_7">
     <g id="line2d_25">
      <path d="M 704.128551 308.478313
L 704.128551 48.768
" clip-path="url(#p4d4d985f04)" style="fill: none; stroke: #cccccc; stroke-width: 0.8; stroke-linecap: round"/>
     </g>
     <g id="line2d_26"/>
     <g id="text_11">
      <!-- UCI_HAR -->
      <g style="fill: #262626" transform="translate(686.362243 331.619418) rotate(-20) scale(0.09 -0.09)">
       <use xlink:href="#LiberationSans-55"/>
       <use xlink:href="#LiberationSans-43" transform="translate(72.216797 0)"/>
       <use xlink:href="#LiberationSans-49" transform="translate(144.433594 0)"/>
       <use xlink:href="#LiberationSans-5f" transform="translate(172.216797 0)"/>
       <use xlink:href="#LiberationSans-48" transform="translate(227.832031 0)"/>
       <use xlink:href="#LiberationSans-41" transform="translate(300.048828 0)"/>
       <use xlink:href="#LiberationSans-52" transform="translate(366.748047 0)"/>
      </g>
     </g>
    </g>
    <g id="xtick_8">
     <g id="line2d_27">
      <path d="M 794.625844 308.478313
L 794.625844 48.768
" clip-path="url(#p4d4d985f04)" style="fill: none; stroke: #cccccc; stroke-width: 0.8; stroke-linecap: round"/>
     </g>
     <g id="line2d_28"/>
     <g id="text_12">
      <!-- MOBIFALL -->
      <g style="fill: #262626" transform="translate(774.741263 333.161395) rotate(-20) scale(0.09 -0.09)">
       <use xlink:href="#LiberationSans-4d"/>
       <use xlink:href="#LiberationSans-4f" transform="translate(83.300781 0)"/>
       <use xlink:href="#LiberationSans-42" transform="translate(161.083984 0)"/>
       <use xlink:href="#LiberationSans-49" transform="translate(227.783203 0)"/>
       <use xlink:href="#LiberationSans-46" transform="translate(255.566406 0)"/>
       <use xlink:href="#LiberationSans-41" transform="translate(311.150391 0)"/>
       <use xlink:href="#LiberationSans-4c" transform="translate(377.849609 0)"/>
       <use xlink:href="#LiberationSans-4c" transform="translate(433.464844 0)"/>
      </g>
     </g>
    </g>
   </g>
   <g id="matplotlib.axis_4">
    <g id="ytick_11">
     <g id="line2d_29">
      <path d="M 469.740561 308.478313
L 848.019247 308.478313
" clip-path="url(#p4d4d985f04)" style="fill: none; stroke: #cccccc; stroke-width: 0.8; stroke-linecap: round"/>
     </g>
     <g id="line2d_30"/>
     <g id="text_13">
      <!-- 0 -->
      <g style="fill: #262626" transform="translate(461.235717 311.739407) scale(0.09 -0.09)">
       <use xlink:href="#LiberationSans-30"/>
      </g>
     </g>
    </g>
    <g id="ytick_12">
     <g id="line2d_31">
      <path d="M 469.740561 275.933161
L 848.019247 275.933161
" clip-path="url(#p4d4d985f04)" style="fill: none; stroke: #cccccc; stroke-width: 0.8; stroke-linecap: round"/>
     </g>
     <g id="line2d_32"/>
     <g id="text_14">
      <!-- 5 -->
      <g style="fill: #262626" transform="translate(461.235717 279.194255) scale(0.09 -0.09)">
       <defs>
        <path id="LiberationSans-35" d="M 3291 1434
Q 3291 738 2877 337
Q 2463 -63 1728 -63
Q 1113 -63 734 206
Q 356 475 256 984
L 825 1050
Q 1003 397 1741 397
Q 2194 397 2450 670
Q 2706 944 2706 1422
Q 2706 1838 2448 2094
Q 2191 2350 1753 2350
Q 1525 2350 1328 2278
Q 1131 2206 934 2034
L 384 2034
L 531 4403
L 3034 4403
L 3034 3925
L 1044 3925
L 959 2528
Q 1325 2809 1869 2809
Q 2519 2809 2905 2428
Q 3291 2047 3291 1434
z
" transform="scale(0.015625)"/>
       </defs>
       <use xlink:href="#LiberationSans-35"/>
      </g>
     </g>
    </g>
    <g id="ytick_13">
     <g id="line2d_33">
      <path d="M 469.740561 243.388009
L 848.019247 243.388009
" clip-path="url(#p4d4d985f04)" style="fill: none; stroke: #cccccc; stroke-width: 0.8; stroke-linecap: round"/>
     </g>
     <g id="line2d_34"/>
     <g id="text_15">
      <!-- 10 -->
      <g style="fill: #262626" transform="translate(456.230873 246.649103) scale(0.09 -0.09)">
       <use xlink:href="#LiberationSans-31"/>
       <use xlink:href="#LiberationSans-30" transform="translate(55.615234 0)"/>
      </g>
     </g>
    </g>
    <g id="ytick_14">
     <g id="line2d_35">
      <path d="M 469.740561 210.842857
L 848.019247 210.842857
" clip-path="url(#p4d4d985f04)" style="fill: none; stroke: #cccccc; stroke-width: 0.8; stroke-linecap: round"/>
     </g>
     <g id="line2d_36"/>
     <g id="text_16">
      <!-- 15 -->
      <g style="fill: #262626" transform="translate(456.230873 214.103951) scale(0.09 -0.09)">
       <use xlink:href="#LiberationSans-31"/>
       <use xlink:href="#LiberationSans-35" transform="translate(55.615234 0)"/>
      </g>
     </g>
    </g>
    <g id="ytick_15">
     <g id="line2d_37">
      <path d="M 469.740561 178.297705
L 848.019247 178.297705
" clip-path="url(#p4d4d985f04)" style="fill: none; stroke: #cccccc; stroke-width: 0.8; stroke-linecap: round"/>
     </g>
     <g id="line2d_38"/>
     <g id="text_17">
      <!-- 20 -->
      <g style="fill: #262626" transform="translate(456.230873 181.558799) scale(0.09 -0.09)">
       <use xlink:href="#LiberationSans-32"/>
       <use xlink:href="#LiberationSans-30" transform="translate(55.615234 0)"/>
      </g>
     </g>
    </g>
    <g id="ytick_16">
     <g id="line2d_39">
      <path d="M 469.740561 145.752553
L 848.019247 145.752553
" clip-path="url(#p4d4d985f04)" style="fill: none; stroke: #cccccc; stroke-width: 0.8; stroke-linecap: round"/>
     </g>
     <g id="line2d_40"/>
     <g id="text_18">
      <!-- 25 -->
      <g style="fill: #262626" transform="translate(456.230873 149.013647) scale(0.09 -0.09)">
       <use xlink:href="#LiberationSans-32"/>
       <use xlink:href="#LiberationSans-35" transform="translate(55.615234 0)"/>
      </g>
     </g>
    </g>
    <g id="ytick_17">
     <g id="line2d_41">
      <path d="M 469.740561 113.207401
L 848.019247 113.207401
" clip-path="url(#p4d4d985f04)" style="fill: none; stroke: #cccccc; stroke-width: 0.8; stroke-linecap: round"/>
     </g>
     <g id="line2d_42"/>
     <g id="text_19">
      <!-- 30 -->
      <g style="fill: #262626" transform="translate(456.230873 116.468495) scale(0.09 -0.09)">
       <defs>
        <path id="LiberationSans-33" d="M 3278 1216
Q 3278 606 2890 271
Q 2503 -63 1784 -63
Q 1116 -63 717 239
Q 319 541 244 1131
L 825 1184
Q 938 403 1784 403
Q 2209 403 2451 612
Q 2694 822 2694 1234
Q 2694 1594 2417 1795
Q 2141 1997 1619 1997
L 1300 1997
L 1300 2484
L 1606 2484
Q 2069 2484 2323 2686
Q 2578 2888 2578 3244
Q 2578 3597 2370 3801
Q 2163 4006 1753 4006
Q 1381 4006 1151 3815
Q 922 3625 884 3278
L 319 3322
Q 381 3863 767 4166
Q 1153 4469 1759 4469
Q 2422 4469 2789 4161
Q 3156 3853 3156 3303
Q 3156 2881 2920 2617
Q 2684 2353 2234 2259
L 2234 2247
Q 2728 2194 3003 1916
Q 3278 1638 3278 1216
z
" transform="scale(0.015625)"/>
       </defs>
       <use xlink:href="#LiberationSans-33"/>
       <use xlink:href="#LiberationSans-30" transform="translate(55.615234 0)"/>
      </g>
     </g>
    </g>
    <g id="ytick_18">
     <g id="line2d_43">
      <path d="M 469.740561 80.662249
L 848.019247 80.662249
" clip-path="url(#p4d4d985f04)" style="fill: none; stroke: #cccccc; stroke-width: 0.8; stroke-linecap: round"/>
     </g>
     <g id="line2d_44"/>
     <g id="text_20">
      <!-- 35 -->
      <g style="fill: #262626" transform="translate(456.230873 83.923343) scale(0.09 -0.09)">
       <use xlink:href="#LiberationSans-33"/>
       <use xlink:href="#LiberationSans-35" transform="translate(55.615234 0)"/>
      </g>
     </g>
    </g>
    <g id="text_21">
     <!-- subjects -->
     <g style="fill: #262626" transform="translate(450.155873 196.964563) rotate(-90) scale(0.1 -0.1)">
      <defs>
       <path id="LiberationSans-75" d="M 981 3381
L 981 1238
Q 981 903 1047 718
Q 1113 534 1256 453
Q 1400 372 1678 372
Q 2084 372 2318 650
Q 2553 928 2553 1422
L 2553 3381
L 3116 3381
L 3116 722
Q 3116 131 3134 0
L 2603 0
Q 2600 16 2597 84
Q 2594 153 2589 242
Q 2584 331 2578 578
L 2569 578
Q 2375 228 2120 82
Q 1866 -63 1488 -63
Q 931 -63 673 214
Q 416 491 416 1128
L 416 3381
L 981 3381
z
" transform="scale(0.015625)"/>
       <path id="LiberationSans-62" d="M 3291 1706
Q 3291 -63 2047 -63
Q 1663 -63 1408 76
Q 1153 216 994 525
L 988 525
Q 988 428 975 229
Q 963 31 956 0
L 413 0
Q 431 169 431 697
L 431 4638
L 994 4638
L 994 3316
Q 994 3113 981 2838
L 994 2838
Q 1150 3163 1408 3303
Q 1666 3444 2047 3444
Q 2688 3444 2989 3012
Q 3291 2581 3291 1706
z
M 2700 1688
Q 2700 2397 2512 2703
Q 2325 3009 1903 3009
Q 1428 3009 1211 2684
Q 994 2359 994 1653
Q 994 988 1206 670
Q 1419 353 1897 353
Q 2322 353 2511 667
Q 2700 981 2700 1688
z
" transform="scale(0.015625)"/>
       <path id="LiberationSans-6a" d="M 428 4100
L 428 4638
L 991 4638
L 991 4100
L 428 4100
z
M 991 -419
Q 991 -897 803 -1112
Q 616 -1328 241 -1328
Q 0 -1328 -156 -1300
L -156 -866
L 38 -884
Q 253 -884 340 -771
Q 428 -659 428 -334
L 428 3381
L 991 3381
L 991 -419
z
" transform="scale(0.015625)"/>
       <path id="LiberationSans-65" d="M 863 1572
Q 863 991 1103 675
Q 1344 359 1806 359
Q 2172 359 2392 506
Q 2613 653 2691 878
L 3184 738
Q 2881 -63 1806 -63
Q 1056 -63 664 384
Q 272 831 272 1713
Q 272 2550 664 2997
Q 1056 3444 1784 3444
Q 3275 3444 3275 1647
L 3275 1572
L 863 1572
z
M 2694 2003
Q 2647 2538 2422 2783
Q 2197 3028 1775 3028
Q 1366 3028 1127 2754
Q 888 2481 869 2003
L 2694 2003
z
" transform="scale(0.015625)"/>
       <path id="LiberationSans-63" d="M 859 1706
Q 859 1031 1071 706
Q 1284 381 1713 381
Q 2013 381 2214 543
Q 2416 706 2463 1044
L 3031 1006
Q 2966 519 2616 228
Q 2266 -63 1728 -63
Q 1019 -63 645 385
Q 272 834 272 1694
Q 272 2547 647 2995
Q 1022 3444 1722 3444
Q 2241 3444 2583 3175
Q 2925 2906 3013 2434
L 2434 2391
Q 2391 2672 2212 2837
Q 2034 3003 1706 3003
Q 1259 3003 1059 2706
Q 859 2409 859 1706
z
" transform="scale(0.015625)"/>
       <path id="LiberationSans-74" d="M 1731 25
Q 1453 -50 1163 -50
Q 488 -50 488 716
L 488 2972
L 97 2972
L 97 3381
L 509 3381
L 675 4138
L 1050 4138
L 1050 3381
L 1675 3381
L 1675 2972
L 1050 2972
L 1050 838
Q 1050 594 1129 495
Q 1209 397 1406 397
Q 1519 397 1731 441
L 1731 25
z
" transform="scale(0.015625)"/>
      </defs>
      <use xlink:href="#LiberationSans-73"/>
      <use xlink:href="#LiberationSans-75" transform="translate(50 0)"/>
      <use xlink:href="#LiberationSans-62" transform="translate(105.615234 0)"/>
      <use xlink:href="#LiberationSans-6a" transform="translate(161.230469 0)"/>
      <use xlink:href="#LiberationSans-65" transform="translate(183.447266 0)"/>
      <use xlink:href="#LiberationSans-63" transform="translate(239.0625 0)"/>
      <use xlink:href="#LiberationSans-74" transform="translate(289.0625 0)"/>
      <use xlink:href="#LiberationSans-73" transform="translate(316.845703 0)"/>
     </g>
    </g>
   </g>
   <g id="patch_10">
    <path d="M 486.935047 308.478313
L 559.332881 308.478313
L 559.332881 61.135158
L 486.935047 61.135158
z
" clip-path="url(#p4d4d985f04)" style="fill: #6d597a; opacity: 0.9"/>
   </g>
   <g id="patch_11">
    <path d="M 577.43234 308.478313
L 649.830175 308.478313
L 649.830175 249.897039
L 577.43234 249.897039
z
" clip-path="url(#p4d4d985f04)" style="fill: #6d597a; opacity: 0.9"/>
   </g>
   <g id="patch_12">
    <path d="M 667.929633 308.478313
L 740.327468 308.478313
L 740.327468 113.207401
L 667.929633 113.207401
z
" clip-path="url(#p4d4d985f04)" style="fill: #6d597a; opacity: 0.9"/>
   </g>
   <g id="patch_13">
    <path d="M 758.426927 308.478313
L 830.824761 308.478313
L 830.824761 152.261583
L 758.426927 152.261583
z
" clip-path="url(#p4d4d985f04)" style="fill: #6d597a; opacity: 0.9"/>
   </g>
   <g id="patch_14">
    <path d="M 469.740561 308.478313
L 469.740561 48.768
" style="fill: none; stroke: #cccccc; stroke-linejoin: miter; stroke-linecap: square"/>
   </g>
   <g id="patch_15">
    <path d="M 469.740561 308.478313
L 848.019247 308.478313
" style="fill: none; stroke: #cccccc; stroke-linejoin: miter; stroke-linecap: square"/>
   </g>
   <g id="text_22">
    <!-- Subjects per dataset -->
    <g style="fill: #262626" transform="translate(600.197091 42.768) scale(0.12 -0.12)">
     <defs>
      <path id="LiberationSans-Bold-53" d="M 4019 1269
Q 4019 622 3539 279
Q 3059 -63 2131 -63
Q 1284 -63 803 237
Q 322 538 184 1147
L 1075 1294
Q 1166 944 1428 786
Q 1691 628 2156 628
Q 3122 628 3122 1216
Q 3122 1403 3011 1525
Q 2900 1647 2698 1728
Q 2497 1809 1925 1925
Q 1431 2041 1237 2111
Q 1044 2181 887 2276
Q 731 2372 622 2506
Q 513 2641 452 2822
Q 391 3003 391 3238
Q 391 3834 839 4151
Q 1288 4469 2144 4469
Q 2963 4469 3373 4212
Q 3784 3956 3903 3366
L 3009 3244
Q 2941 3528 2730 3672
Q 2519 3816 2125 3816
Q 1288 3816 1288 3291
Q 1288 3119 1377 3009
Q 1466 2900 1641 2823
Q 1816 2747 2350 2631
Q 2984 2497 3257 2383
Q 3531 2269 3690 2117
Q 3850 1966 3934 1755
Q 4019 1544 4019 1269
z
" transform="scale(0.015625)"/>
      <path id="LiberationSans-Bold-75" d="M 1275 3381
L 1275 1484
Q 1275 594 1875 594
Q 2194 594 2389 867
Q 2584 1141 2584 1569
L 2584 3381
L 3463 3381
L 3463 756
Q 3463 325 3488 0
L 2650 0
Q 2613 450 2613 672
L 2597 672
Q 2422 288 2151 112
Q 1881 -63 1509 -63
Q 972 -63 684 267
Q 397 597 397 1234
L 397 3381
L 1275 3381
z
" transform="scale(0.015625)"/>
      <path id="LiberationSans-Bold-62" d="M 3647 1703
Q 3647 866 3311 401
Q 2975 -63 2350 -63
Q 1991 -63 1728 93
Q 1466 250 1325 544
L 1319 544
Q 1319 434 1305 243
Q 1291 53 1275 0
L 422 0
Q 447 291 447 772
L 447 4638
L 1325 4638
L 1325 3344
L 1313 2794
L 1325 2794
Q 1622 3444 2406 3444
Q 3006 3444 3326 2989
Q 3647 2534 3647 1703
z
M 2731 1703
Q 2731 2278 2562 2556
Q 2394 2834 2041 2834
Q 1684 2834 1498 2536
Q 1313 2238 1313 1675
Q 1313 1138 1495 838
Q 1678 538 2034 538
Q 2731 538 2731 1703
z
" transform="scale(0.015625)"/>
      <path id="LiberationSans-Bold-6a" d="M 450 3991
L 450 4638
L 1328 4638
L 1328 3991
L 450 3991
z
M 431 -1328
Q 119 -1328 -100 -1300
L -100 -681
L 59 -694
Q 284 -694 367 -595
Q 450 -497 450 -188
L 450 3381
L 1328 3381
L 1328 -400
Q 1328 -847 1101 -1087
Q 875 -1328 431 -1328
z
" transform="scale(0.015625)"/>
     </defs>
     <use xlink:href="#LiberationSans-Bold-53"/>
     <use xlink:href="#LiberationSans-Bold-75" transform="translate(66.699219 0)"/>
     <use xlink:href="#LiberationSans-Bold-62" transform="translate(127.783203 0)"/>
     <use xlink:href="#LiberationSans-Bold-6a" transform="translate(188.867188 0)"/>
     <use xlink:href="#LiberationSans-Bold-65" transform="translate(216.650391 0)"/>
     <use xlink:href="#LiberationSans-Bold-63" transform="translate(272.265625 0)"/>
     <use xlink:href="#LiberationSans-Bold-74" transform="translate(327.880859 0)"/>
     <use xlink:href="#LiberationSans-Bold-73" transform="translate(361.181641 0)"/>
     <use xlink:href="#LiberationSans-Bold-20" transform="translate(416.796875 0)"/>
     <use xlink:href="#LiberationSans-Bold-70" transform="translate(444.580078 0)"/>
     <use xlink:href="#LiberationSans-Bold-65" transform="translate(505.664062 0)"/>
     <use xlink:href="#LiberationSans-Bold-72" transform="translate(561.279297 0)"/>
     <use xlink:href="#LiberationSans-Bold-20" transform="translate(600.195312 0)"/>
     <use xlink:href="#LiberationSans-Bold-64" transform="translate(627.978516 0)"/>
     <use xlink:href="#LiberationSans-Bold-61" transform="translate(689.0625 0)"/>
     <use xlink:href="#LiberationSans-Bold-74" transform="translate(744.677734 0)"/>
     <use xlink:href="#LiberationSans-Bold-61" transform="translate(777.978516 0)"/>
     <use xlink:href="#LiberationSans-Bold-73" transform="translate(833.59375 0)"/>
     <use xlink:href="#LiberationSans-Bold-65" transform="translate(889.208984 0)"/>
     <use xlink:href="#LiberationSans-Bold-74" transform="translate(944.824219 0)"/>
    </g>
   </g>
  </g>
  <g id="axes_3">
   <g id="patch_16">
    <path d="M 901.599247 308.478313
L 1279.877933 308.478313
L 1279.877933 48.768
L 901.599247 48.768
z
" style="fill: #ffffff"/>
   </g>
   <g id="matplotlib.axis_5">
    <g id="xtick_9">
     <g id="line2d_45">
      <path d="M 954.99265 308.478313
L 954.99265 48.768
" clip-path="url(#pff735b9432)" style="fill: none; stroke: #cccccc; stroke-width: 0.8; stroke-linecap: round"/>
     </g>
     <g id="line2d_46"/>
     <g id="text_23">
      <!-- SISFALL -->
      <g style="fill: #262626" transform="translate(939.098826 330.256361) rotate(-20) scale(0.09 -0.09)">
       <use xlink:href="#LiberationSans-53"/>
       <use xlink:href="#LiberationSans-49" transform="translate(66.699219 0)"/>
       <use xlink:href="#LiberationSans-53" transform="translate(94.482422 0)"/>
       <use xlink:href="#LiberationSans-46" transform="translate(161.181641 0)"/>
       <use xlink:href="#LiberationSans-41" transform="translate(216.765625 0)"/>
       <use xlink:href="#LiberationSans-4c" transform="translate(283.464844 0)"/>
       <use xlink:href="#LiberationSans-4c" transform="translate(339.080078 0)"/>
      </g>
     </g>
    </g>
    <g id="xtick_10">
     <g id="line2d_47">
      <path d="M 1045.489943 308.478313
L 1045.489943 48.768
" clip-path="url(#pff735b9432)" style="fill: none; stroke: #cccccc; stroke-width: 0.8; stroke-linecap: round"/>
     </g>
     <g id="line2d_48"/>
     <g id="text_24">
      <!-- PAMAP2 -->
      <g style="fill: #262626" transform="translate(1029.441511 330.368907) rotate(-20) scale(0.09 -0.09)">
       <use xlink:href="#LiberationSans-50"/>
       <use xlink:href="#LiberationSans-41" transform="translate(59.324219 0)"/>
       <use xlink:href="#LiberationSans-4d" transform="translate(126.023438 0)"/>
       <use xlink:href="#LiberationSans-41" transform="translate(209.324219 0)"/>
       <use xlink:href="#LiberationSans-50" transform="translate(276.023438 0)"/>
       <use xlink:href="#LiberationSans-32" transform="translate(342.722656 0)"/>
      </g>
     </g>
    </g>
    <g id="xtick_11">
     <g id="line2d_49">
      <path d="M 1135.987236 308.478313
L 1135.987236 48.768
" clip-path="url(#pff735b9432)" style="fill: none; stroke: #cccccc; stroke-width: 0.8; stroke-linecap: round"/>
     </g>
     <g id="line2d_50"/>
     <g id="text_25">
      <!-- UCI_HAR -->
      <g style="fill: #262626" transform="translate(1118.220929 331.619418) rotate(-20) scale(0.09 -0.09)">
       <use xlink:href="#LiberationSans-55"/>
       <use xlink:href="#LiberationSans-43" transform="translate(72.216797 0)"/>
       <use xlink:href="#LiberationSans-49" transform="translate(144.433594 0)"/>
       <use xlink:href="#LiberationSans-5f" transform="translate(172.216797 0)"/>
       <use xlink:href="#LiberationSans-48" transform="translate(227.832031 0)"/>
       <use xlink:href="#LiberationSans-41" transform="translate(300.048828 0)"/>
       <use xlink:href="#LiberationSans-52" transform="translate(366.748047 0)"/>
      </g>
     </g>
    </g>
    <g id="xtick_12">
     <g id="line2d_51">
      <path d="M 1226.48453 308.478313
L 1226.48453 48.768
" clip-path="url(#pff735b9432)" style="fill: none; stroke: #cccccc; stroke-width: 0.8; stroke-linecap: round"/>
     </g>
     <g id="line2d_52"/>
     <g id="text_26">
      <!-- MOBIFALL -->
      <g style="fill: #262626" transform="translate(1206.599949 333.161395) rotate(-20) scale(0.09 -0.09)">
       <use xlink:href="#LiberationSans-4d"/>
       <use xlink:href="#LiberationSans-4f" transform="translate(83.300781 0)"/>
       <use xlink:href="#LiberationSans-42" transform="translate(161.083984 0)"/>
       <use xlink:href="#LiberationSans-49" transform="translate(227.783203 0)"/>
       <use xlink:href="#LiberationSans-46" transform="translate(255.566406 0)"/>
       <use xlink:href="#LiberationSans-41" transform="translate(311.150391 0)"/>
       <use xlink:href="#LiberationSans-4c" transform="translate(377.849609 0)"/>
       <use xlink:href="#LiberationSans-4c" transform="translate(433.464844 0)"/>
      </g>
     </g>
    </g>
   </g>
   <g id="matplotlib.axis_6">
    <g id="ytick_19">
     <g id="line2d_53">
      <path d="M 901.599247 308.478313
L 1279.877933 308.478313
" clip-path="url(#pff735b9432)" style="fill: none; stroke: #cccccc; stroke-width: 0.8; stroke-linecap: round"/>
     </g>
     <g id="line2d_54"/>
     <g id="text_27">
      <!-- 0 -->
      <g style="fill: #262626" transform="translate(893.094403 311.739407) scale(0.09 -0.09)">
       <use xlink:href="#LiberationSans-30"/>
      </g>
     </g>
    </g>
    <g id="ytick_20">
     <g id="line2d_55">
      <path d="M 901.599247 260.445852
L 1279.877933 260.445852
" clip-path="url(#pff735b9432)" style="fill: none; stroke: #cccccc; stroke-width: 0.8; stroke-linecap: round"/>
     </g>
     <g id="line2d_56"/>
     <g id="text_28">
      <!-- 2000 -->
      <g style="fill: #262626" transform="translate(878.079872 263.706946) scale(0.09 -0.09)">
       <use xlink:href="#LiberationSans-32"/>
       <use xlink:href="#LiberationSans-30" transform="translate(55.615234 0)"/>
       <use xlink:href="#LiberationSans-30" transform="translate(111.230469 0)"/>
       <use xlink:href="#LiberationSans-30" transform="translate(166.845703 0)"/>
      </g>
     </g>
    </g>
    <g id="ytick_21">
     <g id="line2d_57">
      <path d="M 901.599247 212.413392
L 1279.877933 212.413392
" clip-path="url(#pff735b9432)" style="fill: none; stroke: #cccccc; stroke-width: 0.8; stroke-linecap: round"/>
     </g>
     <g id="line2d_58"/>
     <g id="text_29">
      <!-- 4000 -->
      <g style="fill: #262626" transform="translate(878.079872 215.674486) scale(0.09 -0.09)">
       <defs>
        <path id="LiberationSans-34" d="M 2753 997
L 2753 0
L 2222 0
L 2222 997
L 147 997
L 147 1434
L 2163 4403
L 2753 4403
L 2753 1441
L 3372 1441
L 3372 997
L 2753 997
z
M 2222 3769
Q 2216 3750 2134 3603
Q 2053 3456 2013 3397
L 884 1734
L 716 1503
L 666 1441
L 2222 1441
L 2222 3769
z
" transform="scale(0.015625)"/>
       </defs>
       <use xlink:href="#LiberationSans-34"/>
       <use xlink:href="#LiberationSans-30" transform="translate(55.615234 0)"/>
       <use xlink:href="#LiberationSans-30" transform="translate(111.230469 0)"/>
       <use xlink:href="#LiberationSans-30" transform="translate(166.845703 0)"/>
      </g>
     </g>
    </g>
    <g id="ytick_22">
     <g id="line2d_59">
      <path d="M 901.599247 164.380932
L 1279.877933 164.380932
" clip-path="url(#pff735b9432)" style="fill: none; stroke: #cccccc; stroke-width: 0.8; stroke-linecap: round"/>
     </g>
     <g id="line2d_60"/>
     <g id="text_30">
      <!-- 6000 -->
      <g style="fill: #262626" transform="translate(878.079872 167.642025) scale(0.09 -0.09)">
       <use xlink:href="#LiberationSans-36"/>
       <use xlink:href="#LiberationSans-30" transform="translate(55.615234 0)"/>
       <use xlink:href="#LiberationSans-30" transform="translate(111.230469 0)"/>
       <use xlink:href="#LiberationSans-30" transform="translate(166.845703 0)"/>
      </g>
     </g>
    </g>
    <g id="ytick_23">
     <g id="line2d_61">
      <path d="M 901.599247 116.348471
L 1279.877933 116.348471
" clip-path="url(#pff735b9432)" style="fill: none; stroke: #cccccc; stroke-width: 0.8; stroke-linecap: round"/>
     </g>
     <g id="line2d_62"/>
     <g id="text_31">
      <!-- 8000 -->
      <g style="fill: #262626" transform="translate(878.079872 119.609565) scale(0.09 -0.09)">
       <defs>
        <path id="LiberationSans-38" d="M 3281 1228
Q 3281 619 2893 278
Q 2506 -63 1781 -63
Q 1075 -63 676 271
Q 278 606 278 1222
Q 278 1653 525 1947
Q 772 2241 1156 2303
L 1156 2316
Q 797 2400 589 2681
Q 381 2963 381 3341
Q 381 3844 757 4156
Q 1134 4469 1769 4469
Q 2419 4469 2795 4162
Q 3172 3856 3172 3334
Q 3172 2956 2962 2675
Q 2753 2394 2391 2322
L 2391 2309
Q 2813 2241 3047 1952
Q 3281 1663 3281 1228
z
M 2588 3303
Q 2588 4050 1769 4050
Q 1372 4050 1164 3862
Q 956 3675 956 3303
Q 956 2925 1170 2726
Q 1384 2528 1775 2528
Q 2172 2528 2380 2711
Q 2588 2894 2588 3303
z
M 2697 1281
Q 2697 1691 2453 1898
Q 2209 2106 1769 2106
Q 1341 2106 1100 1882
Q 859 1659 859 1269
Q 859 359 1788 359
Q 2247 359 2472 579
Q 2697 800 2697 1281
z
" transform="scale(0.015625)"/>
       </defs>
       <use xlink:href="#LiberationSans-38"/>
       <use xlink:href="#LiberationSans-30" transform="translate(55.615234 0)"/>
       <use xlink:href="#LiberationSans-30" transform="translate(111.230469 0)"/>
       <use xlink:href="#LiberationSans-30" transform="translate(166.845703 0)"/>
      </g>
     </g>
    </g>
    <g id="ytick_24">
     <g id="line2d_63">
      <path d="M 901.599247 68.316011
L 1279.877933 68.316011
" clip-path="url(#pff735b9432)" style="fill: none; stroke: #cccccc; stroke-width: 0.8; stroke-linecap: round"/>
     </g>
     <g id="line2d_64"/>
     <g id="text_32">
      <!-- 10000 -->
      <g style="fill: #262626" transform="translate(873.075028 71.577104) scale(0.09 -0.09)">
       <use xlink:href="#LiberationSans-31"/>
       <use xlink:href="#LiberationSans-30" transform="translate(55.615234 0)"/>
       <use xlink:href="#LiberationSans-30" transform="translate(111.230469 0)"/>
       <use xlink:href="#LiberationSans-30" transform="translate(166.845703 0)"/>
       <use xlink:href="#LiberationSans-30" transform="translate(222.460938 0)"/>
      </g>
     </g>
    </g>
    <g id="text_33">
     <!-- sessions -->
     <g style="fill: #262626" transform="translate(867.000028 198.0755) rotate(-90) scale(0.1 -0.1)">
      <defs>
       <path id="LiberationSans-69" d="M 428 4100
L 428 4638
L 991 4638
L 991 4100
L 428 4100
z
M 428 0
L 428 3381
L 991 3381
L 991 0
L 428 0
z
" transform="scale(0.015625)"/>
       <path id="LiberationSans-6e" d="M 2578 0
L 2578 2144
Q 2578 2478 2512 2662
Q 2447 2847 2303 2928
Q 2159 3009 1881 3009
Q 1475 3009 1240 2731
Q 1006 2453 1006 1959
L 1006 0
L 444 0
L 444 2659
Q 444 3250 425 3381
L 956 3381
Q 959 3366 962 3297
Q 966 3228 970 3139
Q 975 3050 981 2803
L 991 2803
Q 1184 3153 1439 3298
Q 1694 3444 2072 3444
Q 2628 3444 2886 3167
Q 3144 2891 3144 2253
L 3144 0
L 2578 0
z
" transform="scale(0.015625)"/>
      </defs>
      <use xlink:href="#LiberationSans-73"/>
      <use xlink:href="#LiberationSans-65" transform="translate(50 0)"/>
      <use xlink:href="#LiberationSans-73" transform="translate(105.615234 0)"/>
      <use xlink:href="#LiberationSans-73" transform="translate(155.615234 0)"/>
      <use xlink:href="#LiberationSans-69" transform="translate(205.615234 0)"/>
      <use xlink:href="#LiberationSans-6f" transform="translate(227.832031 0)"/>
      <use xlink:href="#LiberationSans-6e" transform="translate(283.447266 0)"/>
      <use xlink:href="#LiberationSans-73" transform="translate(339.0625 0)"/>
     </g>
    </g>
   </g>
   <g id="patch_17">
    <path d="M 918.793733 308.478313
L 991.191567 308.478313
L 991.191567 200.405277
L 918.793733 200.405277
z
" clip-path="url(#pff735b9432)" style="fill: #b56576; opacity: 0.9"/>
   </g>
   <g id="patch_18">
    <path d="M 1009.291026 308.478313
L 1081.688861 308.478313
L 1081.688861 308.262167
L 1009.291026 308.262167
z
" clip-path="url(#pff735b9432)" style="fill: #b56576; opacity: 0.9"/>
   </g>
   <g id="patch_19">
    <path d="M 1099.788319 308.478313
L 1172.186154 308.478313
L 1172.186154 61.135158
L 1099.788319 61.135158
z
" clip-path="url(#pff735b9432)" style="fill: #b56576; opacity: 0.9"/>
   </g>
   <g id="patch_20">
    <path d="M 1190.285612 308.478313
L 1262.683447 308.478313
L 1262.683447 293.348088
L 1190.285612 293.348088
z
" clip-path="url(#pff735b9432)" style="fill: #b56576; opacity: 0.9"/>
   </g>
   <g id="patch_21">
    <path d="M 901.599247 308.478313
L 901.599247 48.768
" style="fill: none; stroke: #cccccc; stroke-linejoin: miter; stroke-linecap: square"/>
   </g>
   <g id="patch_22">
    <path d="M 901.599247 308.478313
L 1279.877933 308.478313
" style="fill: none; stroke: #cccccc; stroke-linejoin: miter; stroke-linecap: square"/>
   </g>
   <g id="text_34">
    <!-- Sessions per dataset -->
    <g style="fill: #262626" transform="translate(1030.717027 42.768) scale(0.12 -0.12)">
     <defs>
      <path id="LiberationSans-Bold-69" d="M 447 3991
L 447 4638
L 1325 4638
L 1325 3991
L 447 3991
z
M 447 0
L 447 3381
L 1325 3381
L 1325 0
L 447 0
z
" transform="scale(0.015625)"/>
      <path id="LiberationSans-Bold-6e" d="M 2638 0
L 2638 1897
Q 2638 2788 2034 2788
Q 1716 2788 1520 2514
Q 1325 2241 1325 1813
L 1325 0
L 447 0
L 447 2625
Q 447 2897 439 3070
Q 431 3244 422 3381
L 1259 3381
Q 1269 3322 1284 3064
Q 1300 2806 1300 2709
L 1313 2709
Q 1491 3097 1759 3272
Q 2028 3447 2400 3447
Q 2938 3447 3225 3115
Q 3513 2784 3513 2147
L 3513 0
L 2638 0
z
" transform="scale(0.015625)"/>
     </defs>
     <use xlink:href="#LiberationSans-Bold-53"/>
     <use xlink:href="#LiberationSans-Bold-65" transform="translate(66.699219 0)"/>
     <use xlink:href="#LiberationSans-Bold-73" transform="translate(122.314453 0)"/>
     <use xlink:href="#LiberationSans-Bold-73" transform="translate(177.929688 0)"/>
     <use xlink:href="#LiberationSans-Bold-69" transform="translate(233.544922 0)"/>
     <use xlink:href="#LiberationSans-Bold-6f" transform="translate(261.328125 0)"/>
     <use xlink:href="#LiberationSans-Bold-6e" transform="translate(322.412109 0)"/>
     <use xlink:href="#LiberationSans-Bold-73" transform="translate(383.496094 0)"/>
     <use xlink:href="#LiberationSans-Bold-20" transform="translate(439.111328 0)"/>
     <use xlink:href="#LiberationSans-Bold-70" transform="translate(466.894531 0)"/>
     <use xlink:href="#LiberationSans-Bold-65" transform="translate(527.978516 0)"/>
     <use xlink:href="#LiberationSans-Bold-72" transform="translate(583.59375 0)"/>
     <use xlink:href="#LiberationSans-Bold-20" transform="translate(622.509766 0)"/>
     <use xlink:href="#LiberationSans-Bold-64" transform="translate(650.292969 0)"/>
     <use xlink:href="#LiberationSans-Bold-61" transform="translate(711.376953 0)"/>
     <use xlink:href="#LiberationSans-Bold-74" transform="translate(766.992188 0)"/>
     <use xlink:href="#LiberationSans-Bold-61" transform="translate(800.292969 0)"/>
     <use xlink:href="#LiberationSans-Bold-73" transform="translate(855.908203 0)"/>
     <use xlink:href="#LiberationSans-Bold-65" transform="translate(911.523438 0)"/>
     <use xlink:href="#LiberationSans-Bold-74" transform="translate(967.138672 0)"/>
    </g>
   </g>
  </g>
  <g id="text_35">
   <!-- UniFallMonitor dataset inventory -->
   <g style="fill: #262626" transform="translate(541.564339 16.620937) scale(0.13 -0.13)">
    <defs>
     <path id="LiberationSans-Bold-55" d="M 2259 -63
Q 1350 -63 867 381
Q 384 825 384 1650
L 384 4403
L 1306 4403
L 1306 1722
Q 1306 1200 1554 929
Q 1803 659 2284 659
Q 2778 659 3043 942
Q 3309 1225 3309 1753
L 3309 4403
L 4231 4403
L 4231 1697
Q 4231 859 3714 398
Q 3197 -63 2259 -63
z
" transform="scale(0.015625)"/>
     <path id="LiberationSans-Bold-46" d="M 1350 3691
L 1350 2328
L 3603 2328
L 3603 1616
L 1350 1616
L 1350 0
L 428 0
L 428 4403
L 3675 4403
L 3675 3691
L 1350 3691
z
" transform="scale(0.015625)"/>
     <path id="LiberationSans-Bold-4d" d="M 4084 0
L 4084 2669
Q 4084 2759 4086 2850
Q 4088 2941 4116 3628
Q 3894 2788 3788 2456
L 2994 0
L 2338 0
L 1544 2456
L 1209 3628
Q 1247 2903 1247 2669
L 1247 0
L 428 0
L 428 4403
L 1663 4403
L 2450 1941
L 2519 1703
L 2669 1113
L 2866 1819
L 3675 4403
L 4903 4403
L 4903 0
L 4084 0
z
" transform="scale(0.015625)"/>
     <path id="LiberationSans-Bold-76" d="M 2284 0
L 1234 0
L 25 3381
L 953 3381
L 1544 1491
Q 1591 1334 1766 709
Q 1797 838 1894 1159
Q 1991 1481 2613 3381
L 3531 3381
L 2284 0
z
" transform="scale(0.015625)"/>
     <path id="LiberationSans-Bold-79" d="M 884 -1328
Q 569 -1328 331 -1288
L 331 -663
Q 497 -688 634 -688
Q 822 -688 945 -628
Q 1069 -569 1167 -431
Q 1266 -294 1388 34
L 50 3381
L 978 3381
L 1509 1797
Q 1634 1456 1825 753
L 1903 1050
L 2106 1784
L 2606 3381
L 3525 3381
L 2188 -178
Q 1919 -828 1630 -1078
Q 1341 -1328 884 -1328
z
" transform="scale(0.015625)"/>
    </defs>
    <use xlink:href="#LiberationSans-Bold-55"/>
    <use xlink:href="#LiberationSans-Bold-6e" transform="translate(72.216797 0)"/>
    <use xlink:href="#LiberationSans-Bold-69" transform="translate(133.300781 0)"/>
    <use xlink:href="#LiberationSans-Bold-46" transform="translate(161.083984 0)"/>
    <use xlink:href="#LiberationSans-Bold-61" transform="translate(222.167969 0)"/>
    <use xlink:href="#LiberationSans-Bold-6c" transform="translate(277.783203 0)"/>
    <use xlink:href="#LiberationSans-Bold-6c" transform="translate(305.566406 0)"/>
    <use xlink:href="#LiberationSans-Bold-4d" transform="translate(333.349609 0)"/>
    <use xlink:href="#LiberationSans-Bold-6f" transform="translate(416.650391 0)"/>
    <use xlink:href="#LiberationSans-Bold-6e" transform="translate(477.734375 0)"/>
    <use xlink:href="#LiberationSans-Bold-69" transform="translate(538.818359 0)"/>
    <use xlink:href="#LiberationSans-Bold-74" transform="translate(566.601562 0)"/>
    <use xlink:href="#LiberationSans-Bold-6f" transform="translate(599.902344 0)"/>
    <use xlink:href="#LiberationSans-Bold-72" transform="translate(660.986328 0)"/>
    <use xlink:href="#LiberationSans-Bold-20" transform="translate(699.902344 0)"/>
    <use xlink:href="#LiberationSans-Bold-64" transform="translate(727.685547 0)"/>
    <use xlink:href="#LiberationSans-Bold-61" transform="translate(788.769531 0)"/>
    <use xlink:href="#LiberationSans-Bold-74" transform="translate(844.384766 0)"/>
    <use xlink:href="#LiberationSans-Bold-61" transform="translate(877.685547 0)"/>
    <use xlink:href="#LiberationSans-Bold-73" transform="translate(933.300781 0)"/>
    <use xlink:href="#LiberationSans-Bold-65" transform="translate(988.916016 0)"/>
    <use xlink:href="#LiberationSans-Bold-74" transform="translate(1044.53125 0)"/>
    <use xlink:href="#LiberationSans-Bold-20" transform="translate(1077.832031 0)"/>
    <use xlink:href="#LiberationSans-Bold-69" transform="translate(1105.615234 0)"/>
    <use xlink:href="#LiberationSans-Bold-6e" transform="translate(1133.398438 0)"/>
    <use xlink:href="#LiberationSans-Bold-76" transform="translate(1194.482422 0)"/>
    <use xlink:href="#LiberationSans-Bold-65" transform="translate(1250.097656 0)"/>
    <use xlink:href="#LiberationSans-Bold-6e" transform="translate(1305.712891 0)"/>
    <use xlink:href="#LiberationSans-Bold-74" transform="translate(1366.796875 0)"/>
    <use xlink:href="#LiberationSans-Bold-6f" transform="translate(1400.097656 0)"/>
    <use xlink:href="#LiberationSans-Bold-72" transform="translate(1461.181641 0)"/>
    <use xlink:href="#LiberationSans-Bold-79" transform="translate(1500.097656 0)"/>
   </g>
  </g>
 </g>
 <defs>
  <clipPath id="p980b8ad304">
   <rect x="37.881875" y="48.768" width="378.278686" height="259.710313"/>
  </clipPath>
  <clipPath id="p4d4d985f04">
   <rect x="469.740561" y="48.768" width="378.278686" height="259.710313"/>
  </clipPath>
  <clipPath id="pff735b9432">
   <rect x="901.599247" y="48.768" width="378.278686" height="259.710313"/>
  </clipPath>
 </defs>
</svg>
