<?xml version="1.0" encoding="utf-8" standalone="no"?>
<!DOCTYPE svg PUBLIC "-//W3C//DTD SVG 1.1//EN"
  "http://www.w3.org/Graphics/SVG/1.1/DTD/svg11.dtd">
<svg xmlns:xlink="http://www.w3.org/1999/xlink" width="1000.041875pt" height="496.511562pt" viewBox="0 0 1000.041875 496.511562" xmlns="http://www.w3.org/2000/svg" version="1.1">
 <metadata>
  <rdf:RDF xmlns:dc="http://purl.org/dc/elements/1.1/" xmlns:cc="http://creativecommons.org/ns#" xmlns:rdf="http://www.w3.org/1999/02/22-rdf-syntax-ns#">
   <cc:Work>
    <dc:type rdf:resource="http://purl.org/dc/dcmitype/StillImage"/>
    <dc:date>2026-04-30T09:22:47.756786</dc:date>
    <dc:format>image/svg+xml</dc:format>
    <dc:creator>
     <cc:Agent>
      <dc:title>Matplotlib v3.10.8, https://matplotlib.org/</dc:title>
     </cc:Agent>
    </dc:creator>
   </cc:Work>
  </rdf:RDF>
 </metadata>
 <defs>
  <style type="text/css">*{stroke-linejoin: round; stroke-linecap: butt}</style>
 </defs>
 <g id="figure_1">
  <g id="patch_1">
   <path d="M 0 496.511562
L 1000.041875 496.511562
L 1000.041875 0
L 0 0
z
" style="fill: #ffffff"/>
  </g>
  <g id="axes_1">
   <g id="patch_2">
    <path d="M 36.531875 239.43
L 992.841875 239.43
L 992.841875 45.6
L 36.531875 45.6
z
" style="fill: #ffffff"/>
   </g>
   <g id="matplotlib.axis_1">
    <g id="xtick_1">
     <g id="line2d_1">
      <path d="M 73.426685 239.43
L 73.426685 45.6
" clip-path="url(#pe3dd1e4080)" style="fill: none; stroke: #cccccc; stroke-width: 0.8; stroke-linecap: round"/>
     </g>
     <g id="line2d_2"/>
    </g>
    <g id="xtick_2">
     <g id="line2d_3">
      <path d="M 197.367825 239.43
L 197.367825 45.6
" clip-path="url(#pe3dd1e4080)" style="fill: none; stroke: #cccccc; stroke-width: 0.8; stroke-linecap: round"/>
     </g>
     <g id="line2d_4"/>
    </g>
    <g id="xtick_3">
     <g id="line2d_5">
      <path d="M 321.308964 239.43
L 321.308964 45.6
" clip-path="url(#pe3dd1e4080)" style="fill: none; stroke: #cccccc; stroke-width: 0.8; stroke-linecap: round"/>
     </g>
     <g id="line2d_6"/>
    </g>
    <g id="xtick_4">
     <g id="line2d_7">
      <path d="M 445.250103 239.43
L 445.250103 45.6
" clip-path="url(#pe3dd1e4080)" style="fill: none; stroke: #cccccc; stroke-width: 0.8; stroke-linecap: round"/>
     </g>
     <g id="line2d_8"/>
    </g>
    <g id="xtick_5">
     <g id="line2d_9">
      <path d="M 569.191243 239.43
L 569.191243 45.6
" clip-path="url(#pe3dd1e4080)" style="fill: none; stroke: #cccccc; stroke-width: 0.8; stroke-linecap: round"/>
     </g>
     <g id="line2d_10"/>
    </g>
    <g id="xtick_6">
     <g id="line2d_11">
      <path d="M 693.132382 239.43
L 693.132382 45.6
" clip-path="url(#pe3dd1e4080)" style="fill: none; stroke: #cccccc; stroke-width: 0.8; stroke-linecap: round"/>
     </g>
     <g id="line2d_12"/>
    </g>
    <g id="xtick_7">
     <g id="line2d_13">
      <path d="M 817.073521 239.43
L 817.073521 45.6
" clip-path="url(#pe3dd1e4080)" style="fill: none; stroke: #cccccc; stroke-width: 0.8; stroke-linecap: round"/>
     </g>
     <g id="line2d_14"/>
    </g>
    <g id="xtick_8">
     <g id="line2d_15">
      <path d="M 941.01466 239.43
L 941.01466 45.6
" clip-path="url(#pe3dd1e4080)" style="fill: none; stroke: #cccccc; stroke-width: 0.8; stroke-linecap: round"/>
     </g>
     <g id="line2d_16"/>
    </g>
   </g>
   <g id="matplotlib.axis_2">
    <g id="ytick_1">
     <g id="line2d_17">
      <path d="M 36.531875 239.43
L 992.841875 239.43
" clip-path="url(#pe3dd1e4080)" style="fill: none; stroke: #cccccc; stroke-width: 0.8; stroke-linecap: round"/>
     </g>
     <g id="line2d_18"/>
     <g id="text_1">
      <!-- 0.0 -->
      <g style="fill: #262626" transform="translate(20.521875 242.691094) scale(0.09 -0.09)">
       <defs>
        <path id="LiberationSans-30" d="M 3309 2203
Q 3309 1100 2920 518
Q 2531 -63 1772 -63
Q 1013 -63 631 515
Q 250 1094 250 2203
Q 250 3338 620 3903
Q 991 4469 1791 4469
Q 2569 4469 2939 3897
Q 3309 3325 3309 2203
z
M 2738 2203
Q 2738 3156 2517 3584
Q 2297 4013 1791 4013
Q 1272 4013 1045 3591
Q 819 3169 819 2203
Q 819 1266 1048 831
Q 1278 397 1778 397
Q 2275 397 2506 840
Q 2738 1284 2738 2203
z
" transform="scale(0.015625)"/>
        <path id="LiberationSans-2e" d="M 584 0
L 584 684
L 1194 684
L 1194 0
L 584 0
z
" transform="scale(0.015625)"/>
       </defs>
       <use xlink:href="#LiberationSans-30"/>
       <use xlink:href="#LiberationSans-2e" transform="translate(55.615234 0)"/>
       <use xlink:href="#LiberationSans-30" transform="translate(83.398438 0)"/>
      </g>
     </g>
    </g>
    <g id="ytick_2">
     <g id="line2d_19">
      <path d="M 36.531875 202.51
L 992.841875 202.51
" clip-path="url(#pe3dd1e4080)" style="fill: none; stroke: #cccccc; stroke-width: 0.8; stroke-linecap: round"/>
     </g>
     <g id="line2d_20"/>
     <g id="text_2">
      <!-- 0.2 -->
      <g style="fill: #262626" transform="translate(20.521875 205.771094) scale(0.09 -0.09)">
       <defs>
        <path id="LiberationSans-32" d="M 322 0
L 322 397
Q 481 763 711 1042
Q 941 1322 1194 1548
Q 1447 1775 1695 1969
Q 1944 2163 2144 2356
Q 2344 2550 2467 2762
Q 2591 2975 2591 3244
Q 2591 3606 2378 3806
Q 2166 4006 1788 4006
Q 1428 4006 1195 3811
Q 963 3616 922 3263
L 347 3316
Q 409 3844 795 4156
Q 1181 4469 1788 4469
Q 2453 4469 2811 4155
Q 3169 3841 3169 3263
Q 3169 3006 3051 2753
Q 2934 2500 2703 2247
Q 2472 1994 1819 1463
Q 1459 1169 1246 933
Q 1034 697 941 478
L 3238 478
L 3238 0
L 322 0
z
" transform="scale(0.015625)"/>
       </defs>
       <use xlink:href="#LiberationSans-30"/>
       <use xlink:href="#LiberationSans-2e" transform="translate(55.615234 0)"/>
       <use xlink:href="#LiberationSans-32" transform="translate(83.398438 0)"/>
      </g>
     </g>
    </g>
    <g id="ytick_3">
     <g id="line2d_21">
      <path d="M 36.531875 165.59
L 992.841875 165.59
" clip-path="url(#pe3dd1e4080)" style="fill: none; stroke: #cccccc; stroke-width: 0.8; stroke-linecap: round"/>
     </g>
     <g id="line2d_22"/>
     <g id="text_3">
      <!-- 0.4 -->
      <g style="fill: #262626" transform="translate(20.521875 168.851094) scale(0.09 -0.09)">
       <defs>
        <path id="LiberationSans-34" d="M 2753 997
L 2753 0
L 2222 0
L 2222 997
L 147 997
L 147 1434
L 2163 4403
L 2753 4403
L 2753 1441
L 3372 1441
L 3372 997
L 2753 997
z
M 2222 3769
Q 2216 3750 2134 3603
Q 2053 3456 2013 3397
L 884 1734
L 716 1503
L 666 1441
L 2222 1441
L 2222 3769
z
" transform="scale(0.015625)"/>
       </defs>
       <use xlink:href="#LiberationSans-30"/>
       <use xlink:href="#LiberationSans-2e" transform="translate(55.615234 0)"/>
       <use xlink:href="#LiberationSans-34" transform="translate(83.398438 0)"/>
      </g>
     </g>
    </g>
    <g id="ytick_4">
     <g id="line2d_23">
      <path d="M 36.531875 128.67
L 992.841875 128.67
" clip-path="url(#pe3dd1e4080)" style="fill: none; stroke: #cccccc; stroke-width: 0.8; stroke-linecap: round"/>
     </g>
     <g id="line2d_24"/>
     <g id="text_4">
      <!-- 0.6 -->
      <g style="fill: #262626" transform="translate(20.521875 131.931094) scale(0.09 -0.09)">
       <defs>
        <path id="LiberationSans-36" d="M 3278 1441
Q 3278 744 2900 340
Q 2522 -63 1856 -63
Q 1113 -63 719 490
Q 325 1044 325 2100
Q 325 3244 734 3856
Q 1144 4469 1900 4469
Q 2897 4469 3156 3572
L 2619 3475
Q 2453 4013 1894 4013
Q 1413 4013 1148 3564
Q 884 3116 884 2266
Q 1038 2550 1316 2698
Q 1594 2847 1953 2847
Q 2563 2847 2920 2465
Q 3278 2084 3278 1441
z
M 2706 1416
Q 2706 1894 2472 2153
Q 2238 2413 1819 2413
Q 1425 2413 1183 2183
Q 941 1953 941 1550
Q 941 1041 1192 716
Q 1444 391 1838 391
Q 2244 391 2475 664
Q 2706 938 2706 1416
z
" transform="scale(0.015625)"/>
       </defs>
       <use xlink:href="#LiberationSans-30"/>
       <use xlink:href="#LiberationSans-2e" transform="translate(55.615234 0)"/>
       <use xlink:href="#LiberationSans-36" transform="translate(83.398438 0)"/>
      </g>
     </g>
    </g>
    <g id="ytick_5">
     <g id="line2d_25">
      <path d="M 36.531875 91.75
L 992.841875 91.75
" clip-path="url(#pe3dd1e4080)" style="fill: none; stroke: #cccccc; stroke-width: 0.8; stroke-linecap: round"/>
     </g>
     <g id="line2d_26"/>
     <g id="text_5">
      <!-- 0.8 -->
      <g style="fill: #262626" transform="translate(20.521875 95.011094) scale(0.09 -0.09)">
       <defs>
        <path id="LiberationSans-38" d="M 3281 1228
Q 3281 619 2893 278
Q 2506 -63 1781 -63
Q 1075 -63 676 271
Q 278 606 278 1222
Q 278 1653 525 1947
Q 772 2241 1156 2303
L 1156 2316
Q 797 2400 589 2681
Q 381 2963 381 3341
Q 381 3844 757 4156
Q 1134 4469 1769 4469
Q 2419 4469 2795 4162
Q 3172 3856 3172 3334
Q 3172 2956 2962 2675
Q 2753 2394 2391 2322
L 2391 2309
Q 2813 2241 3047 1952
Q 3281 1663 3281 1228
z
M 2588 3303
Q 2588 4050 1769 4050
Q 1372 4050 1164 3862
Q 956 3675 956 3303
Q 956 2925 1170 2726
Q 1384 2528 1775 2528
Q 2172 2528 2380 2711
Q 2588 2894 2588 3303
z
M 2697 1281
Q 2697 1691 2453 1898
Q 2209 2106 1769 2106
Q 1341 2106 1100 1882
Q 859 1659 859 1269
Q 859 359 1788 359
Q 2247 359 2472 579
Q 2697 800 2697 1281
z
" transform="scale(0.015625)"/>
       </defs>
       <use xlink:href="#LiberationSans-30"/>
       <use xlink:href="#LiberationSans-2e" transform="translate(55.615234 0)"/>
       <use xlink:href="#LiberationSans-38" transform="translate(83.398438 0)"/>
      </g>
     </g>
    </g>
    <g id="ytick_6">
     <g id="line2d_27">
      <path d="M 36.531875 54.83
L 992.841875 54.83
" clip-path="url(#pe3dd1e4080)" style="fill: none; stroke: #cccccc; stroke-width: 0.8; stroke-linecap: round"/>
     </g>
     <g id="line2d_28"/>
     <g id="text_6">
      <!-- 1.0 -->
      <g style="fill: #262626" transform="translate(20.521875 58.091094) scale(0.09 -0.09)">
       <defs>
        <path id="LiberationSans-31" d="M 488 0
L 488 478
L 1609 478
L 1609 3866
L 616 3156
L 616 3688
L 1656 4403
L 2175 4403
L 2175 478
L 3247 478
L 3247 0
L 488 0
z
" transform="scale(0.015625)"/>
       </defs>
       <use xlink:href="#LiberationSans-31"/>
       <use xlink:href="#LiberationSans-2e" transform="translate(55.615234 0)"/>
       <use xlink:href="#LiberationSans-30" transform="translate(83.398438 0)"/>
      </g>
     </g>
    </g>
    <g id="text_7">
     <!-- confidence -->
     <g style="fill: #262626" transform="translate(14.446875 166.697812) rotate(-90) scale(0.1 -0.1)">
      <defs>
       <path id="LiberationSans-63" d="M 859 1706
Q 859 1031 1071 706
Q 1284 381 1713 381
Q 2013 381 2214 543
Q 2416 706 2463 1044
L 3031 1006
Q 2966 519 2616 228
Q 2266 -63 1728 -63
Q 1019 -63 645 385
Q 272 834 272 1694
Q 272 2547 647 2995
Q 1022 3444 1722 3444
Q 2241 3444 2583 3175
Q 2925 2906 3013 2434
L 2434 2391
Q 2391 2672 2212 2837
Q 2034 3003 1706 3003
Q 1259 3003 1059 2706
Q 859 2409 859 1706
z
" transform="scale(0.015625)"/>
       <path id="LiberationSans-6f" d="M 3291 1694
Q 3291 806 2900 371
Q 2509 -63 1766 -63
Q 1025 -63 647 389
Q 269 841 269 1694
Q 269 3444 1784 3444
Q 2559 3444 2925 3017
Q 3291 2591 3291 1694
z
M 2700 1694
Q 2700 2394 2492 2711
Q 2284 3028 1794 3028
Q 1300 3028 1079 2704
Q 859 2381 859 1694
Q 859 1025 1076 689
Q 1294 353 1759 353
Q 2266 353 2483 678
Q 2700 1003 2700 1694
z
" transform="scale(0.015625)"/>
       <path id="LiberationSans-6e" d="M 2578 0
L 2578 2144
Q 2578 2478 2512 2662
Q 2447 2847 2303 2928
Q 2159 3009 1881 3009
Q 1475 3009 1240 2731
Q 1006 2453 1006 1959
L 1006 0
L 444 0
L 444 2659
Q 444 3250 425 3381
L 956 3381
Q 959 3366 962 3297
Q 966 3228 970 3139
Q 975 3050 981 2803
L 991 2803
Q 1184 3153 1439 3298
Q 1694 3444 2072 3444
Q 2628 3444 2886 3167
Q 3144 2891 3144 2253
L 3144 0
L 2578 0
z
" transform="scale(0.015625)"/>
       <path id="LiberationSans-66" d="M 1128 2972
L 1128 0
L 566 0
L 566 2972
L 91 2972
L 91 3381
L 566 3381
L 566 3763
Q 566 4225 769 4428
Q 972 4631 1391 4631
Q 1625 4631 1788 4594
L 1788 4166
Q 1647 4191 1538 4191
Q 1322 4191 1225 4081
Q 1128 3972 1128 3684
L 1128 3381
L 1788 3381
L 1788 2972
L 1128 2972
z
" transform="scale(0.015625)"/>
       <path id="LiberationSans-69" d="M 428 4100
L 428 4638
L 991 4638
L 991 4100
L 428 4100
z
M 428 0
L 428 3381
L 991 3381
L 991 0
L 428 0
z
" transform="scale(0.015625)"/>
       <path id="LiberationSans-64" d="M 2566 544
Q 2409 219 2151 78
Q 1894 -63 1513 -63
Q 872 -63 570 368
Q 269 800 269 1675
Q 269 3444 1513 3444
Q 1897 3444 2153 3303
Q 2409 3163 2566 2856
L 2572 2856
L 2566 3234
L 2566 4638
L 3128 4638
L 3128 697
Q 3128 169 3147 0
L 2609 0
Q 2600 50 2589 231
Q 2578 413 2578 544
L 2566 544
z
M 859 1694
Q 859 984 1046 678
Q 1234 372 1656 372
Q 2134 372 2350 703
Q 2566 1034 2566 1731
Q 2566 2403 2350 2715
Q 2134 3028 1663 3028
Q 1238 3028 1048 2714
Q 859 2400 859 1694
z
" transform="scale(0.015625)"/>
       <path id="LiberationSans-65" d="M 863 1572
Q 863 991 1103 675
Q 1344 359 1806 359
Q 2172 359 2392 506
Q 2613 653 2691 878
L 3184 738
Q 2881 -63 1806 -63
Q 1056 -63 664 384
Q 272 831 272 1713
Q 272 2550 664 2997
Q 1056 3444 1784 3444
Q 3275 3444 3275 1647
L 3275 1572
L 863 1572
z
M 2694 2003
Q 2647 2538 2422 2783
Q 2197 3028 1775 3028
Q 1366 3028 1127 2754
Q 888 2481 869 2003
L 2694 2003
z
" transform="scale(0.015625)"/>
      </defs>
      <use xlink:href="#LiberationSans-63"/>
      <use xlink:href="#LiberationSans-6f" transform="translate(50 0)"/>
      <use xlink:href="#LiberationSans-6e" transform="translate(105.615234 0)"/>
      <use xlink:href="#LiberationSans-66" transform="translate(161.230469 0)"/>
      <use xlink:href="#LiberationSans-69" transform="translate(189.013672 0)"/>
      <use xlink:href="#LiberationSans-64" transform="translate(211.230469 0)"/>
      <use xlink:href="#LiberationSans-65" transform="translate(266.845703 0)"/>
      <use xlink:href="#LiberationSans-6e" transform="translate(322.460938 0)"/>
      <use xlink:href="#LiberationSans-63" transform="translate(378.076172 0)"/>
      <use xlink:href="#LiberationSans-65" transform="translate(428.076172 0)"/>
     </g>
    </g>
   </g>
   <g id="line2d_29">
    <path d="M 80.000511 124.022326
L 86.346298 128.401231
L 92.692084 123.773644
L 99.03787 138.277755
L 105.383657 85.756312
L 111.729443 134.035428
L 118.075229 149.208997
L 124.421016 137.660458
L 130.766802 155.60887
L 137.112588 107.90117
L 143.458375 102.336911
L 149.804161 114.927007
L 156.149947 115.749812
L 162.495734 114.470822
L 168.84152 100.008702
L 175.187306 101.116887
L 181.533093 106.159941
L 187.878879 108.783936
L 194.224665 149.462187
L 200.570452 76.438471
L 206.916238 70.700812
L 213.262024 70.239312
L 219.607811 70.700812
L 225.953597 109.451582
L 232.299383 111.706533
L 238.64517 73.692423
L 244.990956 142.457307
L 251.336742 140.795444
L 257.682529 71.846423
L 264.028315 70.700812
L 270.374101 71.417896
L 276.719888 71.879396
L 283.065674 73.486507
L 289.41146 72.769423
L 295.757247 77.732349
L 302.103033 80.226291
L 308.448819 140.056149
L 314.794606 146.982027
L 321.140392 100.545084
L 327.486178 73.230923
L 333.831965 74.433382
L 340.177751 90.8137
L 346.523537 99.246008
L 352.869324 89.493896
L 359.21511 123.209072
L 365.560896 126.828485
L 371.906683 114.247534
L 378.252469 104.214559
L 384.598255 99.732459
L 390.944042 95.054417
L 397.289828 101.12703
L 403.635614 114.949013
L 409.981401 117.03069
L 416.327187 115.949704
L 422.672973 110.718163
L 429.01876 101.623557
L 435.364546 119.033975
L 441.710332 118.056686
L 448.056119 99.721149
L 454.401905 90.91981
L 460.747691 91.628508
L 467.093478 107.314498
L 473.439264 125.18819
L 479.78505 124.848016
L 486.130837 104.455447
L 492.476623 108.756582
L 498.822409 112.821598
L 505.168196 137.036095
L 511.513982 138.625084
L 517.859768 162.659923
L 524.205554 71.162312
L 530.551341 72.769423
L 543.242913 70.956396
L 549.5887 71.623812
L 555.934486 75.538423
L 562.280272 75.076923
L 568.626059 72.769423
L 574.971845 72.307923
L 581.317631 78.932505
L 587.663418 77.693968
L 594.009204 73.230923
L 606.700777 73.230923
L 613.046563 71.162312
L 619.392349 73.008312
L 625.738136 73.263896
L 632.083922 72.769423
L 638.429708 71.846423
L 644.775495 71.162312
L 651.121281 70.700812
L 657.467067 74.017122
L 663.812854 74.409507
L 670.15864 74.017122
L 676.504426 71.162312
L 682.850213 84.303441
L 689.195999 124.218845
L 695.541785 132.346522
L 701.887572 124.203289
L 708.233358 125.421844
L 714.579144 129.181903
L 720.924931 120.153336
L 727.270717 113.941644
L 733.616503 117.335457
L 739.96229 121.895087
L 746.308076 114.689788
L 752.653862 116.089865
L 758.999649 115.640007
L 765.345435 113.394648
L 771.691221 135.393675
L 778.037008 129.850145
L 784.382794 134.98748
L 790.72858 72.802396
L 797.074367 84.006126
L 803.420153 116.094911
L 809.765939 124.263681
L 816.111726 112.320632
L 822.457512 101.095225
L 828.803298 104.886998
L 835.149085 105.988715
L 841.494871 106.07471
L 847.840657 107.0868
L 854.186444 109.125154
L 860.53223 109.551773
L 866.878016 107.556862
L 873.223803 107.748937
L 879.569589 113.477172
L 885.915375 110.885294
L 892.261162 106.866153
L 898.606948 131.45366
L 904.952734 71.162312
L 911.298521 72.769423
L 917.644307 74.017122
L 930.33588 74.017122
L 936.681666 71.915538
L 943.027452 73.230923
L 949.373239 74.409507
L 949.373239 74.409507
" clip-path="url(#pe3dd1e4080)" style="fill: none; stroke: #2563eb; stroke-width: 1.4; stroke-linecap: round"/>
   </g>
   <g id="patch_3">
    <path d="M 36.531875 239.43
L 36.531875 45.6
" style="fill: none; stroke: #cccccc; stroke-linejoin: miter; stroke-linecap: square"/>
   </g>
   <g id="patch_4">
    <path d="M 36.531875 239.43
L 992.841875 239.43
" style="fill: none; stroke: #cccccc; stroke-linejoin: miter; stroke-linecap: square"/>
   </g>
   <g id="text_8">
    <!-- Self-collected session HAR confidence -->
    <g style="fill: #262626" transform="translate(403.66625 39.6) scale(0.12 -0.12)">
     <defs>
      <path id="LiberationSans-Bold-53" d="M 4019 1269
Q 4019 622 3539 279
Q 3059 -63 2131 -63
Q 1284 -63 803 237
Q 322 538 184 1147
L 1075 1294
Q 1166 944 1428 786
Q 1691 628 2156 628
Q 3122 628 3122 1216
Q 3122 1403 3011 1525
Q 2900 1647 2698 1728
Q 2497 1809 1925 1925
Q 1431 2041 1237 2111
Q 1044 2181 887 2276
Q 731 2372 622 2506
Q 513 2641 452 2822
Q 391 3003 391 3238
Q 391 3834 839 4151
Q 1288 4469 2144 4469
Q 2963 4469 3373 4212
Q 3784 3956 3903 3366
L 3009 3244
Q 2941 3528 2730 3672
Q 2519 3816 2125 3816
Q 1288 3816 1288 3291
Q 1288 3119 1377 3009
Q 1466 2900 1641 2823
Q 1816 2747 2350 2631
Q 2984 2497 3257 2383
Q 3531 2269 3690 2117
Q 3850 1966 3934 1755
Q 4019 1544 4019 1269
z
" transform="scale(0.015625)"/>
      <path id="LiberationSans-Bold-65" d="M 1831 -63
Q 1069 -63 659 389
Q 250 841 250 1706
Q 250 2544 665 2994
Q 1081 3444 1844 3444
Q 2572 3444 2956 2961
Q 3341 2478 3341 1547
L 3341 1522
L 1172 1522
Q 1172 1028 1355 776
Q 1538 525 1875 525
Q 2341 525 2463 928
L 3291 856
Q 2931 -63 1831 -63
z
M 1831 2891
Q 1522 2891 1355 2675
Q 1188 2459 1178 2072
L 2491 2072
Q 2466 2481 2294 2686
Q 2122 2891 1831 2891
z
" transform="scale(0.015625)"/>
      <path id="LiberationSans-Bold-6c" d="M 447 0
L 447 4638
L 1325 4638
L 1325 0
L 447 0
z
" transform="scale(0.015625)"/>
      <path id="LiberationSans-Bold-66" d="M 1478 2788
L 1478 0
L 603 0
L 603 2788
L 109 2788
L 109 3381
L 603 3381
L 603 3734
Q 603 4194 847 4416
Q 1091 4638 1588 4638
Q 1834 4638 2144 4588
L 2144 4022
Q 2016 4050 1888 4050
Q 1663 4050 1570 3961
Q 1478 3872 1478 3647
L 1478 3381
L 2144 3381
L 2144 2788
L 1478 2788
z
" transform="scale(0.015625)"/>
      <path id="LiberationSans-Bold-2d" d="M 250 1278
L 250 2041
L 1875 2041
L 1875 1278
L 250 1278
z
" transform="scale(0.015625)"/>
      <path id="LiberationSans-Bold-63" d="M 1856 -63
Q 1088 -63 669 395
Q 250 853 250 1672
Q 250 2509 672 2976
Q 1094 3444 1869 3444
Q 2466 3444 2856 3144
Q 3247 2844 3347 2316
L 2463 2272
Q 2425 2531 2275 2686
Q 2125 2841 1850 2841
Q 1172 2841 1172 1706
Q 1172 538 1863 538
Q 2113 538 2281 695
Q 2450 853 2491 1166
L 3372 1125
Q 3325 778 3123 506
Q 2922 234 2594 85
Q 2266 -63 1856 -63
z
" transform="scale(0.015625)"/>
      <path id="LiberationSans-Bold-6f" d="M 3659 1694
Q 3659 872 3203 404
Q 2747 -63 1941 -63
Q 1150 -63 700 406
Q 250 875 250 1694
Q 250 2509 700 2976
Q 1150 3444 1959 3444
Q 2788 3444 3223 2992
Q 3659 2541 3659 1694
z
M 2741 1694
Q 2741 2297 2544 2569
Q 2347 2841 1972 2841
Q 1172 2841 1172 1694
Q 1172 1128 1367 833
Q 1563 538 1931 538
Q 2741 538 2741 1694
z
" transform="scale(0.015625)"/>
      <path id="LiberationSans-Bold-74" d="M 1313 -56
Q 925 -56 715 155
Q 506 366 506 794
L 506 2788
L 78 2788
L 78 3381
L 550 3381
L 825 4175
L 1375 4175
L 1375 3381
L 2016 3381
L 2016 2788
L 1375 2788
L 1375 1031
Q 1375 784 1469 667
Q 1563 550 1759 550
Q 1863 550 2053 594
L 2053 50
Q 1728 -56 1313 -56
z
" transform="scale(0.015625)"/>
      <path id="LiberationSans-Bold-64" d="M 2638 0
Q 2625 47 2608 236
Q 2591 425 2591 550
L 2578 550
Q 2294 -63 1497 -63
Q 906 -63 584 398
Q 263 859 263 1688
Q 263 2528 602 2986
Q 941 3444 1563 3444
Q 1922 3444 2183 3294
Q 2444 3144 2584 2847
L 2591 2847
L 2584 3403
L 2584 4638
L 3463 4638
L 3463 738
Q 3463 425 3488 0
L 2638 0
z
M 2597 1709
Q 2597 2256 2414 2551
Q 2231 2847 1875 2847
Q 1522 2847 1350 2561
Q 1178 2275 1178 1688
Q 1178 538 1869 538
Q 2216 538 2406 842
Q 2597 1147 2597 1709
z
" transform="scale(0.015625)"/>
      <path id="LiberationSans-Bold-20" transform="scale(0.015625)"/>
      <path id="LiberationSans-Bold-73" d="M 3297 988
Q 3297 497 2895 217
Q 2494 -63 1784 -63
Q 1088 -63 717 157
Q 347 378 225 844
L 997 959
Q 1063 719 1223 619
Q 1384 519 1784 519
Q 2153 519 2322 612
Q 2491 706 2491 906
Q 2491 1069 2355 1164
Q 2219 1259 1894 1325
Q 1150 1472 890 1598
Q 631 1725 495 1926
Q 359 2128 359 2422
Q 359 2906 732 3176
Q 1106 3447 1791 3447
Q 2394 3447 2761 3212
Q 3128 2978 3219 2534
L 2441 2453
Q 2403 2659 2256 2761
Q 2109 2863 1791 2863
Q 1478 2863 1322 2783
Q 1166 2703 1166 2516
Q 1166 2369 1286 2283
Q 1406 2197 1691 2141
Q 2088 2059 2395 1973
Q 2703 1888 2889 1769
Q 3075 1650 3186 1464
Q 3297 1278 3297 988
z
" transform="scale(0.015625)"/>
      <path id="LiberationSans-Bold-69" d="M 447 3991
L 447 4638
L 1325 4638
L 1325 3991
L 447 3991
z
M 447 0
L 447 3381
L 1325 3381
L 1325 0
L 447 0
z
" transform="scale(0.015625)"/>
      <path id="LiberationSans-Bold-6e" d="M 2638 0
L 2638 1897
Q 2638 2788 2034 2788
Q 1716 2788 1520 2514
Q 1325 2241 1325 1813
L 1325 0
L 447 0
L 447 2625
Q 447 2897 439 3070
Q 431 3244 422 3381
L 1259 3381
Q 1269 3322 1284 3064
Q 1300 2806 1300 2709
L 1313 2709
Q 1491 3097 1759 3272
Q 2028 3447 2400 3447
Q 2938 3447 3225 3115
Q 3513 2784 3513 2147
L 3513 0
L 2638 0
z
" transform="scale(0.015625)"/>
      <path id="LiberationSans-Bold-48" d="M 3269 0
L 3269 1888
L 1350 1888
L 1350 0
L 428 0
L 428 4403
L 1350 4403
L 1350 2650
L 3269 2650
L 3269 4403
L 4191 4403
L 4191 0
L 3269 0
z
" transform="scale(0.015625)"/>
      <path id="LiberationSans-Bold-41" d="M 3541 0
L 3150 1125
L 1472 1125
L 1081 0
L 159 0
L 1766 4403
L 2853 4403
L 4453 0
L 3541 0
z
M 2309 3725
L 2291 3656
Q 2259 3544 2215 3400
Q 2172 3256 1678 1819
L 2944 1819
L 2509 3084
L 2375 3509
L 2309 3725
z
" transform="scale(0.015625)"/>
      <path id="LiberationSans-Bold-52" d="M 3453 0
L 2431 1672
L 1350 1672
L 1350 0
L 428 0
L 428 4403
L 2628 4403
Q 3416 4403 3844 4064
Q 4272 3725 4272 3091
Q 4272 2628 4009 2292
Q 3747 1956 3300 1850
L 4491 0
L 3453 0
z
M 3344 3053
Q 3344 3688 2531 3688
L 1350 3688
L 1350 2388
L 2556 2388
Q 2944 2388 3144 2563
Q 3344 2738 3344 3053
z
" transform="scale(0.015625)"/>
     </defs>
     <use xlink:href="#LiberationSans-Bold-53"/>
     <use xlink:href="#LiberationSans-Bold-65" transform="translate(66.699219 0)"/>
     <use xlink:href="#LiberationSans-Bold-6c" transform="translate(122.314453 0)"/>
     <use xlink:href="#LiberationSans-Bold-66" transform="translate(150.097656 0)"/>
     <use xlink:href="#LiberationSans-Bold-2d" transform="translate(183.398438 0)"/>
     <use xlink:href="#LiberationSans-Bold-63" transform="translate(216.699219 0)"/>
     <use xlink:href="#LiberationSans-Bold-6f" transform="translate(272.314453 0)"/>
     <use xlink:href="#LiberationSans-Bold-6c" transform="translate(333.398438 0)"/>
     <use xlink:href="#LiberationSans-Bold-6c" transform="translate(361.181641 0)"/>
     <use xlink:href="#LiberationSans-Bold-65" transform="translate(388.964844 0)"/>
     <use xlink:href="#LiberationSans-Bold-63" transform="translate(444.580078 0)"/>
     <use xlink:href="#LiberationSans-Bold-74" transform="translate(500.195312 0)"/>
     <use xlink:href="#LiberationSans-Bold-65" transform="translate(533.496094 0)"/>
     <use xlink:href="#LiberationSans-Bold-64" transform="translate(589.111328 0)"/>
     <use xlink:href="#LiberationSans-Bold-20" transform="translate(650.195312 0)"/>
     <use xlink:href="#LiberationSans-Bold-73" transform="translate(677.978516 0)"/>
     <use xlink:href="#LiberationSans-Bold-65" transform="translate(733.59375 0)"/>
     <use xlink:href="#LiberationSans-Bold-73" transform="translate(789.208984 0)"/>
     <use xlink:href="#LiberationSans-Bold-73" transform="translate(844.824219 0)"/>
     <use xlink:href="#LiberationSans-Bold-69" transform="translate(900.439453 0)"/>
     <use xlink:href="#LiberationSans-Bold-6f" transform="translate(928.222656 0)"/>
     <use xlink:href="#LiberationSans-Bold-6e" transform="translate(989.306641 0)"/>
     <use xlink:href="#LiberationSans-Bold-20" transform="translate(1050.390625 0)"/>
     <use xlink:href="#LiberationSans-Bold-48" transform="translate(1078.173828 0)"/>
     <use xlink:href="#LiberationSans-Bold-41" transform="translate(1150.390625 0)"/>
     <use xlink:href="#LiberationSans-Bold-52" transform="translate(1222.607422 0)"/>
     <use xlink:href="#LiberationSans-Bold-20" transform="translate(1294.824219 0)"/>
     <use xlink:href="#LiberationSans-Bold-63" transform="translate(1322.607422 0)"/>
     <use xlink:href="#LiberationSans-Bold-6f" transform="translate(1378.222656 0)"/>
     <use xlink:href="#LiberationSans-Bold-6e" transform="translate(1439.306641 0)"/>
     <use xlink:href="#LiberationSans-Bold-66" transform="translate(1500.390625 0)"/>
     <use xlink:href="#LiberationSans-Bold-69" transform="translate(1533.691406 0)"/>
     <use xlink:href="#LiberationSans-Bold-64" transform="translate(1561.474609 0)"/>
     <use xlink:href="#LiberationSans-Bold-65" transform="translate(1622.558594 0)"/>
     <use xlink:href="#LiberationSans-Bold-6e" transform="translate(1678.173828 0)"/>
     <use xlink:href="#LiberationSans-Bold-63" transform="translate(1739.257812 0)"/>
     <use xlink:href="#LiberationSans-Bold-65" transform="translate(1794.873047 0)"/>
    </g>
   </g>
  </g>
  <g id="axes_2">
   <g id="patch_5">
    <path d="M 36.531875 464.1
L 992.841875 464.1
L 992.841875 270.27
L 36.531875 270.27
z
" style="fill: #ffffff"/>
   </g>
   <g id="matplotlib.axis_3">
    <g id="xtick_9">
     <g id="line2d_30">
      <path d="M 73.426685 464.1
L 73.426685 270.27
" clip-path="url(#p7c56fbc7e5)" style="fill: none; stroke: #cccccc; stroke-width: 0.8; stroke-linecap: round"/>
     </g>
     <g id="line2d_31"/>
     <g id="text_9">
      <!-- 0 -->
      <g style="fill: #262626" transform="translate(70.924264 474.122187) scale(0.09 -0.09)">
       <use xlink:href="#LiberationSans-30"/>
      </g>
     </g>
    </g>
    <g id="xtick_10">
     <g id="line2d_32">
      <path d="M 197.367825 464.1
L 197.367825 270.27
" clip-path="url(#p7c56fbc7e5)" style="fill: none; stroke: #cccccc; stroke-width: 0.8; stroke-linecap: round"/>
     </g>
     <g id="line2d_33"/>
     <g id="text_10">
      <!-- 25 -->
      <g style="fill: #262626" transform="translate(192.362981 474.122187) scale(0.09 -0.09)">
       <defs>
        <path id="LiberationSans-35" d="M 3291 1434
Q 3291 738 2877 337
Q 2463 -63 1728 -63
Q 1113 -63 734 206
Q 356 475 256 984
L 825 1050
Q 1003 397 1741 397
Q 2194 397 2450 670
Q 2706 944 2706 1422
Q 2706 1838 2448 2094
Q 2191 2350 1753 2350
Q 1525 2350 1328 2278
Q 1131 2206 934 2034
L 384 2034
L 531 4403
L 3034 4403
L 3034 3925
L 1044 3925
L 959 2528
Q 1325 2809 1869 2809
Q 2519 2809 2905 2428
Q 3291 2047 3291 1434
z
" transform="scale(0.015625)"/>
       </defs>
       <use xlink:href="#LiberationSans-32"/>
       <use xlink:href="#LiberationSans-35" transform="translate(55.615234 0)"/>
      </g>
     </g>
    </g>
    <g id="xtick_11">
     <g id="line2d_34">
      <path d="M 321.308964 464.1
L 321.308964 270.27
" clip-path="url(#p7c56fbc7e5)" style="fill: none; stroke: #cccccc; stroke-width: 0.8; stroke-linecap: round"/>
     </g>
     <g id="line2d_35"/>
     <g id="text_11">
      <!-- 50 -->
      <g style="fill: #262626" transform="translate(316.30412 474.122187) scale(0.09 -0.09)">
       <use xlink:href="#LiberationSans-35"/>
       <use xlink:href="#LiberationSans-30" transform="translate(55.615234 0)"/>
      </g>
     </g>
    </g>
    <g id="xtick_12">
     <g id="line2d_36">
      <path d="M 445.250103 464.1
L 445.250103 270.27
" clip-path="url(#p7c56fbc7e5)" style="fill: none; stroke: #cccccc; stroke-width: 0.8; stroke-linecap: round"/>
     </g>
     <g id="line2d_37"/>
     <g id="text_12">
      <!-- 75 -->
      <g style="fill: #262626" transform="translate(440.245259 474.122187) scale(0.09 -0.09)">
       <defs>
        <path id="LiberationSans-37" d="M 3238 3947
Q 2563 2916 2284 2331
Q 2006 1747 1867 1178
Q 1728 609 1728 0
L 1141 0
Q 1141 844 1498 1776
Q 1856 2709 2694 3925
L 328 3925
L 328 4403
L 3238 4403
L 3238 3947
z
" transform="scale(0.015625)"/>
       </defs>
       <use xlink:href="#LiberationSans-37"/>
       <use xlink:href="#LiberationSans-35" transform="translate(55.615234 0)"/>
      </g>
     </g>
    </g>
    <g id="xtick_13">
     <g id="line2d_38">
      <path d="M 569.191243 464.1
L 569.191243 270.27
" clip-path="url(#p7c56fbc7e5)" style="fill: none; stroke: #cccccc; stroke-width: 0.8; stroke-linecap: round"/>
     </g>
     <g id="line2d_39"/>
     <g id="text_13">
      <!-- 100 -->
      <g style="fill: #262626" transform="translate(561.683977 474.122187) scale(0.09 -0.09)">
       <use xlink:href="#LiberationSans-31"/>
       <use xlink:href="#LiberationSans-30" transform="translate(55.615234 0)"/>
       <use xlink:href="#LiberationSans-30" transform="translate(111.230469 0)"/>
      </g>
     </g>
    </g>
    <g id="xtick_14">
     <g id="line2d_40">
      <path d="M 693.132382 464.1
L 693.132382 270.27
" clip-path="url(#p7c56fbc7e5)" style="fill: none; stroke: #cccccc; stroke-width: 0.8; stroke-linecap: round"/>
     </g>
     <g id="line2d_41"/>
     <g id="text_14">
      <!-- 125 -->
      <g style="fill: #262626" transform="translate(685.625116 474.122187) scale(0.09 -0.09)">
       <use xlink:href="#LiberationSans-31"/>
       <use xlink:href="#LiberationSans-32" transform="translate(55.615234 0)"/>
       <use xlink:href="#LiberationSans-35" transform="translate(111.230469 0)"/>
      </g>
     </g>
    </g>
    <g id="xtick_15">
     <g id="line2d_42">
      <path d="M 817.073521 464.1
L 817.073521 270.27
" clip-path="url(#p7c56fbc7e5)" style="fill: none; stroke: #cccccc; stroke-width: 0.8; stroke-linecap: round"/>
     </g>
     <g id="line2d_43"/>
     <g id="text_15">
      <!-- 150 -->
      <g style="fill: #262626" transform="translate(809.566255 474.122187) scale(0.09 -0.09)">
       <use xlink:href="#LiberationSans-31"/>
       <use xlink:href="#LiberationSans-35" transform="translate(55.615234 0)"/>
       <use xlink:href="#LiberationSans-30" transform="translate(111.230469 0)"/>
      </g>
     </g>
    </g>
    <g id="xtick_16">
     <g id="line2d_44">
      <path d="M 941.01466 464.1
L 941.01466 270.27
" clip-path="url(#p7c56fbc7e5)" style="fill: none; stroke: #cccccc; stroke-width: 0.8; stroke-linecap: round"/>
     </g>
     <g id="line2d_45"/>
     <g id="text_16">
      <!-- 175 -->
      <g style="fill: #262626" transform="translate(933.507395 474.122187) scale(0.09 -0.09)">
       <use xlink:href="#LiberationSans-31"/>
       <use xlink:href="#LiberationSans-37" transform="translate(55.615234 0)"/>
       <use xlink:href="#LiberationSans-35" transform="translate(111.230469 0)"/>
      </g>
     </g>
    </g>
    <g id="text_17">
     <!-- midpoint_ts -->
     <g style="fill: #262626" transform="translate(489.119687 487.236562) scale(0.1 -0.1)">
      <defs>
       <path id="LiberationSans-6d" d="M 2400 0
L 2400 2144
Q 2400 2634 2265 2821
Q 2131 3009 1781 3009
Q 1422 3009 1212 2734
Q 1003 2459 1003 1959
L 1003 0
L 444 0
L 444 2659
Q 444 3250 425 3381
L 956 3381
Q 959 3366 962 3297
Q 966 3228 970 3139
Q 975 3050 981 2803
L 991 2803
Q 1172 3163 1406 3303
Q 1641 3444 1978 3444
Q 2363 3444 2586 3291
Q 2809 3138 2897 2803
L 2906 2803
Q 3081 3144 3329 3294
Q 3578 3444 3931 3444
Q 4444 3444 4676 3166
Q 4909 2888 4909 2253
L 4909 0
L 4353 0
L 4353 2144
Q 4353 2634 4218 2821
Q 4084 3009 3734 3009
Q 3366 3009 3161 2736
Q 2956 2463 2956 1959
L 2956 0
L 2400 0
z
" transform="scale(0.015625)"/>
       <path id="LiberationSans-70" d="M 3291 1706
Q 3291 -63 2047 -63
Q 1266 -63 997 525
L 981 525
Q 994 500 994 -6
L 994 -1328
L 431 -1328
L 431 2691
Q 431 3213 413 3381
L 956 3381
Q 959 3369 965 3292
Q 972 3216 980 3056
Q 988 2897 988 2838
L 1000 2838
Q 1150 3150 1397 3295
Q 1644 3441 2047 3441
Q 2672 3441 2981 3022
Q 3291 2603 3291 1706
z
M 2700 1694
Q 2700 2400 2509 2703
Q 2319 3006 1903 3006
Q 1569 3006 1380 2865
Q 1191 2725 1092 2426
Q 994 2128 994 1650
Q 994 984 1206 668
Q 1419 353 1897 353
Q 2316 353 2508 661
Q 2700 969 2700 1694
z
" transform="scale(0.015625)"/>
       <path id="LiberationSans-74" d="M 1731 25
Q 1453 -50 1163 -50
Q 488 -50 488 716
L 488 2972
L 97 2972
L 97 3381
L 509 3381
L 675 4138
L 1050 4138
L 1050 3381
L 1675 3381
L 1675 2972
L 1050 2972
L 1050 838
Q 1050 594 1129 495
Q 1209 397 1406 397
Q 1519 397 1731 441
L 1731 25
z
" transform="scale(0.015625)"/>
       <path id="LiberationSans-5f" d="M -97 -1272
L -97 -866
L 3631 -866
L 3631 -1272
L -97 -1272
z
" transform="scale(0.015625)"/>
       <path id="LiberationSans-73" d="M 2969 934
Q 2969 456 2608 196
Q 2247 -63 1597 -63
Q 966 -63 623 145
Q 281 353 178 794
L 675 891
Q 747 619 972 492
Q 1197 366 1597 366
Q 2025 366 2223 497
Q 2422 628 2422 891
Q 2422 1091 2284 1216
Q 2147 1341 1841 1422
L 1438 1528
Q 953 1653 748 1773
Q 544 1894 428 2066
Q 313 2238 313 2488
Q 313 2950 642 3192
Q 972 3434 1603 3434
Q 2163 3434 2492 3237
Q 2822 3041 2909 2606
L 2403 2544
Q 2356 2769 2151 2889
Q 1947 3009 1603 3009
Q 1222 3009 1040 2893
Q 859 2778 859 2544
Q 859 2400 934 2306
Q 1009 2213 1156 2147
Q 1303 2081 1775 1966
Q 2222 1853 2419 1758
Q 2616 1663 2730 1547
Q 2844 1431 2906 1279
Q 2969 1128 2969 934
z
" transform="scale(0.015625)"/>
      </defs>
      <use xlink:href="#LiberationSans-6d"/>
      <use xlink:href="#LiberationSans-69" transform="translate(83.300781 0)"/>
      <use xlink:href="#LiberationSans-64" transform="translate(105.517578 0)"/>
      <use xlink:href="#LiberationSans-70" transform="translate(161.132812 0)"/>
      <use xlink:href="#LiberationSans-6f" transform="translate(216.748047 0)"/>
      <use xlink:href="#LiberationSans-69" transform="translate(272.363281 0)"/>
      <use xlink:href="#LiberationSans-6e" transform="translate(294.580078 0)"/>
      <use xlink:href="#LiberationSans-74" transform="translate(350.195312 0)"/>
      <use xlink:href="#LiberationSans-5f" transform="translate(377.978516 0)"/>
      <use xlink:href="#LiberationSans-74" transform="translate(433.59375 0)"/>
      <use xlink:href="#LiberationSans-73" transform="translate(461.376953 0)"/>
     </g>
    </g>
   </g>
   <g id="matplotlib.axis_4">
    <g id="ytick_7">
     <g id="line2d_46">
      <path d="M 36.531875 464.1
L 992.841875 464.1
" clip-path="url(#p7c56fbc7e5)" style="fill: none; stroke: #cccccc; stroke-width: 0.8; stroke-linecap: round"/>
     </g>
     <g id="line2d_47"/>
     <g id="text_18">
      <!-- 0.0 -->
      <g style="fill: #262626" transform="translate(20.521875 467.361094) scale(0.09 -0.09)">
       <use xlink:href="#LiberationSans-30"/>
       <use xlink:href="#LiberationSans-2e" transform="translate(55.615234 0)"/>
       <use xlink:href="#LiberationSans-30" transform="translate(83.398438 0)"/>
      </g>
     </g>
    </g>
    <g id="ytick_8">
     <g id="line2d_48">
      <path d="M 36.531875 427.18
L 992.841875 427.18
" clip-path="url(#p7c56fbc7e5)" style="fill: none; stroke: #cccccc; stroke-width: 0.8; stroke-linecap: round"/>
     </g>
     <g id="line2d_49"/>
     <g id="text_19">
      <!-- 0.2 -->
      <g style="fill: #262626" transform="translate(20.521875 430.441094) scale(0.09 -0.09)">
       <use xlink:href="#LiberationSans-30"/>
       <use xlink:href="#LiberationSans-2e" transform="translate(55.615234 0)"/>
       <use xlink:href="#LiberationSans-32" transform="translate(83.398438 0)"/>
      </g>
     </g>
    </g>
    <g id="ytick_9">
     <g id="line2d_50">
      <path d="M 36.531875 390.26
L 992.841875 390.26
" clip-path="url(#p7c56fbc7e5)" style="fill: none; stroke: #cccccc; stroke-width: 0.8; stroke-linecap: round"/>
     </g>
     <g id="line2d_51"/>
     <g id="text_20">
      <!-- 0.4 -->
      <g style="fill: #262626" transform="translate(20.521875 393.521094) scale(0.09 -0.09)">
       <use xlink:href="#LiberationSans-30"/>
       <use xlink:href="#LiberationSans-2e" transform="translate(55.615234 0)"/>
       <use xlink:href="#LiberationSans-34" transform="translate(83.398438 0)"/>
      </g>
     </g>
    </g>
    <g id="ytick_10">
     <g id="line2d_52">
      <path d="M 36.531875 353.34
L 992.841875 353.34
" clip-path="url(#p7c56fbc7e5)" style="fill: none; stroke: #cccccc; stroke-width: 0.8; stroke-linecap: round"/>
     </g>
     <g id="line2d_53"/>
     <g id="text_21">
      <!-- 0.6 -->
      <g style="fill: #262626" transform="translate(20.521875 356.601094) scale(0.09 -0.09)">
       <use xlink:href="#LiberationSans-30"/>
       <use xlink:href="#LiberationSans-2e" transform="translate(55.615234 0)"/>
       <use xlink:href="#LiberationSans-36" transform="translate(83.398438 0)"/>
      </g>
     </g>
    </g>
    <g id="ytick_11">
     <g id="line2d_54">
      <path d="M 36.531875 316.42
L 992.841875 316.42
" clip-path="url(#p7c56fbc7e5)" style="fill: none; stroke: #cccccc; stroke-width: 0.8; stroke-linecap: round"/>
     </g>
     <g id="line2d_55"/>
     <g id="text_22">
      <!-- 0.8 -->
      <g style="fill: #262626" transform="translate(20.521875 319.681094) scale(0.09 -0.09)">
       <use xlink:href="#LiberationSans-30"/>
       <use xlink:href="#LiberationSans-2e" transform="translate(55.615234 0)"/>
       <use xlink:href="#LiberationSans-38" transform="translate(83.398438 0)"/>
      </g>
     </g>
    </g>
    <g id="ytick_12">
     <g id="line2d_56">
      <path d="M 36.531875 279.5
L 992.841875 279.5
" clip-path="url(#p7c56fbc7e5)" style="fill: none; stroke: #cccccc; stroke-width: 0.8; stroke-linecap: round"/>
     </g>
     <g id="line2d_57"/>
     <g id="text_23">
      <!-- 1.0 -->
      <g style="fill: #262626" transform="translate(20.521875 282.761094) scale(0.09 -0.09)">
       <use xlink:href="#LiberationSans-31"/>
       <use xlink:href="#LiberationSans-2e" transform="translate(55.615234 0)"/>
       <use xlink:href="#LiberationSans-30" transform="translate(83.398438 0)"/>
      </g>
     </g>
    </g>
    <g id="text_24">
     <!-- probability -->
     <g style="fill: #262626" transform="translate(14.446875 389.974062) rotate(-90) scale(0.1 -0.1)">
      <defs>
       <path id="LiberationSans-72" d="M 444 0
L 444 2594
Q 444 2950 425 3381
L 956 3381
Q 981 2806 981 2691
L 994 2691
Q 1128 3125 1303 3284
Q 1478 3444 1797 3444
Q 1909 3444 2025 3413
L 2025 2897
Q 1913 2928 1725 2928
Q 1375 2928 1190 2626
Q 1006 2325 1006 1763
L 1006 0
L 444 0
z
" transform="scale(0.015625)"/>
       <path id="LiberationSans-62" d="M 3291 1706
Q 3291 -63 2047 -63
Q 1663 -63 1408 76
Q 1153 216 994 525
L 988 525
Q 988 428 975 229
Q 963 31 956 0
L 413 0
Q 431 169 431 697
L 431 4638
L 994 4638
L 994 3316
Q 994 3113 981 2838
L 994 2838
Q 1150 3163 1408 3303
Q 1666 3444 2047 3444
Q 2688 3444 2989 3012
Q 3291 2581 3291 1706
z
M 2700 1688
Q 2700 2397 2512 2703
Q 2325 3009 1903 3009
Q 1428 3009 1211 2684
Q 994 2359 994 1653
Q 994 988 1206 670
Q 1419 353 1897 353
Q 2322 353 2511 667
Q 2700 981 2700 1688
z
" transform="scale(0.015625)"/>
       <path id="LiberationSans-61" d="M 1294 -63
Q 784 -63 528 206
Q 272 475 272 944
Q 272 1469 617 1750
Q 963 2031 1731 2050
L 2491 2063
L 2491 2247
Q 2491 2659 2316 2837
Q 2141 3016 1766 3016
Q 1388 3016 1216 2887
Q 1044 2759 1009 2478
L 422 2531
Q 566 3444 1778 3444
Q 2416 3444 2737 3151
Q 3059 2859 3059 2306
L 3059 850
Q 3059 600 3125 473
Q 3191 347 3375 347
Q 3456 347 3559 369
L 3559 19
Q 3347 -31 3125 -31
Q 2813 -31 2670 133
Q 2528 297 2509 647
L 2491 647
Q 2275 259 1989 98
Q 1703 -63 1294 -63
z
M 1422 359
Q 1731 359 1972 500
Q 2213 641 2352 886
Q 2491 1131 2491 1391
L 2491 1669
L 1875 1656
Q 1478 1650 1273 1575
Q 1069 1500 959 1344
Q 850 1188 850 934
Q 850 659 998 509
Q 1147 359 1422 359
z
" transform="scale(0.015625)"/>
       <path id="LiberationSans-6c" d="M 431 0
L 431 4638
L 994 4638
L 994 0
L 431 0
z
" transform="scale(0.015625)"/>
       <path id="LiberationSans-79" d="M 597 -1328
Q 366 -1328 209 -1294
L 209 -872
Q 328 -891 472 -891
Q 997 -891 1303 -119
L 1356 16
L 16 3381
L 616 3381
L 1328 1513
Q 1344 1469 1366 1408
Q 1388 1347 1506 1000
Q 1625 653 1634 613
L 1853 1228
L 2594 3381
L 3188 3381
L 1888 0
Q 1678 -541 1497 -805
Q 1316 -1069 1095 -1198
Q 875 -1328 597 -1328
z
" transform="scale(0.015625)"/>
      </defs>
      <use xlink:href="#LiberationSans-70"/>
      <use xlink:href="#LiberationSans-72" transform="translate(55.615234 0)"/>
      <use xlink:href="#LiberationSans-6f" transform="translate(88.916016 0)"/>
      <use xlink:href="#LiberationSans-62" transform="translate(144.53125 0)"/>
      <use xlink:href="#LiberationSans-61" transform="translate(200.146484 0)"/>
      <use xlink:href="#LiberationSans-62" transform="translate(255.761719 0)"/>
      <use xlink:href="#LiberationSans-69" transform="translate(311.376953 0)"/>
      <use xlink:href="#LiberationSans-6c" transform="translate(333.59375 0)"/>
      <use xlink:href="#LiberationSans-69" transform="translate(355.810547 0)"/>
      <use xlink:href="#LiberationSans-74" transform="translate(378.027344 0)"/>
      <use xlink:href="#LiberationSans-79" transform="translate(405.810547 0)"/>
     </g>
    </g>
   </g>
   <g id="line2d_58">
    <path d="M 80.000511 449.332492
L 86.346298 409.241913
L 92.692084 365.859989
L 99.03787 464.040865
L 105.383657 448.856158
L 111.729443 459.364223
L 118.075229 459.807988
L 124.421016 436.569968
L 130.766802 461.636501
L 137.112588 397.498878
L 143.458375 408.516356
L 149.804161 422.930173
L 156.149947 422.877319
L 162.495734 391.207557
L 168.84152 383.844552
L 175.187306 422.254426
L 181.533093 414.024224
L 187.878879 427.723605
L 194.224665 433.05121
L 200.570452 348.371377
L 206.916238 412.805407
L 213.262024 287.357085
L 219.607811 377.621802
L 225.953597 461.955436
L 232.299383 463.869275
L 238.64517 361.805035
L 244.990956 461.20246
L 251.336742 438.889701
L 257.682529 289.363184
L 264.028315 331.180775
L 270.374101 350.327628
L 276.719888 284.044625
L 283.065674 416.631669
L 289.41146 301.36291
L 295.757247 381.494147
L 302.103033 413.136992
L 308.448819 458.41632
L 314.794606 457.973844
L 321.140392 464.039746
L 327.486178 312.927151
L 333.831965 351.658207
L 340.177751 457.008917
L 346.523537 461.487849
L 352.869324 436.642124
L 359.21511 464.085166
L 365.560896 437.225341
L 371.906683 420.286198
L 378.252469 450.403222
L 384.598255 423.520089
L 390.944042 415.29093
L 397.289828 453.731872
L 403.635614 443.967528
L 409.981401 386.197496
L 416.327187 443.794973
L 422.672973 418.159601
L 429.01876 426.716005
L 435.364546 419.39495
L 441.710332 371.028995
L 448.056119 437.14597
L 454.401905 370.31916
L 460.747691 440.634928
L 467.093478 437.149373
L 473.439264 364.109833
L 479.78505 408.52509
L 486.130837 458.480577
L 492.476623 447.343927
L 498.822409 436.723018
L 505.168196 439.585211
L 511.513982 429.580626
L 517.859768 460.873229
L 524.205554 408.618264
L 530.551341 446.82036
L 536.897127 328.428797
L 543.242913 387.962175
L 549.5887 355.240243
L 555.934486 463.934097
L 562.280272 464.099965
L 568.626059 296.582452
L 574.971845 294.230194
L 581.317631 381.353583
L 587.663418 440.612329
L 594.009204 316.872524
L 600.35499 315.900144
L 606.700777 305.66696
L 613.046563 282.622484
L 619.392349 356.666148
L 625.738136 327.344397
L 632.083922 290.155868
L 644.775495 350.039803
L 651.121281 287.490344
L 657.467067 294.820589
L 663.812854 292.487111
L 670.15864 295.307209
L 676.504426 310.929771
L 682.850213 402.382449
L 689.195999 457.737904
L 695.541785 396.196216
L 701.887572 387.314768
L 708.233358 395.399086
L 714.579144 397.52715
L 720.924931 422.922343
L 727.270717 423.514133
L 733.616503 430.085992
L 739.96229 415.84856
L 746.308076 423.175274
L 752.653862 406.93762
L 758.999649 433.450048
L 765.345435 334.519565
L 771.691221 378.442714
L 778.037008 396.02363
L 784.382794 463.811446
L 790.72858 382.663103
L 797.074367 416.937994
L 803.420153 401.445789
L 809.765939 418.605309
L 816.111726 407.200638
L 822.457512 408.834923
L 828.803298 409.299979
L 835.149085 442.467959
L 841.494871 417.249887
L 847.840657 453.693738
L 854.186444 425.715684
L 860.53223 378.142937
L 866.878016 415.500949
L 873.223803 406.363697
L 879.569589 407.086553
L 885.915375 397.107132
L 892.261162 456.214855
L 898.606948 464.093931
L 904.952734 459.712128
L 911.298521 298.385309
L 917.644307 282.842112
L 923.990093 282.199202
L 930.33588 283.483141
L 936.681666 284.592674
L 949.373239 341.551105
L 949.373239 341.551105
" clip-path="url(#p7c56fbc7e5)" style="fill: none; stroke: #dc2626; stroke-width: 1.4; stroke-linecap: round"/>
   </g>
   <g id="line2d_59">
    <path d="M 36.531875 390.26
L 992.841875 390.26
" clip-path="url(#p7c56fbc7e5)" style="fill: none; stroke-dasharray: 3.7,1.6; stroke-dashoffset: 0; stroke: #7c3aed"/>
   </g>
   <g id="patch_6">
    <path d="M 36.531875 464.1
L 36.531875 270.27
" style="fill: none; stroke: #cccccc; stroke-linejoin: miter; stroke-linecap: square"/>
   </g>
   <g id="patch_7">
    <path d="M 36.531875 464.1
L 992.841875 464.1
" style="fill: none; stroke: #cccccc; stroke-linejoin: miter; stroke-linecap: square"/>
   </g>
   <g id="PathCollection_1">
    <defs>
     <path id="m20a2fa58b5" d="M 0 2.12132
C 0.562581 2.12132 1.102195 1.897805 1.5 1.5
C 1.897805 1.102195 2.12132 0.562581 2.12132 0
C 2.12132 -0.562581 1.897805 -1.102195 1.5 -1.5
C 1.102195 -1.897805 0.562581 -2.12132 0 -2.12132
C -0.562581 -2.12132 -1.102195 -1.897805 -1.5 -1.5
C -1.897805 -1.102195 -2.12132 -0.562581 -2.12132 0
C -2.12132 0.562581 -1.897805 1.102195 -1.5 1.5
C -1.102195 1.897805 -0.562581 2.12132 0 2.12132
z
" style="stroke: #111827"/>
    </defs>
    <g clip-path="url(#p7c56fbc7e5)">
     <use xlink:href="#m20a2fa58b5" x="92.692084" y="365.859989" style="fill: #111827; stroke: #111827"/>
     <use xlink:href="#m20a2fa58b5" x="168.84152" y="383.844552" style="fill: #111827; stroke: #111827"/>
     <use xlink:href="#m20a2fa58b5" x="200.570452" y="348.371377" style="fill: #111827; stroke: #111827"/>
     <use xlink:href="#m20a2fa58b5" x="213.262024" y="287.357085" style="fill: #111827; stroke: #111827"/>
     <use xlink:href="#m20a2fa58b5" x="219.607811" y="377.621802" style="fill: #111827; stroke: #111827"/>
     <use xlink:href="#m20a2fa58b5" x="238.64517" y="361.805035" style="fill: #111827; stroke: #111827"/>
     <use xlink:href="#m20a2fa58b5" x="257.682529" y="289.363184" style="fill: #111827; stroke: #111827"/>
     <use xlink:href="#m20a2fa58b5" x="264.028315" y="331.180775" style="fill: #111827; stroke: #111827"/>
     <use xlink:href="#m20a2fa58b5" x="270.374101" y="350.327628" style="fill: #111827; stroke: #111827"/>
     <use xlink:href="#m20a2fa58b5" x="276.719888" y="284.044625" style="fill: #111827; stroke: #111827"/>
     <use xlink:href="#m20a2fa58b5" x="289.41146" y="301.36291" style="fill: #111827; stroke: #111827"/>
     <use xlink:href="#m20a2fa58b5" x="295.757247" y="381.494147" style="fill: #111827; stroke: #111827"/>
     <use xlink:href="#m20a2fa58b5" x="327.486178" y="312.927151" style="fill: #111827; stroke: #111827"/>
     <use xlink:href="#m20a2fa58b5" x="333.831965" y="351.658207" style="fill: #111827; stroke: #111827"/>
     <use xlink:href="#m20a2fa58b5" x="409.981401" y="386.197496" style="fill: #111827; stroke: #111827"/>
     <use xlink:href="#m20a2fa58b5" x="441.710332" y="371.028995" style="fill: #111827; stroke: #111827"/>
     <use xlink:href="#m20a2fa58b5" x="454.401905" y="370.31916" style="fill: #111827; stroke: #111827"/>
     <use xlink:href="#m20a2fa58b5" x="473.439264" y="364.109833" style="fill: #111827; stroke: #111827"/>
     <use xlink:href="#m20a2fa58b5" x="536.897127" y="328.428797" style="fill: #111827; stroke: #111827"/>
     <use xlink:href="#m20a2fa58b5" x="543.242913" y="387.962175" style="fill: #111827; stroke: #111827"/>
     <use xlink:href="#m20a2fa58b5" x="549.5887" y="355.240243" style="fill: #111827; stroke: #111827"/>
     <use xlink:href="#m20a2fa58b5" x="568.626059" y="296.582452" style="fill: #111827; stroke: #111827"/>
     <use xlink:href="#m20a2fa58b5" x="574.971845" y="294.230194" style="fill: #111827; stroke: #111827"/>
     <use xlink:href="#m20a2fa58b5" x="581.317631" y="381.353583" style="fill: #111827; stroke: #111827"/>
     <use xlink:href="#m20a2fa58b5" x="594.009204" y="316.872524" style="fill: #111827; stroke: #111827"/>
     <use xlink:href="#m20a2fa58b5" x="600.35499" y="315.900144" style="fill: #111827; stroke: #111827"/>
     <use xlink:href="#m20a2fa58b5" x="606.700777" y="305.66696" style="fill: #111827; stroke: #111827"/>
     <use xlink:href="#m20a2fa58b5" x="613.046563" y="282.622484" style="fill: #111827; stroke: #111827"/>
     <use xlink:href="#m20a2fa58b5" x="619.392349" y="356.666148" style="fill: #111827; stroke: #111827"/>
     <use xlink:href="#m20a2fa58b5" x="625.738136" y="327.344397" style="fill: #111827; stroke: #111827"/>
     <use xlink:href="#m20a2fa58b5" x="632.083922" y="290.155868" style="fill: #111827; stroke: #111827"/>
     <use xlink:href="#m20a2fa58b5" x="638.429708" y="320.279968" style="fill: #111827; stroke: #111827"/>
     <use xlink:href="#m20a2fa58b5" x="644.775495" y="350.039803" style="fill: #111827; stroke: #111827"/>
     <use xlink:href="#m20a2fa58b5" x="651.121281" y="287.490344" style="fill: #111827; stroke: #111827"/>
     <use xlink:href="#m20a2fa58b5" x="657.467067" y="294.820589" style="fill: #111827; stroke: #111827"/>
     <use xlink:href="#m20a2fa58b5" x="663.812854" y="292.487111" style="fill: #111827; stroke: #111827"/>
     <use xlink:href="#m20a2fa58b5" x="670.15864" y="295.307209" style="fill: #111827; stroke: #111827"/>
     <use xlink:href="#m20a2fa58b5" x="676.504426" y="310.929771" style="fill: #111827; stroke: #111827"/>
     <use xlink:href="#m20a2fa58b5" x="701.887572" y="387.314768" style="fill: #111827; stroke: #111827"/>
     <use xlink:href="#m20a2fa58b5" x="765.345435" y="334.519565" style="fill: #111827; stroke: #111827"/>
     <use xlink:href="#m20a2fa58b5" x="771.691221" y="378.442714" style="fill: #111827; stroke: #111827"/>
     <use xlink:href="#m20a2fa58b5" x="790.72858" y="382.663103" style="fill: #111827; stroke: #111827"/>
     <use xlink:href="#m20a2fa58b5" x="860.53223" y="378.142937" style="fill: #111827; stroke: #111827"/>
     <use xlink:href="#m20a2fa58b5" x="911.298521" y="298.385309" style="fill: #111827; stroke: #111827"/>
     <use xlink:href="#m20a2fa58b5" x="917.644307" y="282.842112" style="fill: #111827; stroke: #111827"/>
     <use xlink:href="#m20a2fa58b5" x="923.990093" y="282.199202" style="fill: #111827; stroke: #111827"/>
     <use xlink:href="#m20a2fa58b5" x="930.33588" y="283.483141" style="fill: #111827; stroke: #111827"/>
     <use xlink:href="#m20a2fa58b5" x="936.681666" y="284.592674" style="fill: #111827; stroke: #111827"/>
     <use xlink:href="#m20a2fa58b5" x="943.027452" y="312.941567" style="fill: #111827; stroke: #111827"/>
     <use xlink:href="#m20a2fa58b5" x="949.373239" y="341.551105" style="fill: #111827; stroke: #111827"/>
    </g>
   </g>
   <g id="text_25">
    <!-- Self-collected session fall probability -->
    <g style="fill: #262626" transform="translate(409.001562 264.27) scale(0.12 -0.12)">
     <defs>
      <path id="LiberationSans-Bold-61" d="M 1228 -63
Q 738 -63 463 204
Q 188 472 188 956
Q 188 1481 530 1756
Q 872 2031 1522 2038
L 2250 2050
L 2250 2222
Q 2250 2553 2134 2714
Q 2019 2875 1756 2875
Q 1513 2875 1398 2764
Q 1284 2653 1256 2397
L 341 2441
Q 425 2934 792 3189
Q 1159 3444 1794 3444
Q 2434 3444 2781 3128
Q 3128 2813 3128 2231
L 3128 1000
Q 3128 716 3192 608
Q 3256 500 3406 500
Q 3506 500 3600 519
L 3600 44
Q 3522 25 3459 9
Q 3397 -6 3334 -15
Q 3272 -25 3201 -31
Q 3131 -38 3038 -38
Q 2706 -38 2548 125
Q 2391 288 2359 603
L 2341 603
Q 1972 -63 1228 -63
z
M 2250 1566
L 1800 1559
Q 1494 1547 1366 1492
Q 1238 1438 1170 1325
Q 1103 1213 1103 1025
Q 1103 784 1214 667
Q 1325 550 1509 550
Q 1716 550 1886 662
Q 2056 775 2153 973
Q 2250 1172 2250 1394
L 2250 1566
z
" transform="scale(0.015625)"/>
      <path id="LiberationSans-Bold-70" d="M 3647 1706
Q 3647 859 3308 398
Q 2969 -63 2350 -63
Q 1994 -63 1730 92
Q 1466 247 1325 538
L 1306 538
Q 1325 444 1325 -31
L 1325 -1328
L 447 -1328
L 447 2603
Q 447 3081 422 3381
L 1275 3381
Q 1291 3325 1302 3159
Q 1313 2994 1313 2831
L 1325 2831
Q 1622 3453 2406 3453
Q 2997 3453 3322 2998
Q 3647 2544 3647 1706
z
M 2731 1706
Q 2731 2844 2034 2844
Q 1684 2844 1498 2537
Q 1313 2231 1313 1681
Q 1313 1134 1498 836
Q 1684 538 2028 538
Q 2731 538 2731 1706
z
" transform="scale(0.015625)"/>
      <path id="LiberationSans-Bold-72" d="M 447 0
L 447 2588
Q 447 2866 439 3052
Q 431 3238 422 3381
L 1259 3381
Q 1269 3325 1284 3039
Q 1300 2753 1300 2659
L 1313 2659
Q 1441 3016 1541 3161
Q 1641 3306 1778 3376
Q 1916 3447 2122 3447
Q 2291 3447 2394 3400
L 2394 2666
Q 2181 2713 2019 2713
Q 1691 2713 1508 2447
Q 1325 2181 1325 1659
L 1325 0
L 447 0
z
" transform="scale(0.015625)"/>
      <path id="LiberationSans-Bold-62" d="M 3647 1703
Q 3647 866 3311 401
Q 2975 -63 2350 -63
Q 1991 -63 1728 93
Q 1466 250 1325 544
L 1319 544
Q 1319 434 1305 243
Q 1291 53 1275 0
L 422 0
Q 447 291 447 772
L 447 4638
L 1325 4638
L 1325 3344
L 1313 2794
L 1325 2794
Q 1622 3444 2406 3444
Q 3006 3444 3326 2989
Q 3647 2534 3647 1703
z
M 2731 1703
Q 2731 2278 2562 2556
Q 2394 2834 2041 2834
Q 1684 2834 1498 2536
Q 1313 2238 1313 1675
Q 1313 1138 1495 838
Q 1678 538 2034 538
Q 2731 538 2731 1703
z
" transform="scale(0.015625)"/>
      <path id="LiberationSans-Bold-79" d="M 884 -1328
Q 569 -1328 331 -1288
L 331 -663
Q 497 -688 634 -688
Q 822 -688 945 -628
Q 1069 -569 1167 -431
Q 1266 -294 1388 34
L 50 3381
L 978 3381
L 1509 1797
Q 1634 1456 1825 753
L 1903 1050
L 2106 1784
L 2606 3381
L 3525 3381
L 2188 -178
Q 1919 -828 1630 -1078
Q 1341 -1328 884 -1328
z
" transform="scale(0.015625)"/>
     </defs>
     <use xlink:href="#LiberationSans-Bold-53"/>
     <use xlink:href="#LiberationSans-Bold-65" transform="translate(66.699219 0)"/>
     <use xlink:href="#LiberationSans-Bold-6c" transform="translate(122.314453 0)"/>
     <use xlink:href="#LiberationSans-Bold-66" transform="translate(150.097656 0)"/>
     <use xlink:href="#LiberationSans-Bold-2d" transform="translate(183.398438 0)"/>
     <use xlink:href="#LiberationSans-Bold-63" transform="translate(216.699219 0)"/>
     <use xlink:href="#LiberationSans-Bold-6f" transform="translate(272.314453 0)"/>
     <use xlink:href="#LiberationSans-Bold-6c" transform="translate(333.398438 0)"/>
     <use xlink:href="#LiberationSans-Bold-6c" transform="translate(361.181641 0)"/>
     <use xlink:href="#LiberationSans-Bold-65" transform="translate(388.964844 0)"/>
     <use xlink:href="#LiberationSans-Bold-63" transform="translate(444.580078 0)"/>
     <use xlink:href="#LiberationSans-Bold-74" transform="translate(500.195312 0)"/>
     <use xlink:href="#LiberationSans-Bold-65" transform="translate(533.496094 0)"/>
     <use xlink:href="#LiberationSans-Bold-64" transform="translate(589.111328 0)"/>
     <use xlink:href="#LiberationSans-Bold-20" transform="translate(650.195312 0)"/>
     <use xlink:href="#LiberationSans-Bold-73" transform="translate(677.978516 0)"/>
     <use xlink:href="#LiberationSans-Bold-65" transform="translate(733.59375 0)"/>
     <use xlink:href="#LiberationSans-Bold-73" transform="translate(789.208984 0)"/>
     <use xlink:href="#LiberationSans-Bold-73" transform="translate(844.824219 0)"/>
     <use xlink:href="#LiberationSans-Bold-69" transform="translate(900.439453 0)"/>
     <use xlink:href="#LiberationSans-Bold-6f" transform="translate(928.222656 0)"/>
     <use xlink:href="#LiberationSans-Bold-6e" transform="translate(989.306641 0)"/>
     <use xlink:href="#LiberationSans-Bold-20" transform="translate(1050.390625 0)"/>
     <use xlink:href="#LiberationSans-Bold-66" transform="translate(1078.173828 0)"/>
     <use xlink:href="#LiberationSans-Bold-61" transform="translate(1111.474609 0)"/>
     <use xlink:href="#LiberationSans-Bold-6c" transform="translate(1167.089844 0)"/>
     <use xlink:href="#LiberationSans-Bold-6c" transform="translate(1194.873047 0)"/>
     <use xlink:href="#LiberationSans-Bold-20" transform="translate(1222.65625 0)"/>
     <use xlink:href="#LiberationSans-Bold-70" transform="translate(1250.439453 0)"/>
     <use xlink:href="#LiberationSans-Bold-72" transform="translate(1311.523438 0)"/>
     <use xlink:href="#LiberationSans-Bold-6f" transform="translate(1350.439453 0)"/>
     <use xlink:href="#LiberationSans-Bold-62" transform="translate(1411.523438 0)"/>
     <use xlink:href="#LiberationSans-Bold-61" transform="translate(1472.607422 0)"/>
     <use xlink:href="#LiberationSans-Bold-62" transform="translate(1528.222656 0)"/>
     <use xlink:href="#LiberationSans-Bold-69" transform="translate(1589.306641 0)"/>
     <use xlink:href="#LiberationSans-Bold-6c" transform="translate(1617.089844 0)"/>
     <use xlink:href="#LiberationSans-Bold-69" transform="translate(1644.873047 0)"/>
     <use xlink:href="#LiberationSans-Bold-74" transform="translate(1672.65625 0)"/>
     <use xlink:href="#LiberationSans-Bold-79" transform="translate(1705.957031 0)"/>
    </g>
   </g>
   <g id="legend_1">
    <g id="line2d_60">
     <path d="M 45.531875 283.016875
L 55.531875 283.016875
L 65.531875 283.016875
" style="fill: none; stroke-dasharray: 3.7,1.6; stroke-dashoffset: 0; stroke: #7c3aed"/>
    </g>
    <g id="text_26">
     <!-- fall threshold -->
     <g style="fill: #262626" transform="translate(73.531875 286.516875) scale(0.1 -0.1)">
      <defs>
       <path id="LiberationSans-20" transform="scale(0.015625)"/>
       <path id="LiberationSans-68" d="M 991 2803
Q 1172 3134 1426 3289
Q 1681 3444 2072 3444
Q 2622 3444 2883 3170
Q 3144 2897 3144 2253
L 3144 0
L 2578 0
L 2578 2144
Q 2578 2500 2512 2673
Q 2447 2847 2297 2928
Q 2147 3009 1881 3009
Q 1484 3009 1245 2734
Q 1006 2459 1006 1994
L 1006 0
L 444 0
L 444 4638
L 1006 4638
L 1006 3431
Q 1006 3241 995 3037
Q 984 2834 981 2803
L 991 2803
z
" transform="scale(0.015625)"/>
      </defs>
      <use xlink:href="#LiberationSans-66"/>
      <use xlink:href="#LiberationSans-61" transform="translate(27.783203 0)"/>
      <use xlink:href="#LiberationSans-6c" transform="translate(83.398438 0)"/>
      <use xlink:href="#LiberationSans-6c" transform="translate(105.615234 0)"/>
      <use xlink:href="#LiberationSans-20" transform="translate(127.832031 0)"/>
      <use xlink:href="#LiberationSans-74" transform="translate(155.615234 0)"/>
      <use xlink:href="#LiberationSans-68" transform="translate(183.398438 0)"/>
      <use xlink:href="#LiberationSans-72" transform="translate(239.013672 0)"/>
      <use xlink:href="#LiberationSans-65" transform="translate(272.314453 0)"/>
      <use xlink:href="#LiberationSans-73" transform="translate(327.929688 0)"/>
      <use xlink:href="#LiberationSans-68" transform="translate(377.929688 0)"/>
      <use xlink:href="#LiberationSans-6f" transform="translate(433.544922 0)"/>
      <use xlink:href="#LiberationSans-6c" transform="translate(489.160156 0)"/>
      <use xlink:href="#LiberationSans-64" transform="translate(511.376953 0)"/>
     </g>
    </g>
    <g id="PathCollection_2">
     <g>
      <use xlink:href="#m20a2fa58b5" x="55.531875" y="298.21375" style="fill: #111827; stroke: #111827"/>
     </g>
    </g>
    <g id="text_27">
     <!-- predicted fall -->
     <g style="fill: #262626" transform="translate(73.531875 300.83875) scale(0.1 -0.1)">
      <use xlink:href="#LiberationSans-70"/>
      <use xlink:href="#LiberationSans-72" transform="translate(55.615234 0)"/>
      <use xlink:href="#LiberationSans-65" transform="translate(88.916016 0)"/>
      <use xlink:href="#LiberationSans-64" transform="translate(144.53125 0)"/>
      <use xlink:href="#LiberationSans-69" transform="translate(200.146484 0)"/>
      <use xlink:href="#LiberationSans-63" transform="translate(222.363281 0)"/>
      <use xlink:href="#LiberationSans-74" transform="translate(272.363281 0)"/>
      <use xlink:href="#LiberationSans-65" transform="translate(300.146484 0)"/>
      <use xlink:href="#LiberationSans-64" transform="translate(355.761719 0)"/>
      <use xlink:href="#LiberationSans-20" transform="translate(411.376953 0)"/>
      <use xlink:href="#LiberationSans-66" transform="translate(439.160156 0)"/>
      <use xlink:href="#LiberationSans-61" transform="translate(466.943359 0)"/>
      <use xlink:href="#LiberationSans-6c" transform="translate(522.558594 0)"/>
      <use xlink:href="#LiberationSans-6c" transform="translate(544.775391 0)"/>
     </g>
    </g>
   </g>
  </g>
  <g id="text_28">
   <!-- Self-collected phone-session evidence timeline -->
   <g style="fill: #262626" transform="translate(353.721953 16.620937) scale(0.13 -0.13)">
    <defs>
     <path id="LiberationSans-Bold-68" d="M 1313 2706
Q 1491 3094 1759 3269
Q 2028 3444 2400 3444
Q 2938 3444 3225 3112
Q 3513 2781 3513 2144
L 3513 0
L 2638 0
L 2638 1894
Q 2638 2784 2034 2784
Q 1716 2784 1520 2511
Q 1325 2238 1325 1809
L 1325 0
L 447 0
L 447 4638
L 1325 4638
L 1325 3372
Q 1325 3031 1300 2706
L 1313 2706
z
" transform="scale(0.015625)"/>
     <path id="LiberationSans-Bold-76" d="M 2284 0
L 1234 0
L 25 3381
L 953 3381
L 1544 1491
Q 1591 1334 1766 709
Q 1797 838 1894 1159
Q 1991 1481 2613 3381
L 3531 3381
L 2284 0
z
" transform="scale(0.015625)"/>
     <path id="LiberationSans-Bold-6d" d="M 2438 0
L 2438 1897
Q 2438 2788 1925 2788
Q 1659 2788 1492 2516
Q 1325 2244 1325 1813
L 1325 0
L 447 0
L 447 2625
Q 447 2897 439 3070
Q 431 3244 422 3381
L 1259 3381
Q 1269 3322 1284 3064
Q 1300 2806 1300 2709
L 1313 2709
Q 1475 3097 1717 3272
Q 1959 3447 2297 3447
Q 3072 3447 3238 2709
L 3256 2709
Q 3428 3103 3668 3275
Q 3909 3447 4281 3447
Q 4775 3447 5034 3111
Q 5294 2775 5294 2147
L 5294 0
L 4422 0
L 4422 1897
Q 4422 2788 3909 2788
Q 3653 2788 3489 2539
Q 3325 2291 3309 1853
L 3309 0
L 2438 0
z
" transform="scale(0.015625)"/>
    </defs>
    <use xlink:href="#LiberationSans-Bold-53"/>
    <use xlink:href="#LiberationSans-Bold-65" transform="translate(66.699219 0)"/>
    <use xlink:href="#LiberationSans-Bold-6c" transform="translate(122.314453 0)"/>
    <use xlink:href="#LiberationSans-Bold-66" transform="translate(150.097656 0)"/>
    <use xlink:href="#LiberationSans-Bold-2d" transform="translate(183.398438 0)"/>
    <use xlink:href="#LiberationSans-Bold-63" transform="translate(216.699219 0)"/>
    <use xlink:href="#LiberationSans-Bold-6f" transform="translate(272.314453 0)"/>
    <use xlink:href="#LiberationSans-Bold-6c" transform="translate(333.398438 0)"/>
    <use xlink:href="#LiberationSans-Bold-6c" transform="translate(361.181641 0)"/>
    <use xlink:href="#LiberationSans-Bold-65" transform="translate(388.964844 0)"/>
    <use xlink:href="#LiberationSans-Bold-63" transform="translate(444.580078 0)"/>
    <use xlink:href="#LiberationSans-Bold-74" transform="translate(500.195312 0)"/>
    <use xlink:href="#LiberationSans-Bold-65" transform="translate(533.496094 0)"/>
    <use xlink:href="#LiberationSans-Bold-64" transform="translate(589.111328 0)"/>
    <use xlink:href="#LiberationSans-Bold-20" transform="translate(650.195312 0)"/>
    <use xlink:href="#LiberationSans-Bold-70" transform="translate(677.978516 0)"/>
    <use xlink:href="#LiberationSans-Bold-68" transform="translate(739.0625 0)"/>
    <use xlink:href="#LiberationSans-Bold-6f" transform="translate(800.146484 0)"/>
    <use xlink:href="#LiberationSans-Bold-6e" transform="translate(861.230469 0)"/>
    <use xlink:href="#LiberationSans-Bold-65" transform="translate(922.314453 0)"/>
    <use xlink:href="#LiberationSans-Bold-2d" transform="translate(977.929688 0)"/>
    <use xlink:href="#LiberationSans-Bold-73" transform="translate(1011.230469 0)"/>
    <use xlink:href="#LiberationSans-Bold-65" transform="translate(1066.845703 0)"/>
    <use xlink:href="#LiberationSans-Bold-73" transform="translate(1122.460938 0)"/>
    <use xlink:href="#LiberationSans-Bold-73" transform="translate(1178.076172 0)"/>
    <use xlink:href="#LiberationSans-Bold-69" transform="translate(1233.691406 0)"/>
    <use xlink:href="#LiberationSans-Bold-6f" transform="translate(1261.474609 0)"/>
    <use xlink:href="#LiberationSans-Bold-6e" transform="translate(1322.558594 0)"/>
    <use xlink:href="#LiberationSans-Bold-20" transform="translate(1383.642578 0)"/>
    <use xlink:href="#LiberationSans-Bold-65" transform="translate(1411.425781 0)"/>
    <use xlink:href="#LiberationSans-Bold-76" transform="translate(1467.041016 0)"/>
    <use xlink:href="#LiberationSans-Bold-69" transform="translate(1522.65625 0)"/>
    <use xlink:href="#LiberationSans-Bold-64" transform="translate(1550.439453 0)"/>
    <use xlink:href="#LiberationSans-Bold-65" transform="translate(1611.523438 0)"/>
    <use xlink:href="#LiberationSans-Bold-6e" transform="translate(1667.138672 0)"/>
    <use xlink:href="#LiberationSans-Bold-63" transform="translate(1728.222656 0)"/>
    <use xlink:href="#LiberationSans-Bold-65" transform="translate(1783.837891 0)"/>
    <use xlink:href="#LiberationSans-Bold-20" transform="translate(1839.453125 0)"/>
    <use xlink:href="#LiberationSans-Bold-74" transform="translate(1867.236328 0)"/>
    <use xlink:href="#LiberationSans-Bold-69" transform="translate(1900.537109 0)"/>
    <use xlink:href="#LiberationSans-Bold-6d" transform="translate(1928.320312 0)"/>
    <use xlink:href="#LiberationSans-Bold-65" transform="translate(2017.236328 0)"/>
    <use xlink:href="#LiberationSans-Bold-6c" transform="translate(2072.851562 0)"/>
    <use xlink:href="#LiberationSans-Bold-69" transform="translate(2100.634766 0)"/>
    <use xlink:href="#LiberationSans-Bold-6e" transform="translate(2128.417969 0)"/>
    <use xlink:href="#LiberationSans-Bold-65" transform="translate(2189.501953 0)"/>
   </g>
  </g>
 </g>
 <defs>
  <clipPath id="pe3dd1e4080">
   <rect x="36.531875" y="45.6" width="956.31" height="193.83"/>
  </clipPath>
  <clipPath id="p7c56fbc7e5">
   <rect x="36.531875" y="270.27" width="956.31" height="193.83"/>
  </clipPath>
 </defs>
</svg>
