<?xml version="1.0" encoding="utf-8" standalone="no"?>
<!DOCTYPE svg PUBLIC "-//W3C//DTD SVG 1.1//EN"
  "http://www.w3.org/Graphics/SVG/1.1/DTD/svg11.dtd">
<svg xmlns:xlink="http://www.w3.org/1999/xlink" width="781.048472pt" height="459.847812pt" viewBox="0 0 781.048472 459.847812" xmlns="http://www.w3.org/2000/svg" version="1.1">
 <metadata>
  <rdf:RDF xmlns:dc="http://purl.org/dc/elements/1.1/" xmlns:cc="http://creativecommons.org/ns#" xmlns:rdf="http://www.w3.org/1999/02/22-rdf-syntax-ns#">
   <cc:Work>
    <dc:type rdf:resource="http://purl.org/dc/dcmitype/StillImage"/>
    <dc:date>2026-04-30T09:22:47.939768</dc:date>
    <dc:format>image/svg+xml</dc:format>
    <dc:creator>
     <cc:Agent>
      <dc:title>Matplotlib v3.10.8, https://matplotlib.org/</dc:title>
     </cc:Agent>
    </dc:creator>
   </cc:Work>
  </rdf:RDF>
 </metadata>
 <defs>
  <style type="text/css">*{stroke-linejoin: round; stroke-linecap: butt}</style>
 </defs>
 <g id="figure_1">
  <g id="patch_1">
   <path d="M 0 459.847812
L 781.048472 459.847812
L 781.048472 0
L 0 0
z
" style="fill: #ffffff"/>
  </g>
  <g id="axes_1">
   <g id="patch_2">
    <path d="M 101.09 427.43625
L 754.621776 427.43625
L 754.621776 21.89625
L 101.09 21.89625
z
" style="fill: #ffffff"/>
   </g>
   <g id="matplotlib.axis_1">
    <g id="xtick_1">
     <g id="line2d_1">
      <path d="M 101.09 427.43625
L 101.09 21.89625
" clip-path="url(#pd9a2958db4)" style="fill: none; stroke: #cccccc; stroke-width: 0.8; stroke-linecap: round"/>
     </g>
     <g id="line2d_2"/>
     <g id="text_1">
      <!-- 0.0 -->
      <g style="fill: #262626" transform="translate(94.835 437.458437) scale(0.09 -0.09)">
       <defs>
        <path id="LiberationSans-30" d="M 3309 2203
Q 3309 1100 2920 518
Q 2531 -63 1772 -63
Q 1013 -63 631 515
Q 250 1094 250 2203
Q 250 3338 620 3903
Q 991 4469 1791 4469
Q 2569 4469 2939 3897
Q 3309 3325 3309 2203
z
M 2738 2203
Q 2738 3156 2517 3584
Q 2297 4013 1791 4013
Q 1272 4013 1045 3591
Q 819 3169 819 2203
Q 819 1266 1048 831
Q 1278 397 1778 397
Q 2275 397 2506 840
Q 2738 1284 2738 2203
z
" transform="scale(0.015625)"/>
        <path id="LiberationSans-2e" d="M 584 0
L 584 684
L 1194 684
L 1194 0
L 584 0
z
" transform="scale(0.015625)"/>
       </defs>
       <use xlink:href="#LiberationSans-30"/>
       <use xlink:href="#LiberationSans-2e" transform="translate(55.615234 0)"/>
       <use xlink:href="#LiberationSans-30" transform="translate(83.398438 0)"/>
      </g>
     </g>
    </g>
    <g id="xtick_2">
     <g id="line2d_3">
      <path d="M 222.114403 427.43625
L 222.114403 21.89625
" clip-path="url(#pd9a2958db4)" style="fill: none; stroke: #cccccc; stroke-width: 0.8; stroke-linecap: round"/>
     </g>
     <g id="line2d_4"/>
     <g id="text_2">
      <!-- 0.2 -->
      <g style="fill: #262626" transform="translate(215.859403 437.458437) scale(0.09 -0.09)">
       <defs>
        <path id="LiberationSans-32" d="M 322 0
L 322 397
Q 481 763 711 1042
Q 941 1322 1194 1548
Q 1447 1775 1695 1969
Q 1944 2163 2144 2356
Q 2344 2550 2467 2762
Q 2591 2975 2591 3244
Q 2591 3606 2378 3806
Q 2166 4006 1788 4006
Q 1428 4006 1195 3811
Q 963 3616 922 3263
L 347 3316
Q 409 3844 795 4156
Q 1181 4469 1788 4469
Q 2453 4469 2811 4155
Q 3169 3841 3169 3263
Q 3169 3006 3051 2753
Q 2934 2500 2703 2247
Q 2472 1994 1819 1463
Q 1459 1169 1246 933
Q 1034 697 941 478
L 3238 478
L 3238 0
L 322 0
z
" transform="scale(0.015625)"/>
       </defs>
       <use xlink:href="#LiberationSans-30"/>
       <use xlink:href="#LiberationSans-2e" transform="translate(55.615234 0)"/>
       <use xlink:href="#LiberationSans-32" transform="translate(83.398438 0)"/>
      </g>
     </g>
    </g>
    <g id="xtick_3">
     <g id="line2d_5">
      <path d="M 343.138806 427.43625
L 343.138806 21.89625
" clip-path="url(#pd9a2958db4)" style="fill: none; stroke: #cccccc; stroke-width: 0.8; stroke-linecap: round"/>
     </g>
     <g id="line2d_6"/>
     <g id="text_3">
      <!-- 0.4 -->
      <g style="fill: #262626" transform="translate(336.883806 437.458437) scale(0.09 -0.09)">
       <defs>
        <path id="LiberationSans-34" d="M 2753 997
L 2753 0
L 2222 0
L 2222 997
L 147 997
L 147 1434
L 2163 4403
L 2753 4403
L 2753 1441
L 3372 1441
L 3372 997
L 2753 997
z
M 2222 3769
Q 2216 3750 2134 3603
Q 2053 3456 2013 3397
L 884 1734
L 716 1503
L 666 1441
L 2222 1441
L 2222 3769
z
" transform="scale(0.015625)"/>
       </defs>
       <use xlink:href="#LiberationSans-30"/>
       <use xlink:href="#LiberationSans-2e" transform="translate(55.615234 0)"/>
       <use xlink:href="#LiberationSans-34" transform="translate(83.398438 0)"/>
      </g>
     </g>
    </g>
    <g id="xtick_4">
     <g id="line2d_7">
      <path d="M 464.163209 427.43625
L 464.163209 21.89625
" clip-path="url(#pd9a2958db4)" style="fill: none; stroke: #cccccc; stroke-width: 0.8; stroke-linecap: round"/>
     </g>
     <g id="line2d_8"/>
     <g id="text_4">
      <!-- 0.6 -->
      <g style="fill: #262626" transform="translate(457.908209 437.458437) scale(0.09 -0.09)">
       <defs>
        <path id="LiberationSans-36" d="M 3278 1441
Q 3278 744 2900 340
Q 2522 -63 1856 -63
Q 1113 -63 719 490
Q 325 1044 325 2100
Q 325 3244 734 3856
Q 1144 4469 1900 4469
Q 2897 4469 3156 3572
L 2619 3475
Q 2453 4013 1894 4013
Q 1413 4013 1148 3564
Q 884 3116 884 2266
Q 1038 2550 1316 2698
Q 1594 2847 1953 2847
Q 2563 2847 2920 2465
Q 3278 2084 3278 1441
z
M 2706 1416
Q 2706 1894 2472 2153
Q 2238 2413 1819 2413
Q 1425 2413 1183 2183
Q 941 1953 941 1550
Q 941 1041 1192 716
Q 1444 391 1838 391
Q 2244 391 2475 664
Q 2706 938 2706 1416
z
" transform="scale(0.015625)"/>
       </defs>
       <use xlink:href="#LiberationSans-30"/>
       <use xlink:href="#LiberationSans-2e" transform="translate(55.615234 0)"/>
       <use xlink:href="#LiberationSans-36" transform="translate(83.398438 0)"/>
      </g>
     </g>
    </g>
    <g id="xtick_5">
     <g id="line2d_9">
      <path d="M 585.187612 427.43625
L 585.187612 21.89625
" clip-path="url(#pd9a2958db4)" style="fill: none; stroke: #cccccc; stroke-width: 0.8; stroke-linecap: round"/>
     </g>
     <g id="line2d_10"/>
     <g id="text_5">
      <!-- 0.8 -->
      <g style="fill: #262626" transform="translate(578.932612 437.458437) scale(0.09 -0.09)">
       <defs>
        <path id="LiberationSans-38" d="M 3281 1228
Q 3281 619 2893 278
Q 2506 -63 1781 -63
Q 1075 -63 676 271
Q 278 606 278 1222
Q 278 1653 525 1947
Q 772 2241 1156 2303
L 1156 2316
Q 797 2400 589 2681
Q 381 2963 381 3341
Q 381 3844 757 4156
Q 1134 4469 1769 4469
Q 2419 4469 2795 4162
Q 3172 3856 3172 3334
Q 3172 2956 2962 2675
Q 2753 2394 2391 2322
L 2391 2309
Q 2813 2241 3047 1952
Q 3281 1663 3281 1228
z
M 2588 3303
Q 2588 4050 1769 4050
Q 1372 4050 1164 3862
Q 956 3675 956 3303
Q 956 2925 1170 2726
Q 1384 2528 1775 2528
Q 2172 2528 2380 2711
Q 2588 2894 2588 3303
z
M 2697 1281
Q 2697 1691 2453 1898
Q 2209 2106 1769 2106
Q 1341 2106 1100 1882
Q 859 1659 859 1269
Q 859 359 1788 359
Q 2247 359 2472 579
Q 2697 800 2697 1281
z
" transform="scale(0.015625)"/>
       </defs>
       <use xlink:href="#LiberationSans-30"/>
       <use xlink:href="#LiberationSans-2e" transform="translate(55.615234 0)"/>
       <use xlink:href="#LiberationSans-38" transform="translate(83.398438 0)"/>
      </g>
     </g>
    </g>
    <g id="xtick_6">
     <g id="line2d_11">
      <path d="M 706.212015 427.43625
L 706.212015 21.89625
" clip-path="url(#pd9a2958db4)" style="fill: none; stroke: #cccccc; stroke-width: 0.8; stroke-linecap: round"/>
     </g>
     <g id="line2d_12"/>
     <g id="text_6">
      <!-- 1.0 -->
      <g style="fill: #262626" transform="translate(699.957015 437.458437) scale(0.09 -0.09)">
       <defs>
        <path id="LiberationSans-31" d="M 488 0
L 488 478
L 1609 478
L 1609 3866
L 616 3156
L 616 3688
L 1656 4403
L 2175 4403
L 2175 478
L 3247 478
L 3247 0
L 488 0
z
" transform="scale(0.015625)"/>
       </defs>
       <use xlink:href="#LiberationSans-31"/>
       <use xlink:href="#LiberationSans-2e" transform="translate(55.615234 0)"/>
       <use xlink:href="#LiberationSans-30" transform="translate(83.398438 0)"/>
      </g>
     </g>
    </g>
    <g id="text_7">
     <!-- peak fall probability -->
     <g style="fill: #262626" transform="translate(385.055888 450.572812) scale(0.1 -0.1)">
      <defs>
       <path id="LiberationSans-70" d="M 3291 1706
Q 3291 -63 2047 -63
Q 1266 -63 997 525
L 981 525
Q 994 500 994 -6
L 994 -1328
L 431 -1328
L 431 2691
Q 431 3213 413 3381
L 956 3381
Q 959 3369 965 3292
Q 972 3216 980 3056
Q 988 2897 988 2838
L 1000 2838
Q 1150 3150 1397 3295
Q 1644 3441 2047 3441
Q 2672 3441 2981 3022
Q 3291 2603 3291 1706
z
M 2700 1694
Q 2700 2400 2509 2703
Q 2319 3006 1903 3006
Q 1569 3006 1380 2865
Q 1191 2725 1092 2426
Q 994 2128 994 1650
Q 994 984 1206 668
Q 1419 353 1897 353
Q 2316 353 2508 661
Q 2700 969 2700 1694
z
" transform="scale(0.015625)"/>
       <path id="LiberationSans-65" d="M 863 1572
Q 863 991 1103 675
Q 1344 359 1806 359
Q 2172 359 2392 506
Q 2613 653 2691 878
L 3184 738
Q 2881 -63 1806 -63
Q 1056 -63 664 384
Q 272 831 272 1713
Q 272 2550 664 2997
Q 1056 3444 1784 3444
Q 3275 3444 3275 1647
L 3275 1572
L 863 1572
z
M 2694 2003
Q 2647 2538 2422 2783
Q 2197 3028 1775 3028
Q 1366 3028 1127 2754
Q 888 2481 869 2003
L 2694 2003
z
" transform="scale(0.015625)"/>
       <path id="LiberationSans-61" d="M 1294 -63
Q 784 -63 528 206
Q 272 475 272 944
Q 272 1469 617 1750
Q 963 2031 1731 2050
L 2491 2063
L 2491 2247
Q 2491 2659 2316 2837
Q 2141 3016 1766 3016
Q 1388 3016 1216 2887
Q 1044 2759 1009 2478
L 422 2531
Q 566 3444 1778 3444
Q 2416 3444 2737 3151
Q 3059 2859 3059 2306
L 3059 850
Q 3059 600 3125 473
Q 3191 347 3375 347
Q 3456 347 3559 369
L 3559 19
Q 3347 -31 3125 -31
Q 2813 -31 2670 133
Q 2528 297 2509 647
L 2491 647
Q 2275 259 1989 98
Q 1703 -63 1294 -63
z
M 1422 359
Q 1731 359 1972 500
Q 2213 641 2352 886
Q 2491 1131 2491 1391
L 2491 1669
L 1875 1656
Q 1478 1650 1273 1575
Q 1069 1500 959 1344
Q 850 1188 850 934
Q 850 659 998 509
Q 1147 359 1422 359
z
" transform="scale(0.015625)"/>
       <path id="LiberationSans-6b" d="M 2550 0
L 1406 1544
L 994 1203
L 994 0
L 431 0
L 431 4638
L 994 4638
L 994 1741
L 2478 3381
L 3138 3381
L 1766 1928
L 3209 0
L 2550 0
z
" transform="scale(0.015625)"/>
       <path id="LiberationSans-20" transform="scale(0.015625)"/>
       <path id="LiberationSans-66" d="M 1128 2972
L 1128 0
L 566 0
L 566 2972
L 91 2972
L 91 3381
L 566 3381
L 566 3763
Q 566 4225 769 4428
Q 972 4631 1391 4631
Q 1625 4631 1788 4594
L 1788 4166
Q 1647 4191 1538 4191
Q 1322 4191 1225 4081
Q 1128 3972 1128 3684
L 1128 3381
L 1788 3381
L 1788 2972
L 1128 2972
z
" transform="scale(0.015625)"/>
       <path id="LiberationSans-6c" d="M 431 0
L 431 4638
L 994 4638
L 994 0
L 431 0
z
" transform="scale(0.015625)"/>
       <path id="LiberationSans-72" d="M 444 0
L 444 2594
Q 444 2950 425 3381
L 956 3381
Q 981 2806 981 2691
L 994 2691
Q 1128 3125 1303 3284
Q 1478 3444 1797 3444
Q 1909 3444 2025 3413
L 2025 2897
Q 1913 2928 1725 2928
Q 1375 2928 1190 2626
Q 1006 2325 1006 1763
L 1006 0
L 444 0
z
" transform="scale(0.015625)"/>
       <path id="LiberationSans-6f" d="M 3291 1694
Q 3291 806 2900 371
Q 2509 -63 1766 -63
Q 1025 -63 647 389
Q 269 841 269 1694
Q 269 3444 1784 3444
Q 2559 3444 2925 3017
Q 3291 2591 3291 1694
z
M 2700 1694
Q 2700 2394 2492 2711
Q 2284 3028 1794 3028
Q 1300 3028 1079 2704
Q 859 2381 859 1694
Q 859 1025 1076 689
Q 1294 353 1759 353
Q 2266 353 2483 678
Q 2700 1003 2700 1694
z
" transform="scale(0.015625)"/>
       <path id="LiberationSans-62" d="M 3291 1706
Q 3291 -63 2047 -63
Q 1663 -63 1408 76
Q 1153 216 994 525
L 988 525
Q 988 428 975 229
Q 963 31 956 0
L 413 0
Q 431 169 431 697
L 431 4638
L 994 4638
L 994 3316
Q 994 3113 981 2838
L 994 2838
Q 1150 3163 1408 3303
Q 1666 3444 2047 3444
Q 2688 3444 2989 3012
Q 3291 2581 3291 1706
z
M 2700 1688
Q 2700 2397 2512 2703
Q 2325 3009 1903 3009
Q 1428 3009 1211 2684
Q 994 2359 994 1653
Q 994 988 1206 670
Q 1419 353 1897 353
Q 2322 353 2511 667
Q 2700 981 2700 1688
z
" transform="scale(0.015625)"/>
       <path id="LiberationSans-69" d="M 428 4100
L 428 4638
L 991 4638
L 991 4100
L 428 4100
z
M 428 0
L 428 3381
L 991 3381
L 991 0
L 428 0
z
" transform="scale(0.015625)"/>
       <path id="LiberationSans-74" d="M 1731 25
Q 1453 -50 1163 -50
Q 488 -50 488 716
L 488 2972
L 97 2972
L 97 3381
L 509 3381
L 675 4138
L 1050 4138
L 1050 3381
L 1675 3381
L 1675 2972
L 1050 2972
L 1050 838
Q 1050 594 1129 495
Q 1209 397 1406 397
Q 1519 397 1731 441
L 1731 25
z
" transform="scale(0.015625)"/>
       <path id="LiberationSans-79" d="M 597 -1328
Q 366 -1328 209 -1294
L 209 -872
Q 328 -891 472 -891
Q 997 -891 1303 -119
L 1356 16
L 16 3381
L 616 3381
L 1328 1513
Q 1344 1469 1366 1408
Q 1388 1347 1506 1000
Q 1625 653 1634 613
L 1853 1228
L 2594 3381
L 3188 3381
L 1888 0
Q 1678 -541 1497 -805
Q 1316 -1069 1095 -1198
Q 875 -1328 597 -1328
z
" transform="scale(0.015625)"/>
      </defs>
      <use xlink:href="#LiberationSans-70"/>
      <use xlink:href="#LiberationSans-65" transform="translate(55.615234 0)"/>
      <use xlink:href="#LiberationSans-61" transform="translate(111.230469 0)"/>
      <use xlink:href="#LiberationSans-6b" transform="translate(166.845703 0)"/>
      <use xlink:href="#LiberationSans-20" transform="translate(216.845703 0)"/>
      <use xlink:href="#LiberationSans-66" transform="translate(244.628906 0)"/>
      <use xlink:href="#LiberationSans-61" transform="translate(272.412109 0)"/>
      <use xlink:href="#LiberationSans-6c" transform="translate(328.027344 0)"/>
      <use xlink:href="#LiberationSans-6c" transform="translate(350.244141 0)"/>
      <use xlink:href="#LiberationSans-20" transform="translate(372.460938 0)"/>
      <use xlink:href="#LiberationSans-70" transform="translate(400.244141 0)"/>
      <use xlink:href="#LiberationSans-72" transform="translate(455.859375 0)"/>
      <use xlink:href="#LiberationSans-6f" transform="translate(489.160156 0)"/>
      <use xlink:href="#LiberationSans-62" transform="translate(544.775391 0)"/>
      <use xlink:href="#LiberationSans-61" transform="translate(600.390625 0)"/>
      <use xlink:href="#LiberationSans-62" transform="translate(656.005859 0)"/>
      <use xlink:href="#LiberationSans-69" transform="translate(711.621094 0)"/>
      <use xlink:href="#LiberationSans-6c" transform="translate(733.837891 0)"/>
      <use xlink:href="#LiberationSans-69" transform="translate(756.054688 0)"/>
      <use xlink:href="#LiberationSans-74" transform="translate(778.271484 0)"/>
      <use xlink:href="#LiberationSans-79" transform="translate(806.054688 0)"/>
     </g>
    </g>
   </g>
   <g id="matplotlib.axis_2">
    <g id="ytick_1">
     <g id="line2d_13">
      <path d="M 101.09 396.505233
L 754.621776 396.505233
" clip-path="url(#pd9a2958db4)" style="fill: none; stroke: #cccccc; stroke-width: 0.8; stroke-linecap: round"/>
     </g>
     <g id="line2d_14"/>
     <g id="text_8">
      <!-- phone1_event_004 -->
      <g style="fill: #262626" transform="translate(20.521875 399.766327) scale(0.09 -0.09)">
       <defs>
        <path id="LiberationSans-68" d="M 991 2803
Q 1172 3134 1426 3289
Q 1681 3444 2072 3444
Q 2622 3444 2883 3170
Q 3144 2897 3144 2253
L 3144 0
L 2578 0
L 2578 2144
Q 2578 2500 2512 2673
Q 2447 2847 2297 2928
Q 2147 3009 1881 3009
Q 1484 3009 1245 2734
Q 1006 2459 1006 1994
L 1006 0
L 444 0
L 444 4638
L 1006 4638
L 1006 3431
Q 1006 3241 995 3037
Q 984 2834 981 2803
L 991 2803
z
" transform="scale(0.015625)"/>
        <path id="LiberationSans-6e" d="M 2578 0
L 2578 2144
Q 2578 2478 2512 2662
Q 2447 2847 2303 2928
Q 2159 3009 1881 3009
Q 1475 3009 1240 2731
Q 1006 2453 1006 1959
L 1006 0
L 444 0
L 444 2659
Q 444 3250 425 3381
L 956 3381
Q 959 3366 962 3297
Q 966 3228 970 3139
Q 975 3050 981 2803
L 991 2803
Q 1184 3153 1439 3298
Q 1694 3444 2072 3444
Q 2628 3444 2886 3167
Q 3144 2891 3144 2253
L 3144 0
L 2578 0
z
" transform="scale(0.015625)"/>
        <path id="LiberationSans-5f" d="M -97 -1272
L -97 -866
L 3631 -866
L 3631 -1272
L -97 -1272
z
" transform="scale(0.015625)"/>
        <path id="LiberationSans-76" d="M 1916 0
L 1250 0
L 22 3381
L 622 3381
L 1366 1181
Q 1406 1056 1581 441
L 1691 806
L 1813 1175
L 2581 3381
L 3178 3381
L 1916 0
z
" transform="scale(0.015625)"/>
       </defs>
       <use xlink:href="#LiberationSans-70"/>
       <use xlink:href="#LiberationSans-68" transform="translate(55.615234 0)"/>
       <use xlink:href="#LiberationSans-6f" transform="translate(111.230469 0)"/>
       <use xlink:href="#LiberationSans-6e" transform="translate(166.845703 0)"/>
       <use xlink:href="#LiberationSans-65" transform="translate(222.460938 0)"/>
       <use xlink:href="#LiberationSans-31" transform="translate(278.076172 0)"/>
       <use xlink:href="#LiberationSans-5f" transform="translate(333.691406 0)"/>
       <use xlink:href="#LiberationSans-65" transform="translate(389.306641 0)"/>
       <use xlink:href="#LiberationSans-76" transform="translate(444.921875 0)"/>
       <use xlink:href="#LiberationSans-65" transform="translate(494.921875 0)"/>
       <use xlink:href="#LiberationSans-6e" transform="translate(550.537109 0)"/>
       <use xlink:href="#LiberationSans-74" transform="translate(606.152344 0)"/>
       <use xlink:href="#LiberationSans-5f" transform="translate(633.935547 0)"/>
       <use xlink:href="#LiberationSans-30" transform="translate(689.550781 0)"/>
       <use xlink:href="#LiberationSans-30" transform="translate(745.166016 0)"/>
       <use xlink:href="#LiberationSans-34" transform="translate(800.78125 0)"/>
      </g>
     </g>
    </g>
    <g id="ytick_2">
     <g id="line2d_15">
      <path d="M 101.09 365.261782
L 754.621776 365.261782
" clip-path="url(#pd9a2958db4)" style="fill: none; stroke: #cccccc; stroke-width: 0.8; stroke-linecap: round"/>
     </g>
     <g id="line2d_16"/>
     <g id="text_9">
      <!-- phone1_event_014 -->
      <g style="fill: #262626" transform="translate(20.521875 368.522875) scale(0.09 -0.09)">
       <use xlink:href="#LiberationSans-70"/>
       <use xlink:href="#LiberationSans-68" transform="translate(55.615234 0)"/>
       <use xlink:href="#LiberationSans-6f" transform="translate(111.230469 0)"/>
       <use xlink:href="#LiberationSans-6e" transform="translate(166.845703 0)"/>
       <use xlink:href="#LiberationSans-65" transform="translate(222.460938 0)"/>
       <use xlink:href="#LiberationSans-31" transform="translate(278.076172 0)"/>
       <use xlink:href="#LiberationSans-5f" transform="translate(333.691406 0)"/>
       <use xlink:href="#LiberationSans-65" transform="translate(389.306641 0)"/>
       <use xlink:href="#LiberationSans-76" transform="translate(444.921875 0)"/>
       <use xlink:href="#LiberationSans-65" transform="translate(494.921875 0)"/>
       <use xlink:href="#LiberationSans-6e" transform="translate(550.537109 0)"/>
       <use xlink:href="#LiberationSans-74" transform="translate(606.152344 0)"/>
       <use xlink:href="#LiberationSans-5f" transform="translate(633.935547 0)"/>
       <use xlink:href="#LiberationSans-30" transform="translate(689.550781 0)"/>
       <use xlink:href="#LiberationSans-31" transform="translate(745.166016 0)"/>
       <use xlink:href="#LiberationSans-34" transform="translate(800.78125 0)"/>
      </g>
     </g>
    </g>
    <g id="ytick_3">
     <g id="line2d_17">
      <path d="M 101.09 334.01833
L 754.621776 334.01833
" clip-path="url(#pd9a2958db4)" style="fill: none; stroke: #cccccc; stroke-width: 0.8; stroke-linecap: round"/>
     </g>
     <g id="line2d_18"/>
     <g id="text_10">
      <!-- phone1_event_012 -->
      <g style="fill: #262626" transform="translate(20.521875 337.279424) scale(0.09 -0.09)">
       <use xlink:href="#LiberationSans-70"/>
       <use xlink:href="#LiberationSans-68" transform="translate(55.615234 0)"/>
       <use xlink:href="#LiberationSans-6f" transform="translate(111.230469 0)"/>
       <use xlink:href="#LiberationSans-6e" transform="translate(166.845703 0)"/>
       <use xlink:href="#LiberationSans-65" transform="translate(222.460938 0)"/>
       <use xlink:href="#LiberationSans-31" transform="translate(278.076172 0)"/>
       <use xlink:href="#LiberationSans-5f" transform="translate(333.691406 0)"/>
       <use xlink:href="#LiberationSans-65" transform="translate(389.306641 0)"/>
       <use xlink:href="#LiberationSans-76" transform="translate(444.921875 0)"/>
       <use xlink:href="#LiberationSans-65" transform="translate(494.921875 0)"/>
       <use xlink:href="#LiberationSans-6e" transform="translate(550.537109 0)"/>
       <use xlink:href="#LiberationSans-74" transform="translate(606.152344 0)"/>
       <use xlink:href="#LiberationSans-5f" transform="translate(633.935547 0)"/>
       <use xlink:href="#LiberationSans-30" transform="translate(689.550781 0)"/>
       <use xlink:href="#LiberationSans-31" transform="translate(745.166016 0)"/>
       <use xlink:href="#LiberationSans-32" transform="translate(800.78125 0)"/>
      </g>
     </g>
    </g>
    <g id="ytick_4">
     <g id="line2d_19">
      <path d="M 101.09 302.774879
L 754.621776 302.774879
" clip-path="url(#pd9a2958db4)" style="fill: none; stroke: #cccccc; stroke-width: 0.8; stroke-linecap: round"/>
     </g>
     <g id="line2d_20"/>
     <g id="text_11">
      <!-- phone1_event_020 -->
      <g style="fill: #262626" transform="translate(20.521875 306.035972) scale(0.09 -0.09)">
       <use xlink:href="#LiberationSans-70"/>
       <use xlink:href="#LiberationSans-68" transform="translate(55.615234 0)"/>
       <use xlink:href="#LiberationSans-6f" transform="translate(111.230469 0)"/>
       <use xlink:href="#LiberationSans-6e" transform="translate(166.845703 0)"/>
       <use xlink:href="#LiberationSans-65" transform="translate(222.460938 0)"/>
       <use xlink:href="#LiberationSans-31" transform="translate(278.076172 0)"/>
       <use xlink:href="#LiberationSans-5f" transform="translate(333.691406 0)"/>
       <use xlink:href="#LiberationSans-65" transform="translate(389.306641 0)"/>
       <use xlink:href="#LiberationSans-76" transform="translate(444.921875 0)"/>
       <use xlink:href="#LiberationSans-65" transform="translate(494.921875 0)"/>
       <use xlink:href="#LiberationSans-6e" transform="translate(550.537109 0)"/>
       <use xlink:href="#LiberationSans-74" transform="translate(606.152344 0)"/>
       <use xlink:href="#LiberationSans-5f" transform="translate(633.935547 0)"/>
       <use xlink:href="#LiberationSans-30" transform="translate(689.550781 0)"/>
       <use xlink:href="#LiberationSans-32" transform="translate(745.166016 0)"/>
       <use xlink:href="#LiberationSans-30" transform="translate(800.78125 0)"/>
      </g>
     </g>
    </g>
    <g id="ytick_5">
     <g id="line2d_21">
      <path d="M 101.09 271.531427
L 754.621776 271.531427
" clip-path="url(#pd9a2958db4)" style="fill: none; stroke: #cccccc; stroke-width: 0.8; stroke-linecap: round"/>
     </g>
     <g id="line2d_22"/>
     <g id="text_12">
      <!-- phone1_event_001 -->
      <g style="fill: #262626" transform="translate(20.521875 274.792521) scale(0.09 -0.09)">
       <use xlink:href="#LiberationSans-70"/>
       <use xlink:href="#LiberationSans-68" transform="translate(55.615234 0)"/>
       <use xlink:href="#LiberationSans-6f" transform="translate(111.230469 0)"/>
       <use xlink:href="#LiberationSans-6e" transform="translate(166.845703 0)"/>
       <use xlink:href="#LiberationSans-65" transform="translate(222.460938 0)"/>
       <use xlink:href="#LiberationSans-31" transform="translate(278.076172 0)"/>
       <use xlink:href="#LiberationSans-5f" transform="translate(333.691406 0)"/>
       <use xlink:href="#LiberationSans-65" transform="translate(389.306641 0)"/>
       <use xlink:href="#LiberationSans-76" transform="translate(444.921875 0)"/>
       <use xlink:href="#LiberationSans-65" transform="translate(494.921875 0)"/>
       <use xlink:href="#LiberationSans-6e" transform="translate(550.537109 0)"/>
       <use xlink:href="#LiberationSans-74" transform="translate(606.152344 0)"/>
       <use xlink:href="#LiberationSans-5f" transform="translate(633.935547 0)"/>
       <use xlink:href="#LiberationSans-30" transform="translate(689.550781 0)"/>
       <use xlink:href="#LiberationSans-30" transform="translate(745.166016 0)"/>
       <use xlink:href="#LiberationSans-31" transform="translate(800.78125 0)"/>
      </g>
     </g>
    </g>
    <g id="ytick_6">
     <g id="line2d_23">
      <path d="M 101.09 240.287976
L 754.621776 240.287976
" clip-path="url(#pd9a2958db4)" style="fill: none; stroke: #cccccc; stroke-width: 0.8; stroke-linecap: round"/>
     </g>
     <g id="line2d_24"/>
     <g id="text_13">
      <!-- phone1_event_006 -->
      <g style="fill: #262626" transform="translate(20.521875 243.549069) scale(0.09 -0.09)">
       <use xlink:href="#LiberationSans-70"/>
       <use xlink:href="#LiberationSans-68" transform="translate(55.615234 0)"/>
       <use xlink:href="#LiberationSans-6f" transform="translate(111.230469 0)"/>
       <use xlink:href="#LiberationSans-6e" transform="translate(166.845703 0)"/>
       <use xlink:href="#LiberationSans-65" transform="translate(222.460938 0)"/>
       <use xlink:href="#LiberationSans-31" transform="translate(278.076172 0)"/>
       <use xlink:href="#LiberationSans-5f" transform="translate(333.691406 0)"/>
       <use xlink:href="#LiberationSans-65" transform="translate(389.306641 0)"/>
       <use xlink:href="#LiberationSans-76" transform="translate(444.921875 0)"/>
       <use xlink:href="#LiberationSans-65" transform="translate(494.921875 0)"/>
       <use xlink:href="#LiberationSans-6e" transform="translate(550.537109 0)"/>
       <use xlink:href="#LiberationSans-74" transform="translate(606.152344 0)"/>
       <use xlink:href="#LiberationSans-5f" transform="translate(633.935547 0)"/>
       <use xlink:href="#LiberationSans-30" transform="translate(689.550781 0)"/>
       <use xlink:href="#LiberationSans-30" transform="translate(745.166016 0)"/>
       <use xlink:href="#LiberationSans-36" transform="translate(800.78125 0)"/>
      </g>
     </g>
    </g>
    <g id="ytick_7">
     <g id="line2d_25">
      <path d="M 101.09 209.044524
L 754.621776 209.044524
" clip-path="url(#pd9a2958db4)" style="fill: none; stroke: #cccccc; stroke-width: 0.8; stroke-linecap: round"/>
     </g>
     <g id="line2d_26"/>
     <g id="text_14">
      <!-- phone1_event_015 -->
      <g style="fill: #262626" transform="translate(20.521875 212.305618) scale(0.09 -0.09)">
       <defs>
        <path id="LiberationSans-35" d="M 3291 1434
Q 3291 738 2877 337
Q 2463 -63 1728 -63
Q 1113 -63 734 206
Q 356 475 256 984
L 825 1050
Q 1003 397 1741 397
Q 2194 397 2450 670
Q 2706 944 2706 1422
Q 2706 1838 2448 2094
Q 2191 2350 1753 2350
Q 1525 2350 1328 2278
Q 1131 2206 934 2034
L 384 2034
L 531 4403
L 3034 4403
L 3034 3925
L 1044 3925
L 959 2528
Q 1325 2809 1869 2809
Q 2519 2809 2905 2428
Q 3291 2047 3291 1434
z
" transform="scale(0.015625)"/>
       </defs>
       <use xlink:href="#LiberationSans-70"/>
       <use xlink:href="#LiberationSans-68" transform="translate(55.615234 0)"/>
       <use xlink:href="#LiberationSans-6f" transform="translate(111.230469 0)"/>
       <use xlink:href="#LiberationSans-6e" transform="translate(166.845703 0)"/>
       <use xlink:href="#LiberationSans-65" transform="translate(222.460938 0)"/>
       <use xlink:href="#LiberationSans-31" transform="translate(278.076172 0)"/>
       <use xlink:href="#LiberationSans-5f" transform="translate(333.691406 0)"/>
       <use xlink:href="#LiberationSans-65" transform="translate(389.306641 0)"/>
       <use xlink:href="#LiberationSans-76" transform="translate(444.921875 0)"/>
       <use xlink:href="#LiberationSans-65" transform="translate(494.921875 0)"/>
       <use xlink:href="#LiberationSans-6e" transform="translate(550.537109 0)"/>
       <use xlink:href="#LiberationSans-74" transform="translate(606.152344 0)"/>
       <use xlink:href="#LiberationSans-5f" transform="translate(633.935547 0)"/>
       <use xlink:href="#LiberationSans-30" transform="translate(689.550781 0)"/>
       <use xlink:href="#LiberationSans-31" transform="translate(745.166016 0)"/>
       <use xlink:href="#LiberationSans-35" transform="translate(800.78125 0)"/>
      </g>
     </g>
    </g>
    <g id="ytick_8">
     <g id="line2d_27">
      <path d="M 101.09 177.801073
L 754.621776 177.801073
" clip-path="url(#pd9a2958db4)" style="fill: none; stroke: #cccccc; stroke-width: 0.8; stroke-linecap: round"/>
     </g>
     <g id="line2d_28"/>
     <g id="text_15">
      <!-- phone1_event_005 -->
      <g style="fill: #262626" transform="translate(20.521875 181.062167) scale(0.09 -0.09)">
       <use xlink:href="#LiberationSans-70"/>
       <use xlink:href="#LiberationSans-68" transform="translate(55.615234 0)"/>
       <use xlink:href="#LiberationSans-6f" transform="translate(111.230469 0)"/>
       <use xlink:href="#LiberationSans-6e" transform="translate(166.845703 0)"/>
       <use xlink:href="#LiberationSans-65" transform="translate(222.460938 0)"/>
       <use xlink:href="#LiberationSans-31" transform="translate(278.076172 0)"/>
       <use xlink:href="#LiberationSans-5f" transform="translate(333.691406 0)"/>
       <use xlink:href="#LiberationSans-65" transform="translate(389.306641 0)"/>
       <use xlink:href="#LiberationSans-76" transform="translate(444.921875 0)"/>
       <use xlink:href="#LiberationSans-65" transform="translate(494.921875 0)"/>
       <use xlink:href="#LiberationSans-6e" transform="translate(550.537109 0)"/>
       <use xlink:href="#LiberationSans-74" transform="translate(606.152344 0)"/>
       <use xlink:href="#LiberationSans-5f" transform="translate(633.935547 0)"/>
       <use xlink:href="#LiberationSans-30" transform="translate(689.550781 0)"/>
       <use xlink:href="#LiberationSans-30" transform="translate(745.166016 0)"/>
       <use xlink:href="#LiberationSans-35" transform="translate(800.78125 0)"/>
      </g>
     </g>
    </g>
    <g id="ytick_9">
     <g id="line2d_29">
      <path d="M 101.09 146.557621
L 754.621776 146.557621
" clip-path="url(#pd9a2958db4)" style="fill: none; stroke: #cccccc; stroke-width: 0.8; stroke-linecap: round"/>
     </g>
     <g id="line2d_30"/>
     <g id="text_16">
      <!-- phone1_event_027 -->
      <g style="fill: #262626" transform="translate(20.521875 149.818715) scale(0.09 -0.09)">
       <defs>
        <path id="LiberationSans-37" d="M 3238 3947
Q 2563 2916 2284 2331
Q 2006 1747 1867 1178
Q 1728 609 1728 0
L 1141 0
Q 1141 844 1498 1776
Q 1856 2709 2694 3925
L 328 3925
L 328 4403
L 3238 4403
L 3238 3947
z
" transform="scale(0.015625)"/>
       </defs>
       <use xlink:href="#LiberationSans-70"/>
       <use xlink:href="#LiberationSans-68" transform="translate(55.615234 0)"/>
       <use xlink:href="#LiberationSans-6f" transform="translate(111.230469 0)"/>
       <use xlink:href="#LiberationSans-6e" transform="translate(166.845703 0)"/>
       <use xlink:href="#LiberationSans-65" transform="translate(222.460938 0)"/>
       <use xlink:href="#LiberationSans-31" transform="translate(278.076172 0)"/>
       <use xlink:href="#LiberationSans-5f" transform="translate(333.691406 0)"/>
       <use xlink:href="#LiberationSans-65" transform="translate(389.306641 0)"/>
       <use xlink:href="#LiberationSans-76" transform="translate(444.921875 0)"/>
       <use xlink:href="#LiberationSans-65" transform="translate(494.921875 0)"/>
       <use xlink:href="#LiberationSans-6e" transform="translate(550.537109 0)"/>
       <use xlink:href="#LiberationSans-74" transform="translate(606.152344 0)"/>
       <use xlink:href="#LiberationSans-5f" transform="translate(633.935547 0)"/>
       <use xlink:href="#LiberationSans-30" transform="translate(689.550781 0)"/>
       <use xlink:href="#LiberationSans-32" transform="translate(745.166016 0)"/>
       <use xlink:href="#LiberationSans-37" transform="translate(800.78125 0)"/>
      </g>
     </g>
    </g>
    <g id="ytick_10">
     <g id="line2d_31">
      <path d="M 101.09 115.31417
L 754.621776 115.31417
" clip-path="url(#pd9a2958db4)" style="fill: none; stroke: #cccccc; stroke-width: 0.8; stroke-linecap: round"/>
     </g>
     <g id="line2d_32"/>
     <g id="text_17">
      <!-- phone1_event_025 -->
      <g style="fill: #262626" transform="translate(20.521875 118.575264) scale(0.09 -0.09)">
       <use xlink:href="#LiberationSans-70"/>
       <use xlink:href="#LiberationSans-68" transform="translate(55.615234 0)"/>
       <use xlink:href="#LiberationSans-6f" transform="translate(111.230469 0)"/>
       <use xlink:href="#LiberationSans-6e" transform="translate(166.845703 0)"/>
       <use xlink:href="#LiberationSans-65" transform="translate(222.460938 0)"/>
       <use xlink:href="#LiberationSans-31" transform="translate(278.076172 0)"/>
       <use xlink:href="#LiberationSans-5f" transform="translate(333.691406 0)"/>
       <use xlink:href="#LiberationSans-65" transform="translate(389.306641 0)"/>
       <use xlink:href="#LiberationSans-76" transform="translate(444.921875 0)"/>
       <use xlink:href="#LiberationSans-65" transform="translate(494.921875 0)"/>
       <use xlink:href="#LiberationSans-6e" transform="translate(550.537109 0)"/>
       <use xlink:href="#LiberationSans-74" transform="translate(606.152344 0)"/>
       <use xlink:href="#LiberationSans-5f" transform="translate(633.935547 0)"/>
       <use xlink:href="#LiberationSans-30" transform="translate(689.550781 0)"/>
       <use xlink:href="#LiberationSans-32" transform="translate(745.166016 0)"/>
       <use xlink:href="#LiberationSans-35" transform="translate(800.78125 0)"/>
      </g>
     </g>
    </g>
    <g id="ytick_11">
     <g id="line2d_33">
      <path d="M 101.09 84.070718
L 754.621776 84.070718
" clip-path="url(#pd9a2958db4)" style="fill: none; stroke: #cccccc; stroke-width: 0.8; stroke-linecap: round"/>
     </g>
     <g id="line2d_34"/>
     <g id="text_18">
      <!-- phone1_event_016 -->
      <g style="fill: #262626" transform="translate(20.521875 87.331812) scale(0.09 -0.09)">
       <use xlink:href="#LiberationSans-70"/>
       <use xlink:href="#LiberationSans-68" transform="translate(55.615234 0)"/>
       <use xlink:href="#LiberationSans-6f" transform="translate(111.230469 0)"/>
       <use xlink:href="#LiberationSans-6e" transform="translate(166.845703 0)"/>
       <use xlink:href="#LiberationSans-65" transform="translate(222.460938 0)"/>
       <use xlink:href="#LiberationSans-31" transform="translate(278.076172 0)"/>
       <use xlink:href="#LiberationSans-5f" transform="translate(333.691406 0)"/>
       <use xlink:href="#LiberationSans-65" transform="translate(389.306641 0)"/>
       <use xlink:href="#LiberationSans-76" transform="translate(444.921875 0)"/>
       <use xlink:href="#LiberationSans-65" transform="translate(494.921875 0)"/>
       <use xlink:href="#LiberationSans-6e" transform="translate(550.537109 0)"/>
       <use xlink:href="#LiberationSans-74" transform="translate(606.152344 0)"/>
       <use xlink:href="#LiberationSans-5f" transform="translate(633.935547 0)"/>
       <use xlink:href="#LiberationSans-30" transform="translate(689.550781 0)"/>
       <use xlink:href="#LiberationSans-31" transform="translate(745.166016 0)"/>
       <use xlink:href="#LiberationSans-36" transform="translate(800.78125 0)"/>
      </g>
     </g>
    </g>
    <g id="ytick_12">
     <g id="line2d_35">
      <path d="M 101.09 52.827267
L 754.621776 52.827267
" clip-path="url(#pd9a2958db4)" style="fill: none; stroke: #cccccc; stroke-width: 0.8; stroke-linecap: round"/>
     </g>
     <g id="line2d_36"/>
     <g id="text_19">
      <!-- phone1_event_026 -->
      <g style="fill: #262626" transform="translate(20.521875 56.088361) scale(0.09 -0.09)">
       <use xlink:href="#LiberationSans-70"/>
       <use xlink:href="#LiberationSans-68" transform="translate(55.615234 0)"/>
       <use xlink:href="#LiberationSans-6f" transform="translate(111.230469 0)"/>
       <use xlink:href="#LiberationSans-6e" transform="translate(166.845703 0)"/>
       <use xlink:href="#LiberationSans-65" transform="translate(222.460938 0)"/>
       <use xlink:href="#LiberationSans-31" transform="translate(278.076172 0)"/>
       <use xlink:href="#LiberationSans-5f" transform="translate(333.691406 0)"/>
       <use xlink:href="#LiberationSans-65" transform="translate(389.306641 0)"/>
       <use xlink:href="#LiberationSans-76" transform="translate(444.921875 0)"/>
       <use xlink:href="#LiberationSans-65" transform="translate(494.921875 0)"/>
       <use xlink:href="#LiberationSans-6e" transform="translate(550.537109 0)"/>
       <use xlink:href="#LiberationSans-74" transform="translate(606.152344 0)"/>
       <use xlink:href="#LiberationSans-5f" transform="translate(633.935547 0)"/>
       <use xlink:href="#LiberationSans-30" transform="translate(689.550781 0)"/>
       <use xlink:href="#LiberationSans-32" transform="translate(745.166016 0)"/>
       <use xlink:href="#LiberationSans-36" transform="translate(800.78125 0)"/>
      </g>
     </g>
    </g>
    <g id="text_20">
     <!-- event_id -->
     <g style="fill: #262626" transform="translate(14.446875 243.568594) rotate(-90) scale(0.1 -0.1)">
      <defs>
       <path id="LiberationSans-64" d="M 2566 544
Q 2409 219 2151 78
Q 1894 -63 1513 -63
Q 872 -63 570 368
Q 269 800 269 1675
Q 269 3444 1513 3444
Q 1897 3444 2153 3303
Q 2409 3163 2566 2856
L 2572 2856
L 2566 3234
L 2566 4638
L 3128 4638
L 3128 697
Q 3128 169 3147 0
L 2609 0
Q 2600 50 2589 231
Q 2578 413 2578 544
L 2566 544
z
M 859 1694
Q 859 984 1046 678
Q 1234 372 1656 372
Q 2134 372 2350 703
Q 2566 1034 2566 1731
Q 2566 2403 2350 2715
Q 2134 3028 1663 3028
Q 1238 3028 1048 2714
Q 859 2400 859 1694
z
" transform="scale(0.015625)"/>
      </defs>
      <use xlink:href="#LiberationSans-65"/>
      <use xlink:href="#LiberationSans-76" transform="translate(55.615234 0)"/>
      <use xlink:href="#LiberationSans-65" transform="translate(105.615234 0)"/>
      <use xlink:href="#LiberationSans-6e" transform="translate(161.230469 0)"/>
      <use xlink:href="#LiberationSans-74" transform="translate(216.845703 0)"/>
      <use xlink:href="#LiberationSans-5f" transform="translate(244.628906 0)"/>
      <use xlink:href="#LiberationSans-69" transform="translate(300.244141 0)"/>
      <use xlink:href="#LiberationSans-64" transform="translate(322.460938 0)"/>
     </g>
    </g>
   </g>
   <g id="patch_3">
    <path d="M 101.09 409.002614
L 673.880326 409.002614
L 673.880326 384.007852
L 101.09 384.007852
z
" clip-path="url(#pd9a2958db4)" style="fill: #be123c; opacity: 0.9"/>
   </g>
   <g id="patch_4">
    <path d="M 101.09 377.759162
L 677.451496 377.759162
L 677.451496 352.764401
L 101.09 352.764401
z
" clip-path="url(#pd9a2958db4)" style="fill: #be123c; opacity: 0.9"/>
   </g>
   <g id="patch_5">
    <path d="M 101.09 346.515711
L 678.592162 346.515711
L 678.592162 321.52095
L 101.09 321.52095
z
" clip-path="url(#pd9a2958db4)" style="fill: #be123c; opacity: 0.9"/>
   </g>
   <g id="patch_6">
    <path d="M 101.09 315.272259
L 680.01953 315.272259
L 680.01953 290.277498
L 101.09 290.277498
z
" clip-path="url(#pd9a2958db4)" style="fill: #be123c; opacity: 0.9"/>
   </g>
   <g id="patch_7">
    <path d="M 101.09 284.028808
L 680.456355 284.028808
L 680.456355 259.034047
L 101.09 259.034047
z
" clip-path="url(#pd9a2958db4)" style="fill: #be123c; opacity: 0.9"/>
   </g>
   <g id="patch_8">
    <path d="M 101.09 252.785356
L 691.314655 252.785356
L 691.314655 227.790595
L 101.09 227.790595
z
" clip-path="url(#pd9a2958db4)" style="fill: #be123c; opacity: 0.9"/>
   </g>
   <g id="patch_9">
    <path d="M 101.09 221.541905
L 691.984869 221.541905
L 691.984869 196.547144
L 101.09 196.547144
z
" clip-path="url(#pd9a2958db4)" style="fill: #be123c; opacity: 0.9"/>
   </g>
   <g id="patch_10">
    <path d="M 101.09 190.298453
L 693.748845 190.298453
L 693.748845 165.303692
L 101.09 165.303692
z
" clip-path="url(#pd9a2958db4)" style="fill: #be123c; opacity: 0.9"/>
   </g>
   <g id="patch_11">
    <path d="M 101.09 159.055002
L 694.227393 159.055002
L 694.227393 134.060241
L 101.09 134.060241
z
" clip-path="url(#pd9a2958db4)" style="fill: #be123c; opacity: 0.9"/>
   </g>
   <g id="patch_12">
    <path d="M 101.09 127.81155
L 695.256513 127.81155
L 695.256513 102.816789
L 101.09 102.816789
z
" clip-path="url(#pd9a2958db4)" style="fill: #be123c; opacity: 0.9"/>
   </g>
   <g id="patch_13">
    <path d="M 101.09 96.568099
L 695.976459 96.568099
L 695.976459 71.573338
L 101.09 71.573338
z
" clip-path="url(#pd9a2958db4)" style="fill: #be123c; opacity: 0.9"/>
   </g>
   <g id="patch_14">
    <path d="M 101.09 65.324648
L 697.363985 65.324648
L 697.363985 40.329886
L 101.09 40.329886
z
" clip-path="url(#pd9a2958db4)" style="fill: #be123c; opacity: 0.9"/>
   </g>
   <g id="patch_15">
    <path d="M 101.09 427.43625
L 101.09 21.89625
" style="fill: none; stroke: #cccccc; stroke-linejoin: miter; stroke-linecap: square"/>
   </g>
   <g id="patch_16">
    <path d="M 101.09 427.43625
L 754.621776 427.43625
" style="fill: none; stroke: #cccccc; stroke-linejoin: miter; stroke-linecap: square"/>
   </g>
   <g id="text_21">
    <!-- 3 windows | 2.55s -->
    <g style="fill: #334155" transform="translate(682.957157 398.684686) scale(0.085 -0.085)">
     <defs>
      <path id="LiberationSans-33" d="M 3278 1216
Q 3278 606 2890 271
Q 2503 -63 1784 -63
Q 1116 -63 717 239
Q 319 541 244 1131
L 825 1184
Q 938 403 1784 403
Q 2209 403 2451 612
Q 2694 822 2694 1234
Q 2694 1594 2417 1795
Q 2141 1997 1619 1997
L 1300 1997
L 1300 2484
L 1606 2484
Q 2069 2484 2323 2686
Q 2578 2888 2578 3244
Q 2578 3597 2370 3801
Q 2163 4006 1753 4006
Q 1381 4006 1151 3815
Q 922 3625 884 3278
L 319 3322
Q 381 3863 767 4166
Q 1153 4469 1759 4469
Q 2422 4469 2789 4161
Q 3156 3853 3156 3303
Q 3156 2881 2920 2617
Q 2684 2353 2234 2259
L 2234 2247
Q 2728 2194 3003 1916
Q 3278 1638 3278 1216
z
" transform="scale(0.015625)"/>
      <path id="LiberationSans-77" d="M 3669 0
L 3016 0
L 2425 2391
L 2313 2919
Q 2284 2778 2225 2514
Q 2166 2250 1588 0
L 938 0
L -9 3381
L 547 3381
L 1119 1084
Q 1141 1009 1253 466
L 1306 697
L 2013 3381
L 2616 3381
L 3206 1059
L 3350 466
L 3447 900
L 4088 3381
L 4638 3381
L 3669 0
z
" transform="scale(0.015625)"/>
      <path id="LiberationSans-73" d="M 2969 934
Q 2969 456 2608 196
Q 2247 -63 1597 -63
Q 966 -63 623 145
Q 281 353 178 794
L 675 891
Q 747 619 972 492
Q 1197 366 1597 366
Q 2025 366 2223 497
Q 2422 628 2422 891
Q 2422 1091 2284 1216
Q 2147 1341 1841 1422
L 1438 1528
Q 953 1653 748 1773
Q 544 1894 428 2066
Q 313 2238 313 2488
Q 313 2950 642 3192
Q 972 3434 1603 3434
Q 2163 3434 2492 3237
Q 2822 3041 2909 2606
L 2403 2544
Q 2356 2769 2151 2889
Q 1947 3009 1603 3009
Q 1222 3009 1040 2893
Q 859 2778 859 2544
Q 859 2400 934 2306
Q 1009 2213 1156 2147
Q 1303 2081 1775 1966
Q 2222 1853 2419 1758
Q 2616 1663 2730 1547
Q 2844 1431 2906 1279
Q 2969 1128 2969 934
z
" transform="scale(0.015625)"/>
      <path id="LiberationSans-7c" d="M 572 -1356
L 572 4638
L 1091 4638
L 1091 -1356
L 572 -1356
z
" transform="scale(0.015625)"/>
     </defs>
     <use xlink:href="#LiberationSans-33"/>
     <use xlink:href="#LiberationSans-20" transform="translate(55.615234 0)"/>
     <use xlink:href="#LiberationSans-77" transform="translate(83.398438 0)"/>
     <use xlink:href="#LiberationSans-69" transform="translate(155.615234 0)"/>
     <use xlink:href="#LiberationSans-6e" transform="translate(177.832031 0)"/>
     <use xlink:href="#LiberationSans-64" transform="translate(233.447266 0)"/>
     <use xlink:href="#LiberationSans-6f" transform="translate(289.0625 0)"/>
     <use xlink:href="#LiberationSans-77" transform="translate(344.677734 0)"/>
     <use xlink:href="#LiberationSans-73" transform="translate(416.894531 0)"/>
     <use xlink:href="#LiberationSans-20" transform="translate(466.894531 0)"/>
     <use xlink:href="#LiberationSans-7c" transform="translate(494.677734 0)"/>
     <use xlink:href="#LiberationSans-20" transform="translate(520.654297 0)"/>
     <use xlink:href="#LiberationSans-32" transform="translate(548.4375 0)"/>
     <use xlink:href="#LiberationSans-2e" transform="translate(604.052734 0)"/>
     <use xlink:href="#LiberationSans-35" transform="translate(631.835938 0)"/>
     <use xlink:href="#LiberationSans-35" transform="translate(687.451172 0)"/>
     <use xlink:href="#LiberationSans-73" transform="translate(743.066406 0)"/>
    </g>
   </g>
   <g id="text_22">
    <!-- 3 windows | 2.55s -->
    <g style="fill: #334155" transform="translate(686.528327 367.441235) scale(0.085 -0.085)">
     <use xlink:href="#LiberationSans-33"/>
     <use xlink:href="#LiberationSans-20" transform="translate(55.615234 0)"/>
     <use xlink:href="#LiberationSans-77" transform="translate(83.398438 0)"/>
     <use xlink:href="#LiberationSans-69" transform="translate(155.615234 0)"/>
     <use xlink:href="#LiberationSans-6e" transform="translate(177.832031 0)"/>
     <use xlink:href="#LiberationSans-64" transform="translate(233.447266 0)"/>
     <use xlink:href="#LiberationSans-6f" transform="translate(289.0625 0)"/>
     <use xlink:href="#LiberationSans-77" transform="translate(344.677734 0)"/>
     <use xlink:href="#LiberationSans-73" transform="translate(416.894531 0)"/>
     <use xlink:href="#LiberationSans-20" transform="translate(466.894531 0)"/>
     <use xlink:href="#LiberationSans-7c" transform="translate(494.677734 0)"/>
     <use xlink:href="#LiberationSans-20" transform="translate(520.654297 0)"/>
     <use xlink:href="#LiberationSans-32" transform="translate(548.4375 0)"/>
     <use xlink:href="#LiberationSans-2e" transform="translate(604.052734 0)"/>
     <use xlink:href="#LiberationSans-35" transform="translate(631.835938 0)"/>
     <use xlink:href="#LiberationSans-35" transform="translate(687.451172 0)"/>
     <use xlink:href="#LiberationSans-73" transform="translate(743.066406 0)"/>
    </g>
   </g>
   <g id="text_23">
    <!-- 3 windows | 2.55s -->
    <g style="fill: #334155" transform="translate(687.668993 336.197783) scale(0.085 -0.085)">
     <use xlink:href="#LiberationSans-33"/>
     <use xlink:href="#LiberationSans-20" transform="translate(55.615234 0)"/>
     <use xlink:href="#LiberationSans-77" transform="translate(83.398438 0)"/>
     <use xlink:href="#LiberationSans-69" transform="translate(155.615234 0)"/>
     <use xlink:href="#LiberationSans-6e" transform="translate(177.832031 0)"/>
     <use xlink:href="#LiberationSans-64" transform="translate(233.447266 0)"/>
     <use xlink:href="#LiberationSans-6f" transform="translate(289.0625 0)"/>
     <use xlink:href="#LiberationSans-77" transform="translate(344.677734 0)"/>
     <use xlink:href="#LiberationSans-73" transform="translate(416.894531 0)"/>
     <use xlink:href="#LiberationSans-20" transform="translate(466.894531 0)"/>
     <use xlink:href="#LiberationSans-7c" transform="translate(494.677734 0)"/>
     <use xlink:href="#LiberationSans-20" transform="translate(520.654297 0)"/>
     <use xlink:href="#LiberationSans-32" transform="translate(548.4375 0)"/>
     <use xlink:href="#LiberationSans-2e" transform="translate(604.052734 0)"/>
     <use xlink:href="#LiberationSans-35" transform="translate(631.835938 0)"/>
     <use xlink:href="#LiberationSans-35" transform="translate(687.451172 0)"/>
     <use xlink:href="#LiberationSans-73" transform="translate(743.066406 0)"/>
    </g>
   </g>
   <g id="text_24">
    <!-- 3 windows | 2.55s -->
    <g style="fill: #334155" transform="translate(689.09636 304.954332) scale(0.085 -0.085)">
     <use xlink:href="#LiberationSans-33"/>
     <use xlink:href="#LiberationSans-20" transform="translate(55.615234 0)"/>
     <use xlink:href="#LiberationSans-77" transform="translate(83.398438 0)"/>
     <use xlink:href="#LiberationSans-69" transform="translate(155.615234 0)"/>
     <use xlink:href="#LiberationSans-6e" transform="translate(177.832031 0)"/>
     <use xlink:href="#LiberationSans-64" transform="translate(233.447266 0)"/>
     <use xlink:href="#LiberationSans-6f" transform="translate(289.0625 0)"/>
     <use xlink:href="#LiberationSans-77" transform="translate(344.677734 0)"/>
     <use xlink:href="#LiberationSans-73" transform="translate(416.894531 0)"/>
     <use xlink:href="#LiberationSans-20" transform="translate(466.894531 0)"/>
     <use xlink:href="#LiberationSans-7c" transform="translate(494.677734 0)"/>
     <use xlink:href="#LiberationSans-20" transform="translate(520.654297 0)"/>
     <use xlink:href="#LiberationSans-32" transform="translate(548.4375 0)"/>
     <use xlink:href="#LiberationSans-2e" transform="translate(604.052734 0)"/>
     <use xlink:href="#LiberationSans-35" transform="translate(631.835938 0)"/>
     <use xlink:href="#LiberationSans-35" transform="translate(687.451172 0)"/>
     <use xlink:href="#LiberationSans-73" transform="translate(743.066406 0)"/>
    </g>
   </g>
   <g id="text_25">
    <!-- 3 windows | 2.55s -->
    <g style="fill: #334155" transform="translate(689.533185 273.71088) scale(0.085 -0.085)">
     <use xlink:href="#LiberationSans-33"/>
     <use xlink:href="#LiberationSans-20" transform="translate(55.615234 0)"/>
     <use xlink:href="#LiberationSans-77" transform="translate(83.398438 0)"/>
     <use xlink:href="#LiberationSans-69" transform="translate(155.615234 0)"/>
     <use xlink:href="#LiberationSans-6e" transform="translate(177.832031 0)"/>
     <use xlink:href="#LiberationSans-64" transform="translate(233.447266 0)"/>
     <use xlink:href="#LiberationSans-6f" transform="translate(289.0625 0)"/>
     <use xlink:href="#LiberationSans-77" transform="translate(344.677734 0)"/>
     <use xlink:href="#LiberationSans-73" transform="translate(416.894531 0)"/>
     <use xlink:href="#LiberationSans-20" transform="translate(466.894531 0)"/>
     <use xlink:href="#LiberationSans-7c" transform="translate(494.677734 0)"/>
     <use xlink:href="#LiberationSans-20" transform="translate(520.654297 0)"/>
     <use xlink:href="#LiberationSans-32" transform="translate(548.4375 0)"/>
     <use xlink:href="#LiberationSans-2e" transform="translate(604.052734 0)"/>
     <use xlink:href="#LiberationSans-35" transform="translate(631.835938 0)"/>
     <use xlink:href="#LiberationSans-35" transform="translate(687.451172 0)"/>
     <use xlink:href="#LiberationSans-73" transform="translate(743.066406 0)"/>
    </g>
   </g>
   <g id="text_26">
    <!-- 2 windows | 1.91s -->
    <g style="fill: #334155" transform="translate(700.391485 242.467429) scale(0.085 -0.085)">
     <defs>
      <path id="LiberationSans-39" d="M 3256 2291
Q 3256 1156 2842 546
Q 2428 -63 1663 -63
Q 1147 -63 836 154
Q 525 372 391 856
L 928 941
Q 1097 391 1672 391
Q 2156 391 2422 841
Q 2688 1291 2700 2125
Q 2575 1844 2272 1673
Q 1969 1503 1606 1503
Q 1013 1503 656 1909
Q 300 2316 300 2988
Q 300 3678 687 4073
Q 1075 4469 1766 4469
Q 2500 4469 2878 3925
Q 3256 3381 3256 2291
z
M 2644 2834
Q 2644 3366 2400 3689
Q 2156 4013 1747 4013
Q 1341 4013 1106 3736
Q 872 3459 872 2988
Q 872 2506 1106 2226
Q 1341 1947 1741 1947
Q 1984 1947 2193 2058
Q 2403 2169 2523 2372
Q 2644 2575 2644 2834
z
" transform="scale(0.015625)"/>
     </defs>
     <use xlink:href="#LiberationSans-32"/>
     <use xlink:href="#LiberationSans-20" transform="translate(55.615234 0)"/>
     <use xlink:href="#LiberationSans-77" transform="translate(83.398438 0)"/>
     <use xlink:href="#LiberationSans-69" transform="translate(155.615234 0)"/>
     <use xlink:href="#LiberationSans-6e" transform="translate(177.832031 0)"/>
     <use xlink:href="#LiberationSans-64" transform="translate(233.447266 0)"/>
     <use xlink:href="#LiberationSans-6f" transform="translate(289.0625 0)"/>
     <use xlink:href="#LiberationSans-77" transform="translate(344.677734 0)"/>
     <use xlink:href="#LiberationSans-73" transform="translate(416.894531 0)"/>
     <use xlink:href="#LiberationSans-20" transform="translate(466.894531 0)"/>
     <use xlink:href="#LiberationSans-7c" transform="translate(494.677734 0)"/>
     <use xlink:href="#LiberationSans-20" transform="translate(520.654297 0)"/>
     <use xlink:href="#LiberationSans-31" transform="translate(548.4375 0)"/>
     <use xlink:href="#LiberationSans-2e" transform="translate(604.052734 0)"/>
     <use xlink:href="#LiberationSans-39" transform="translate(631.835938 0)"/>
     <use xlink:href="#LiberationSans-31" transform="translate(687.451172 0)"/>
     <use xlink:href="#LiberationSans-73" transform="translate(743.066406 0)"/>
    </g>
   </g>
   <g id="text_27">
    <!-- 3 windows | 2.55s -->
    <g style="fill: #334155" transform="translate(701.061699 211.223977) scale(0.085 -0.085)">
     <use xlink:href="#LiberationSans-33"/>
     <use xlink:href="#LiberationSans-20" transform="translate(55.615234 0)"/>
     <use xlink:href="#LiberationSans-77" transform="translate(83.398438 0)"/>
     <use xlink:href="#LiberationSans-69" transform="translate(155.615234 0)"/>
     <use xlink:href="#LiberationSans-6e" transform="translate(177.832031 0)"/>
     <use xlink:href="#LiberationSans-64" transform="translate(233.447266 0)"/>
     <use xlink:href="#LiberationSans-6f" transform="translate(289.0625 0)"/>
     <use xlink:href="#LiberationSans-77" transform="translate(344.677734 0)"/>
     <use xlink:href="#LiberationSans-73" transform="translate(416.894531 0)"/>
     <use xlink:href="#LiberationSans-20" transform="translate(466.894531 0)"/>
     <use xlink:href="#LiberationSans-7c" transform="translate(494.677734 0)"/>
     <use xlink:href="#LiberationSans-20" transform="translate(520.654297 0)"/>
     <use xlink:href="#LiberationSans-32" transform="translate(548.4375 0)"/>
     <use xlink:href="#LiberationSans-2e" transform="translate(604.052734 0)"/>
     <use xlink:href="#LiberationSans-35" transform="translate(631.835938 0)"/>
     <use xlink:href="#LiberationSans-35" transform="translate(687.451172 0)"/>
     <use xlink:href="#LiberationSans-73" transform="translate(743.066406 0)"/>
    </g>
   </g>
   <g id="text_28">
    <!-- 3 windows | 2.55s -->
    <g style="fill: #334155" transform="translate(702.825675 179.980526) scale(0.085 -0.085)">
     <use xlink:href="#LiberationSans-33"/>
     <use xlink:href="#LiberationSans-20" transform="translate(55.615234 0)"/>
     <use xlink:href="#LiberationSans-77" transform="translate(83.398438 0)"/>
     <use xlink:href="#LiberationSans-69" transform="translate(155.615234 0)"/>
     <use xlink:href="#LiberationSans-6e" transform="translate(177.832031 0)"/>
     <use xlink:href="#LiberationSans-64" transform="translate(233.447266 0)"/>
     <use xlink:href="#LiberationSans-6f" transform="translate(289.0625 0)"/>
     <use xlink:href="#LiberationSans-77" transform="translate(344.677734 0)"/>
     <use xlink:href="#LiberationSans-73" transform="translate(416.894531 0)"/>
     <use xlink:href="#LiberationSans-20" transform="translate(466.894531 0)"/>
     <use xlink:href="#LiberationSans-7c" transform="translate(494.677734 0)"/>
     <use xlink:href="#LiberationSans-20" transform="translate(520.654297 0)"/>
     <use xlink:href="#LiberationSans-32" transform="translate(548.4375 0)"/>
     <use xlink:href="#LiberationSans-2e" transform="translate(604.052734 0)"/>
     <use xlink:href="#LiberationSans-35" transform="translate(631.835938 0)"/>
     <use xlink:href="#LiberationSans-35" transform="translate(687.451172 0)"/>
     <use xlink:href="#LiberationSans-73" transform="translate(743.066406 0)"/>
    </g>
   </g>
   <g id="text_29">
    <!-- 3 windows | 2.55s -->
    <g style="fill: #334155" transform="translate(703.304223 148.737074) scale(0.085 -0.085)">
     <use xlink:href="#LiberationSans-33"/>
     <use xlink:href="#LiberationSans-20" transform="translate(55.615234 0)"/>
     <use xlink:href="#LiberationSans-77" transform="translate(83.398438 0)"/>
     <use xlink:href="#LiberationSans-69" transform="translate(155.615234 0)"/>
     <use xlink:href="#LiberationSans-6e" transform="translate(177.832031 0)"/>
     <use xlink:href="#LiberationSans-64" transform="translate(233.447266 0)"/>
     <use xlink:href="#LiberationSans-6f" transform="translate(289.0625 0)"/>
     <use xlink:href="#LiberationSans-77" transform="translate(344.677734 0)"/>
     <use xlink:href="#LiberationSans-73" transform="translate(416.894531 0)"/>
     <use xlink:href="#LiberationSans-20" transform="translate(466.894531 0)"/>
     <use xlink:href="#LiberationSans-7c" transform="translate(494.677734 0)"/>
     <use xlink:href="#LiberationSans-20" transform="translate(520.654297 0)"/>
     <use xlink:href="#LiberationSans-32" transform="translate(548.4375 0)"/>
     <use xlink:href="#LiberationSans-2e" transform="translate(604.052734 0)"/>
     <use xlink:href="#LiberationSans-35" transform="translate(631.835938 0)"/>
     <use xlink:href="#LiberationSans-35" transform="translate(687.451172 0)"/>
     <use xlink:href="#LiberationSans-73" transform="translate(743.066406 0)"/>
    </g>
   </g>
   <g id="text_30">
    <!-- 3 windows | 2.55s -->
    <g style="fill: #334155" transform="translate(704.333344 117.493623) scale(0.085 -0.085)">
     <use xlink:href="#LiberationSans-33"/>
     <use xlink:href="#LiberationSans-20" transform="translate(55.615234 0)"/>
     <use xlink:href="#LiberationSans-77" transform="translate(83.398438 0)"/>
     <use xlink:href="#LiberationSans-69" transform="translate(155.615234 0)"/>
     <use xlink:href="#LiberationSans-6e" transform="translate(177.832031 0)"/>
     <use xlink:href="#LiberationSans-64" transform="translate(233.447266 0)"/>
     <use xlink:href="#LiberationSans-6f" transform="translate(289.0625 0)"/>
     <use xlink:href="#LiberationSans-77" transform="translate(344.677734 0)"/>
     <use xlink:href="#LiberationSans-73" transform="translate(416.894531 0)"/>
     <use xlink:href="#LiberationSans-20" transform="translate(466.894531 0)"/>
     <use xlink:href="#LiberationSans-7c" transform="translate(494.677734 0)"/>
     <use xlink:href="#LiberationSans-20" transform="translate(520.654297 0)"/>
     <use xlink:href="#LiberationSans-32" transform="translate(548.4375 0)"/>
     <use xlink:href="#LiberationSans-2e" transform="translate(604.052734 0)"/>
     <use xlink:href="#LiberationSans-35" transform="translate(631.835938 0)"/>
     <use xlink:href="#LiberationSans-35" transform="translate(687.451172 0)"/>
     <use xlink:href="#LiberationSans-73" transform="translate(743.066406 0)"/>
    </g>
   </g>
   <g id="text_31">
    <!-- 3 windows | 2.55s -->
    <g style="fill: #334155" transform="translate(705.053289 86.250172) scale(0.085 -0.085)">
     <use xlink:href="#LiberationSans-33"/>
     <use xlink:href="#LiberationSans-20" transform="translate(55.615234 0)"/>
     <use xlink:href="#LiberationSans-77" transform="translate(83.398438 0)"/>
     <use xlink:href="#LiberationSans-69" transform="translate(155.615234 0)"/>
     <use xlink:href="#LiberationSans-6e" transform="translate(177.832031 0)"/>
     <use xlink:href="#LiberationSans-64" transform="translate(233.447266 0)"/>
     <use xlink:href="#LiberationSans-6f" transform="translate(289.0625 0)"/>
     <use xlink:href="#LiberationSans-77" transform="translate(344.677734 0)"/>
     <use xlink:href="#LiberationSans-73" transform="translate(416.894531 0)"/>
     <use xlink:href="#LiberationSans-20" transform="translate(466.894531 0)"/>
     <use xlink:href="#LiberationSans-7c" transform="translate(494.677734 0)"/>
     <use xlink:href="#LiberationSans-20" transform="translate(520.654297 0)"/>
     <use xlink:href="#LiberationSans-32" transform="translate(548.4375 0)"/>
     <use xlink:href="#LiberationSans-2e" transform="translate(604.052734 0)"/>
     <use xlink:href="#LiberationSans-35" transform="translate(631.835938 0)"/>
     <use xlink:href="#LiberationSans-35" transform="translate(687.451172 0)"/>
     <use xlink:href="#LiberationSans-73" transform="translate(743.066406 0)"/>
    </g>
   </g>
   <g id="text_32">
    <!-- 3 windows | 2.55s -->
    <g style="fill: #334155" transform="translate(706.440815 55.00672) scale(0.085 -0.085)">
     <use xlink:href="#LiberationSans-33"/>
     <use xlink:href="#LiberationSans-20" transform="translate(55.615234 0)"/>
     <use xlink:href="#LiberationSans-77" transform="translate(83.398438 0)"/>
     <use xlink:href="#LiberationSans-69" transform="translate(155.615234 0)"/>
     <use xlink:href="#LiberationSans-6e" transform="translate(177.832031 0)"/>
     <use xlink:href="#LiberationSans-64" transform="translate(233.447266 0)"/>
     <use xlink:href="#LiberationSans-6f" transform="translate(289.0625 0)"/>
     <use xlink:href="#LiberationSans-77" transform="translate(344.677734 0)"/>
     <use xlink:href="#LiberationSans-73" transform="translate(416.894531 0)"/>
     <use xlink:href="#LiberationSans-20" transform="translate(466.894531 0)"/>
     <use xlink:href="#LiberationSans-7c" transform="translate(494.677734 0)"/>
     <use xlink:href="#LiberationSans-20" transform="translate(520.654297 0)"/>
     <use xlink:href="#LiberationSans-32" transform="translate(548.4375 0)"/>
     <use xlink:href="#LiberationSans-2e" transform="translate(604.052734 0)"/>
     <use xlink:href="#LiberationSans-35" transform="translate(631.835938 0)"/>
     <use xlink:href="#LiberationSans-35" transform="translate(687.451172 0)"/>
     <use xlink:href="#LiberationSans-73" transform="translate(743.066406 0)"/>
    </g>
   </g>
   <g id="text_33">
    <!-- Grouped fall events from self-collected replay -->
    <g style="fill: #262626" transform="translate(297.494638 15.89625) scale(0.12 -0.12)">
     <defs>
      <path id="LiberationSans-Bold-47" d="M 2519 659
Q 2878 659 3215 764
Q 3553 869 3738 1031
L 3738 1641
L 2663 1641
L 2663 2322
L 4581 2322
L 4581 703
Q 4231 344 3670 140
Q 3109 -63 2494 -63
Q 1419 -63 841 532
Q 263 1128 263 2222
Q 263 3309 844 3889
Q 1425 4469 2516 4469
Q 4066 4469 4488 3322
L 3638 3066
Q 3500 3400 3206 3572
Q 2913 3744 2516 3744
Q 1866 3744 1528 3350
Q 1191 2956 1191 2222
Q 1191 1475 1539 1067
Q 1888 659 2519 659
z
" transform="scale(0.015625)"/>
      <path id="LiberationSans-Bold-72" d="M 447 0
L 447 2588
Q 447 2866 439 3052
Q 431 3238 422 3381
L 1259 3381
Q 1269 3325 1284 3039
Q 1300 2753 1300 2659
L 1313 2659
Q 1441 3016 1541 3161
Q 1641 3306 1778 3376
Q 1916 3447 2122 3447
Q 2291 3447 2394 3400
L 2394 2666
Q 2181 2713 2019 2713
Q 1691 2713 1508 2447
Q 1325 2181 1325 1659
L 1325 0
L 447 0
z
" transform="scale(0.015625)"/>
      <path id="LiberationSans-Bold-6f" d="M 3659 1694
Q 3659 872 3203 404
Q 2747 -63 1941 -63
Q 1150 -63 700 406
Q 250 875 250 1694
Q 250 2509 700 2976
Q 1150 3444 1959 3444
Q 2788 3444 3223 2992
Q 3659 2541 3659 1694
z
M 2741 1694
Q 2741 2297 2544 2569
Q 2347 2841 1972 2841
Q 1172 2841 1172 1694
Q 1172 1128 1367 833
Q 1563 538 1931 538
Q 2741 538 2741 1694
z
" transform="scale(0.015625)"/>
      <path id="LiberationSans-Bold-75" d="M 1275 3381
L 1275 1484
Q 1275 594 1875 594
Q 2194 594 2389 867
Q 2584 1141 2584 1569
L 2584 3381
L 3463 3381
L 3463 756
Q 3463 325 3488 0
L 2650 0
Q 2613 450 2613 672
L 2597 672
Q 2422 288 2151 112
Q 1881 -63 1509 -63
Q 972 -63 684 267
Q 397 597 397 1234
L 397 3381
L 1275 3381
z
" transform="scale(0.015625)"/>
      <path id="LiberationSans-Bold-70" d="M 3647 1706
Q 3647 859 3308 398
Q 2969 -63 2350 -63
Q 1994 -63 1730 92
Q 1466 247 1325 538
L 1306 538
Q 1325 444 1325 -31
L 1325 -1328
L 447 -1328
L 447 2603
Q 447 3081 422 3381
L 1275 3381
Q 1291 3325 1302 3159
Q 1313 2994 1313 2831
L 1325 2831
Q 1622 3453 2406 3453
Q 2997 3453 3322 2998
Q 3647 2544 3647 1706
z
M 2731 1706
Q 2731 2844 2034 2844
Q 1684 2844 1498 2537
Q 1313 2231 1313 1681
Q 1313 1134 1498 836
Q 1684 538 2028 538
Q 2731 538 2731 1706
z
" transform="scale(0.015625)"/>
      <path id="LiberationSans-Bold-65" d="M 1831 -63
Q 1069 -63 659 389
Q 250 841 250 1706
Q 250 2544 665 2994
Q 1081 3444 1844 3444
Q 2572 3444 2956 2961
Q 3341 2478 3341 1547
L 3341 1522
L 1172 1522
Q 1172 1028 1355 776
Q 1538 525 1875 525
Q 2341 525 2463 928
L 3291 856
Q 2931 -63 1831 -63
z
M 1831 2891
Q 1522 2891 1355 2675
Q 1188 2459 1178 2072
L 2491 2072
Q 2466 2481 2294 2686
Q 2122 2891 1831 2891
z
" transform="scale(0.015625)"/>
      <path id="LiberationSans-Bold-64" d="M 2638 0
Q 2625 47 2608 236
Q 2591 425 2591 550
L 2578 550
Q 2294 -63 1497 -63
Q 906 -63 584 398
Q 263 859 263 1688
Q 263 2528 602 2986
Q 941 3444 1563 3444
Q 1922 3444 2183 3294
Q 2444 3144 2584 2847
L 2591 2847
L 2584 3403
L 2584 4638
L 3463 4638
L 3463 738
Q 3463 425 3488 0
L 2638 0
z
M 2597 1709
Q 2597 2256 2414 2551
Q 2231 2847 1875 2847
Q 1522 2847 1350 2561
Q 1178 2275 1178 1688
Q 1178 538 1869 538
Q 2216 538 2406 842
Q 2597 1147 2597 1709
z
" transform="scale(0.015625)"/>
      <path id="LiberationSans-Bold-20" transform="scale(0.015625)"/>
      <path id="LiberationSans-Bold-66" d="M 1478 2788
L 1478 0
L 603 0
L 603 2788
L 109 2788
L 109 3381
L 603 3381
L 603 3734
Q 603 4194 847 4416
Q 1091 4638 1588 4638
Q 1834 4638 2144 4588
L 2144 4022
Q 2016 4050 1888 4050
Q 1663 4050 1570 3961
Q 1478 3872 1478 3647
L 1478 3381
L 2144 3381
L 2144 2788
L 1478 2788
z
" transform="scale(0.015625)"/>
      <path id="LiberationSans-Bold-61" d="M 1228 -63
Q 738 -63 463 204
Q 188 472 188 956
Q 188 1481 530 1756
Q 872 2031 1522 2038
L 2250 2050
L 2250 2222
Q 2250 2553 2134 2714
Q 2019 2875 1756 2875
Q 1513 2875 1398 2764
Q 1284 2653 1256 2397
L 341 2441
Q 425 2934 792 3189
Q 1159 3444 1794 3444
Q 2434 3444 2781 3128
Q 3128 2813 3128 2231
L 3128 1000
Q 3128 716 3192 608
Q 3256 500 3406 500
Q 3506 500 3600 519
L 3600 44
Q 3522 25 3459 9
Q 3397 -6 3334 -15
Q 3272 -25 3201 -31
Q 3131 -38 3038 -38
Q 2706 -38 2548 125
Q 2391 288 2359 603
L 2341 603
Q 1972 -63 1228 -63
z
M 2250 1566
L 1800 1559
Q 1494 1547 1366 1492
Q 1238 1438 1170 1325
Q 1103 1213 1103 1025
Q 1103 784 1214 667
Q 1325 550 1509 550
Q 1716 550 1886 662
Q 2056 775 2153 973
Q 2250 1172 2250 1394
L 2250 1566
z
" transform="scale(0.015625)"/>
      <path id="LiberationSans-Bold-6c" d="M 447 0
L 447 4638
L 1325 4638
L 1325 0
L 447 0
z
" transform="scale(0.015625)"/>
      <path id="LiberationSans-Bold-76" d="M 2284 0
L 1234 0
L 25 3381
L 953 3381
L 1544 1491
Q 1591 1334 1766 709
Q 1797 838 1894 1159
Q 1991 1481 2613 3381
L 3531 3381
L 2284 0
z
" transform="scale(0.015625)"/>
      <path id="LiberationSans-Bold-6e" d="M 2638 0
L 2638 1897
Q 2638 2788 2034 2788
Q 1716 2788 1520 2514
Q 1325 2241 1325 1813
L 1325 0
L 447 0
L 447 2625
Q 447 2897 439 3070
Q 431 3244 422 3381
L 1259 3381
Q 1269 3322 1284 3064
Q 1300 2806 1300 2709
L 1313 2709
Q 1491 3097 1759 3272
Q 2028 3447 2400 3447
Q 2938 3447 3225 3115
Q 3513 2784 3513 2147
L 3513 0
L 2638 0
z
" transform="scale(0.015625)"/>
      <path id="LiberationSans-Bold-74" d="M 1313 -56
Q 925 -56 715 155
Q 506 366 506 794
L 506 2788
L 78 2788
L 78 3381
L 550 3381
L 825 4175
L 1375 4175
L 1375 3381
L 2016 3381
L 2016 2788
L 1375 2788
L 1375 1031
Q 1375 784 1469 667
Q 1563 550 1759 550
Q 1863 550 2053 594
L 2053 50
Q 1728 -56 1313 -56
z
" transform="scale(0.015625)"/>
      <path id="LiberationSans-Bold-73" d="M 3297 988
Q 3297 497 2895 217
Q 2494 -63 1784 -63
Q 1088 -63 717 157
Q 347 378 225 844
L 997 959
Q 1063 719 1223 619
Q 1384 519 1784 519
Q 2153 519 2322 612
Q 2491 706 2491 906
Q 2491 1069 2355 1164
Q 2219 1259 1894 1325
Q 1150 1472 890 1598
Q 631 1725 495 1926
Q 359 2128 359 2422
Q 359 2906 732 3176
Q 1106 3447 1791 3447
Q 2394 3447 2761 3212
Q 3128 2978 3219 2534
L 2441 2453
Q 2403 2659 2256 2761
Q 2109 2863 1791 2863
Q 1478 2863 1322 2783
Q 1166 2703 1166 2516
Q 1166 2369 1286 2283
Q 1406 2197 1691 2141
Q 2088 2059 2395 1973
Q 2703 1888 2889 1769
Q 3075 1650 3186 1464
Q 3297 1278 3297 988
z
" transform="scale(0.015625)"/>
      <path id="LiberationSans-Bold-6d" d="M 2438 0
L 2438 1897
Q 2438 2788 1925 2788
Q 1659 2788 1492 2516
Q 1325 2244 1325 1813
L 1325 0
L 447 0
L 447 2625
Q 447 2897 439 3070
Q 431 3244 422 3381
L 1259 3381
Q 1269 3322 1284 3064
Q 1300 2806 1300 2709
L 1313 2709
Q 1475 3097 1717 3272
Q 1959 3447 2297 3447
Q 3072 3447 3238 2709
L 3256 2709
Q 3428 3103 3668 3275
Q 3909 3447 4281 3447
Q 4775 3447 5034 3111
Q 5294 2775 5294 2147
L 5294 0
L 4422 0
L 4422 1897
Q 4422 2788 3909 2788
Q 3653 2788 3489 2539
Q 3325 2291 3309 1853
L 3309 0
L 2438 0
z
" transform="scale(0.015625)"/>
      <path id="LiberationSans-Bold-2d" d="M 250 1278
L 250 2041
L 1875 2041
L 1875 1278
L 250 1278
z
" transform="scale(0.015625)"/>
      <path id="LiberationSans-Bold-63" d="M 1856 -63
Q 1088 -63 669 395
Q 250 853 250 1672
Q 250 2509 672 2976
Q 1094 3444 1869 3444
Q 2466 3444 2856 3144
Q 3247 2844 3347 2316
L 2463 2272
Q 2425 2531 2275 2686
Q 2125 2841 1850 2841
Q 1172 2841 1172 1706
Q 1172 538 1863 538
Q 2113 538 2281 695
Q 2450 853 2491 1166
L 3372 1125
Q 3325 778 3123 506
Q 2922 234 2594 85
Q 2266 -63 1856 -63
z
" transform="scale(0.015625)"/>
      <path id="LiberationSans-Bold-79" d="M 884 -1328
Q 569 -1328 331 -1288
L 331 -663
Q 497 -688 634 -688
Q 822 -688 945 -628
Q 1069 -569 1167 -431
Q 1266 -294 1388 34
L 50 3381
L 978 3381
L 1509 1797
Q 1634 1456 1825 753
L 1903 1050
L 2106 1784
L 2606 3381
L 3525 3381
L 2188 -178
Q 1919 -828 1630 -1078
Q 1341 -1328 884 -1328
z
" transform="scale(0.015625)"/>
     </defs>
     <use xlink:href="#LiberationSans-Bold-47"/>
     <use xlink:href="#LiberationSans-Bold-72" transform="translate(77.783203 0)"/>
     <use xlink:href="#LiberationSans-Bold-6f" transform="translate(116.699219 0)"/>
     <use xlink:href="#LiberationSans-Bold-75" transform="translate(177.783203 0)"/>
     <use xlink:href="#LiberationSans-Bold-70" transform="translate(238.867188 0)"/>
     <use xlink:href="#LiberationSans-Bold-65" transform="translate(299.951172 0)"/>
     <use xlink:href="#LiberationSans-Bold-64" transform="translate(355.566406 0)"/>
     <use xlink:href="#LiberationSans-Bold-20" transform="translate(416.650391 0)"/>
     <use xlink:href="#LiberationSans-Bold-66" transform="translate(444.433594 0)"/>
     <use xlink:href="#LiberationSans-Bold-61" transform="translate(477.734375 0)"/>
     <use xlink:href="#LiberationSans-Bold-6c" transform="translate(533.349609 0)"/>
     <use xlink:href="#LiberationSans-Bold-6c" transform="translate(561.132812 0)"/>
     <use xlink:href="#LiberationSans-Bold-20" transform="translate(588.916016 0)"/>
     <use xlink:href="#LiberationSans-Bold-65" transform="translate(616.699219 0)"/>
     <use xlink:href="#LiberationSans-Bold-76" transform="translate(672.314453 0)"/>
     <use xlink:href="#LiberationSans-Bold-65" transform="translate(727.929688 0)"/>
     <use xlink:href="#LiberationSans-Bold-6e" transform="translate(783.544922 0)"/>
     <use xlink:href="#LiberationSans-Bold-74" transform="translate(844.628906 0)"/>
     <use xlink:href="#LiberationSans-Bold-73" transform="translate(877.929688 0)"/>
     <use xlink:href="#LiberationSans-Bold-20" transform="translate(933.544922 0)"/>
     <use xlink:href="#LiberationSans-Bold-66" transform="translate(961.328125 0)"/>
     <use xlink:href="#LiberationSans-Bold-72" transform="translate(994.628906 0)"/>
     <use xlink:href="#LiberationSans-Bold-6f" transform="translate(1033.544922 0)"/>
     <use xlink:href="#LiberationSans-Bold-6d" transform="translate(1094.628906 0)"/>
     <use xlink:href="#LiberationSans-Bold-20" transform="translate(1183.544922 0)"/>
     <use xlink:href="#LiberationSans-Bold-73" transform="translate(1211.328125 0)"/>
     <use xlink:href="#LiberationSans-Bold-65" transform="translate(1266.943359 0)"/>
     <use xlink:href="#LiberationSans-Bold-6c" transform="translate(1322.558594 0)"/>
     <use xlink:href="#LiberationSans-Bold-66" transform="translate(1350.341797 0)"/>
     <use xlink:href="#LiberationSans-Bold-2d" transform="translate(1383.642578 0)"/>
     <use xlink:href="#LiberationSans-Bold-63" transform="translate(1416.943359 0)"/>
     <use xlink:href="#LiberationSans-Bold-6f" transform="translate(1472.558594 0)"/>
     <use xlink:href="#LiberationSans-Bold-6c" transform="translate(1533.642578 0)"/>
     <use xlink:href="#LiberationSans-Bold-6c" transform="translate(1561.425781 0)"/>
     <use xlink:href="#LiberationSans-Bold-65" transform="translate(1589.208984 0)"/>
     <use xlink:href="#LiberationSans-Bold-63" transform="translate(1644.824219 0)"/>
     <use xlink:href="#LiberationSans-Bold-74" transform="translate(1700.439453 0)"/>
     <use xlink:href="#LiberationSans-Bold-65" transform="translate(1733.740234 0)"/>
     <use xlink:href="#LiberationSans-Bold-64" transform="translate(1789.355469 0)"/>
     <use xlink:href="#LiberationSans-Bold-20" transform="translate(1850.439453 0)"/>
     <use xlink:href="#LiberationSans-Bold-72" transform="translate(1878.222656 0)"/>
     <use xlink:href="#LiberationSans-Bold-65" transform="translate(1917.138672 0)"/>
     <use xlink:href="#LiberationSans-Bold-70" transform="translate(1972.753906 0)"/>
     <use xlink:href="#LiberationSans-Bold-6c" transform="translate(2033.837891 0)"/>
     <use xlink:href="#LiberationSans-Bold-61" transform="translate(2061.621094 0)"/>
     <use xlink:href="#LiberationSans-Bold-79" transform="translate(2117.236328 0)"/>
    </g>
   </g>
  </g>
 </g>
 <defs>
  <clipPath id="pd9a2958db4">
   <rect x="101.09" y="21.89625" width="653.531776" height="405.54"/>
  </clipPath>
 </defs>
</svg>
